<?xml version="1.0" encoding="UTF-8" standalone="no"?>
<!-- Created with Inkscape (http://www.inkscape.org/) -->

<svg
   width="256"
   height="64"
   viewBox="0 0 256 64"
   version="1.1"
   id="svg1"
   xml:space="preserve"
   xmlns="http://www.w3.org/2000/svg"
   xmlns:svg="http://www.w3.org/2000/svg"><defs
     id="defs1" /><g
     id="layer1"><rect
       style="fill:#212529;fill-opacity:1;stroke-width:2.83465"
       id="rect1"
       width="256"
       height="64"
       x="0"
       y="0"
       rx="16" /><rect
       style="fill:#ffffff;fill-opacity:1;stroke:#e9ecef;stroke-width:1.93103;stroke-dasharray:none;stroke-opacity:1"
       id="rect2"
       width="54.06897"
       height="54.06897"
       x="4.9655151"
       y="4.9655151"
       rx="15.448277" /><path
       d="m 73.85333,20.413307 q -0.253332,0 -0.453332,-0.186666 -0.199999,-0.186666 -0.199999,-0.493332 v -6.573317 q 0,-0.959997 0.373332,-1.666662 0.386666,-0.706665 1.066664,-1.093331 Q 75.319993,10 76.213324,10 q 0.293333,0 0.479999,0.173333 0.2,0.173333 0.2,0.439999 0,0.253333 -0.2,0.439999 -0.186666,0.173333 -0.479999,0.173333 -0.493332,0 -0.866664,0.226666 -0.373332,0.226666 -0.586665,0.626665 -0.2,0.399999 -0.2,0.946664 v 6.70665 q 0,0.306666 -0.186666,0.493332 -0.186666,0.186666 -0.519999,0.186666 z m -1.226663,-5.879985 q -0.28,0 -0.453332,-0.16 -0.173333,-0.159999 -0.173333,-0.399999 0,-0.266666 0.173333,-0.426665 0.173332,-0.16 0.453332,-0.16 h 3.293325 q 0.279999,0 0.453332,0.16 0.173333,0.159999 0.173333,0.426665 0,0.24 -0.173333,0.399999 -0.173333,0.16 -0.453332,0.16 z m 5.986659,1.319997 q 0,-0.799998 0.386666,-1.426663 0.399999,-0.639999 1.066664,-1.013331 0.666665,-0.373333 1.466663,-0.373333 0.799998,0 1.186663,0.266666 0.399999,0.253333 0.306666,0.613332 -0.04,0.186666 -0.159999,0.293333 -0.106667,0.09333 -0.253333,0.12 -0.146666,0.02667 -0.319999,-0.01333 -0.853331,-0.173333 -1.53333,-0.02667 -0.679998,0.146666 -1.079997,0.546665 -0.386666,0.399999 -0.386666,1.013331 z m 0.01333,4.559988 q -0.319999,0 -0.493332,-0.159999 -0.173333,-0.173333 -0.173333,-0.506666 v -5.959985 q 0,-0.319999 0.173333,-0.493332 0.173333,-0.173333 0.493332,-0.173333 0.333333,0 0.493332,0.173333 0.173333,0.16 0.173333,0.493332 v 5.959985 q 0,0.319999 -0.173333,0.493332 -0.159999,0.173333 -0.493332,0.173333 z m 8.319968,0.05333 q -0.973331,0 -1.746663,-0.479998 -0.773331,-0.493332 -1.226663,-1.319997 -0.439999,-0.839998 -0.439999,-1.893329 0,-1.05333 0.479999,-1.893328 0.493332,-0.839998 1.319996,-1.319997 0.839998,-0.493332 1.879996,-0.493332 1.039997,0 1.866662,0.493332 0.826664,0.479999 1.306663,1.319997 0.493332,0.839998 0.493332,1.893328 h -0.519999 q 0,1.053331 -0.453332,1.893329 -0.439999,0.826665 -1.21333,1.319997 -0.773331,0.479998 -1.746662,0.479998 z M 87.21329,19.26664 q 0.679998,0 1.21333,-0.319999 0.533332,-0.333332 0.839998,-0.893331 0.306666,-0.573332 0.306666,-1.279997 0,-0.719998 -0.306666,-1.279996 -0.306666,-0.573332 -0.839998,-0.893331 -0.533332,-0.333333 -1.21333,-0.333333 -0.666665,0 -1.213331,0.333333 -0.533332,0.319999 -0.853331,0.893331 -0.306666,0.559998 -0.306666,1.279996 0,0.706665 0.306666,1.279997 0.319999,0.559999 0.853331,0.893331 0.546666,0.319999 1.213331,0.319999 z m 2.986659,1.159997 q -0.293333,0 -0.493332,-0.186666 -0.186667,-0.199999 -0.186667,-0.493332 v -2.039995 l 0.253333,-1.413329 1.106664,0.479998 v 2.973326 q 0,0.293333 -0.199999,0.493332 -0.186667,0.186666 -0.479999,0.186666 z m 12.279961,0 q -0.29333,0 -0.49333,-0.186666 -0.18667,-0.199999 -0.18667,-0.493332 v -3.813323 q 0,-0.839998 -0.41333,-1.239997 -0.41333,-0.413333 -1.08,-0.413333 -0.693332,0 -1.146664,0.479999 -0.439999,0.479999 -0.439999,1.226664 h -1.106664 q 0,-0.866665 0.373332,-1.519996 0.373333,-0.666665 1.039998,-1.039998 0.679998,-0.373332 1.546667,-0.373332 0.76,0 1.34666,0.333332 0.58667,0.333333 0.90667,0.986664 0.33333,0.639999 0.33333,1.559997 v 3.813323 q 0,0.293333 -0.18667,0.493332 -0.18666,0.186666 -0.49333,0.186666 z m -8.893314,0 q -0.293332,0 -0.493332,-0.186666 -0.186666,-0.199999 -0.186666,-0.493332 v -5.933318 q 0,-0.306666 0.186666,-0.493332 0.2,-0.186666 0.493332,-0.186666 0.306666,0 0.493332,0.186666 0.186667,0.186666 0.186667,0.493332 v 5.933318 q 0,0.293333 -0.186667,0.493332 -0.186666,0.186666 -0.493332,0.186666 z m 4.453322,0 q -0.293332,0 -0.493332,-0.186666 -0.186666,-0.199999 -0.186666,-0.493332 v -3.813323 q 0,-0.839998 -0.413332,-1.239997 -0.413333,-0.413333 -1.079998,-0.413333 -0.693331,0 -1.146663,0.479999 -0.453332,0.479999 -0.453332,1.226664 H 93.4266 q 0,-0.866665 0.346665,-1.519996 0.346666,-0.666665 0.959998,-1.039998 0.613332,-0.373332 1.399996,-0.373332 0.759999,0 1.346664,0.333332 0.586665,0.333333 0.906664,0.986664 0.333333,0.639999 0.333333,1.559997 v 3.813323 q 0,0.293333 -0.186667,0.493332 -0.186666,0.186666 -0.493332,0.186666 z m 10.799972,0.04 q -1.10666,0 -1.97333,-0.466665 -0.85333,-0.479999 -1.34666,-1.306663 -0.48,-0.839998 -0.48,-1.919996 0,-1.09333 0.45333,-1.919995 0.46667,-0.839998 1.28,-1.306663 0.81333,-0.479999 1.86666,-0.479999 1.04,0 1.78666,0.466666 0.74667,0.453332 1.13333,1.266663 0.4,0.799998 0.4,1.853329 0,0.253332 -0.17333,0.426665 -0.17333,0.16 -0.44,0.16 h -5.37332 v -1.066664 h 5.33332 l -0.54667,0.373332 q -0.0133,-0.666665 -0.26666,-1.186663 -0.25333,-0.533332 -0.72,-0.839998 -0.46667,-0.306666 -1.13333,-0.306666 -0.76,0 -1.30666,0.333332 -0.53334,0.333333 -0.81334,0.919998 -0.27999,0.573332 -0.27999,1.306663 0,0.733332 0.33333,1.306664 0.33333,0.573332 0.92,0.906664 0.58666,0.333333 1.34666,0.333333 0.41333,0 0.84,-0.146667 0.44,-0.159999 0.70666,-0.359999 0.2,-0.146666 0.42667,-0.146666 0.24,-0.01333 0.41333,0.133333 0.22667,0.199999 0.24,0.439999 0.0133,0.239999 -0.21333,0.413332 -0.45334,0.359999 -1.13333,0.586665 -0.66667,0.226666 -1.28,0.226666 z m 6.26665,-0.05333 q -0.21333,0 -0.4,-0.12 -0.17333,-0.133333 -0.24,-0.319999 l -1.97333,-5.919985 q -0.10666,-0.413332 0,-0.666665 0.12,-0.266666 0.50667,-0.266666 0.25333,0 0.41333,0.146667 0.17333,0.133333 0.28,0.466665 l 1.68,5.25332 h -0.46667 l 1.58666,-5.359986 q 0.0667,-0.226666 0.22667,-0.359999 0.16,-0.146667 0.44,-0.146667 0.26666,0 0.42666,0.146667 0.17334,0.133333 0.22667,0.359999 l 1.29333,5.039987 h -0.2 l 1.57333,-4.933321 q 0.18667,-0.613332 0.69333,-0.613332 0.37333,0 0.50667,0.266666 0.13333,0.253333 -0.0133,0.666665 l -1.97332,5.919985 q -0.0533,0.186666 -0.22667,0.319999 -0.17333,0.12 -0.4,0.12 -0.21333,0 -0.4,-0.12 -0.18667,-0.133333 -0.24,-0.319999 l -1.37333,-5.079987 h 0.13333 l -1.43999,5.079987 q -0.0533,0.186666 -0.24,0.319999 -0.17333,0.12 -0.4,0.12 z m 11.06664,0.05333 q -1.08,0 -1.90666,-0.466665 -0.82666,-0.479999 -1.30666,-1.306663 -0.46667,-0.839998 -0.46667,-1.919996 0,-1.09333 0.46667,-1.919995 0.48,-0.839998 1.30666,-1.306663 0.82666,-0.479999 1.90666,-0.479999 1.06667,0 1.89333,0.479999 0.82667,0.466665 1.29333,1.306663 0.48,0.826665 0.48,1.919995 0,1.079998 -0.46667,1.919996 -0.46666,0.826664 -1.29333,1.306663 -0.82666,0.466665 -1.90666,0.466665 z m 0,-1.199997 q 0.69333,0 1.22667,-0.319999 0.53333,-0.319999 0.82666,-0.879998 0.30667,-0.559998 0.30667,-1.29333 0,-0.733331 -0.30667,-1.29333 -0.29333,-0.573332 -0.82666,-0.893331 -0.53334,-0.319999 -1.22667,-0.319999 -0.69333,0 -1.22666,0.319999 -0.53333,0.319999 -0.84,0.893331 -0.30667,0.559999 -0.30667,1.29333 0,0.733332 0.30667,1.29333 0.30667,0.559999 0.84,0.879998 0.53333,0.319999 1.22666,0.319999 z m 6.34664,-3.413324 q 0,-0.799998 0.38667,-1.426663 0.4,-0.639999 1.06666,-1.013331 0.66667,-0.373333 1.46666,-0.373333 0.8,0 1.18667,0.266666 0.4,0.253333 0.30666,0.613332 -0.04,0.186666 -0.16,0.293333 -0.10666,0.09333 -0.25333,0.12 -0.14667,0.02667 -0.32,-0.01333 -0.85333,-0.173333 -1.53333,-0.02667 -0.68,0.146666 -1.07999,0.546665 -0.38667,0.399999 -0.38667,1.013331 z m 0.0133,4.559988 q -0.31999,0 -0.49333,-0.159999 -0.17333,-0.173333 -0.17333,-0.506666 v -5.959985 q 0,-0.319999 0.17333,-0.493332 0.17334,-0.173333 0.49333,-0.173333 0.33334,0 0.49334,0.173333 0.17333,0.16 0.17333,0.493332 v 5.959985 q 0,0.319999 -0.17333,0.493332 -0.16,0.173333 -0.49334,0.173333 z m 7.09332,-2.66666 -0.82666,-0.906664 4.09332,-3.653324 q 0.2,-0.186666 0.44,-0.173333 0.25333,0.01333 0.42666,0.213333 0.18667,0.199999 0.17334,0.439999 -0.0133,0.239999 -0.21334,0.426665 z m -0.62666,2.66666 q -0.29334,0 -0.48,-0.173333 -0.17334,-0.186666 -0.17334,-0.479998 v -9.106644 q 0,-0.293333 0.17334,-0.466666 Q 138.70647,10 138.99981,10 q 0.29333,0 0.46666,0.186666 0.18667,0.173333 0.18667,0.466666 v 9.106644 q 0,0.293332 -0.18667,0.479998 -0.17333,0.173333 -0.46666,0.173333 z m 4.75998,-0.06667 q -0.21333,0.173333 -0.48,0.146666 -0.25333,-0.01333 -0.42666,-0.226666 l -2.70666,-3.346658 0.93333,-0.879998 2.77333,3.413325 q 0.17333,0.213332 0.14666,0.466665 -0.0133,0.239999 -0.24,0.426666 z m 2.13333,-2.90666 q -0.29333,0 -0.49333,-0.186666 -0.18667,-0.186666 -0.18667,-0.479999 0,-0.306666 0.18667,-0.493332 0.2,-0.186666 0.49333,-0.186666 h 2.97333 q 0.29333,0 0.48,0.186666 0.18666,0.186666 0.18666,0.493332 0,0.293333 -0.18666,0.479999 -0.18667,0.186666 -0.48,0.186666 z m 6.98666,2.973326 q -0.58666,0 -1.03999,-0.319999 -0.45334,-0.319999 -0.70667,-0.866664 -0.25333,-0.559999 -0.25333,-1.279997 v -7.279982 q 0,-0.293332 0.18666,-0.479999 Q 151.25312,10 151.54645,10 q 0.29334,0 0.48,0.186666 0.18667,0.186667 0.18667,0.479999 v 7.279982 q 0,0.493332 0.18666,0.813331 0.18667,0.319999 0.48,0.319999 h 0.33334 q 0.26666,0 0.42666,0.186666 0.17333,0.186667 0.17333,0.479999 0,0.293333 -0.25333,0.479999 -0.25333,0.186666 -0.65333,0.186666 z m 4.90663,0.05333 q -0.97333,0 -1.74666,-0.479998 -0.77333,-0.493332 -1.22666,-1.319997 -0.44,-0.839998 -0.44,-1.893329 0,-1.05333 0.48,-1.893328 0.49333,-0.839998 1.31999,-1.319997 0.84,-0.493332 1.88,-0.493332 1.04,0 1.86666,0.493332 0.82667,0.479999 1.30667,1.319997 0.49333,0.839998 0.49333,1.893328 h -0.52 q 0,1.053331 -0.45333,1.893329 -0.44,0.826665 -1.21333,1.319997 -0.77333,0.479998 -1.74667,0.479998 z m 0.26667,-1.199997 q 0.68,0 1.21333,-0.319999 0.53333,-0.333332 0.84,-0.893331 0.30666,-0.573332 0.30666,-1.279997 0,-0.719998 -0.30666,-1.279996 -0.30667,-0.573332 -0.84,-0.893331 -0.53333,-0.333333 -1.21333,-0.333333 -0.66666,0 -1.21333,0.333333 -0.53333,0.319999 -0.85333,0.893331 -0.30667,0.559998 -0.30667,1.279996 0,0.706665 0.30667,1.279997 0.32,0.559999 0.85333,0.893331 0.54667,0.319999 1.21333,0.319999 z m 2.98666,1.159997 q -0.29333,0 -0.49333,-0.186666 -0.18667,-0.199999 -0.18667,-0.493332 v -2.039995 l 0.25333,-1.413329 1.10667,0.479998 v 2.973326 q 0,0.293333 -0.2,0.493332 -0.18667,0.186666 -0.48,0.186666 z m 3.38665,3.106659 q -0.29333,0 -0.49333,-0.199999 -0.18667,-0.186666 -0.18667,-0.479999 v -6.079985 q 0.0133,-1.05333 0.49333,-1.893328 0.48,-0.839998 1.30667,-1.319997 0.82666,-0.493332 1.86666,-0.493332 1.05333,0 1.87999,0.493332 0.82667,0.479999 1.30667,1.319997 0.49333,0.839998 0.49333,1.893328 0,1.053331 -0.45333,1.893329 -0.44,0.826665 -1.21333,1.319997 -0.77333,0.479998 -1.74667,0.479998 -0.78666,0 -1.45332,-0.319999 -0.65334,-0.333332 -1.12,-0.893331 v 3.599991 q 0,0.293333 -0.18667,0.479999 -0.18666,0.199999 -0.49333,0.199999 z m 2.98666,-4.266656 q 0.68,0 1.21333,-0.319999 0.53333,-0.333332 0.84,-0.893331 0.32,-0.573332 0.32,-1.279997 0,-0.719998 -0.32,-1.279996 -0.30667,-0.573332 -0.84,-0.893331 -0.53333,-0.333333 -1.21333,-0.333333 -0.66667,0 -1.21333,0.333333 -0.53333,0.319999 -0.84,0.893331 -0.30667,0.559998 -0.30667,1.279996 0,0.706665 0.30667,1.279997 0.30667,0.559999 0.84,0.893331 0.54666,0.319999 1.21333,0.319999 z m 8.35997,1.146664 q -0.66667,0 -1.2,-0.333332 -0.53333,-0.346666 -0.84,-0.933331 -0.30666,-0.586665 -0.30666,-1.319997 v -6.359984 q 0,-0.293332 0.18666,-0.479999 0.18667,-0.186666 0.48,-0.186666 0.29333,0 0.48,0.186666 0.18667,0.186667 0.18667,0.479999 v 6.359984 q 0,0.533332 0.29333,0.893331 0.29333,0.359999 0.72,0.359999 h 0.45333 q 0.24,0 0.4,0.186666 0.17333,0.186667 0.17333,0.479999 0,0.293333 -0.22667,0.479999 -0.21333,0.186666 -0.55999,0.186666 z m -2.96,-5.879985 q -0.28,0 -0.45333,-0.16 -0.17333,-0.159999 -0.17333,-0.399999 0,-0.266666 0.17333,-0.426665 0.17333,-0.16 0.45333,-0.16 h 3.08 q 0.28,0 0.45333,0.16 0.17333,0.159999 0.17333,0.426665 0,0.24 -0.17333,0.399999 -0.17333,0.16 -0.45333,0.16 z m 8.95997,5.933318 q -1.08,0 -1.90666,-0.466665 -0.82667,-0.479999 -1.30667,-1.306663 -0.46666,-0.839998 -0.46666,-1.919996 0,-1.09333 0.46666,-1.919995 0.48,-0.839998 1.30667,-1.306663 0.82666,-0.479999 1.90666,-0.479999 1.06666,0 1.89333,0.479999 0.82666,0.466665 1.29333,1.306663 0.48,0.826665 0.48,1.919995 0,1.079998 -0.46667,1.919996 -0.46666,0.826664 -1.29333,1.306663 -0.82666,0.466665 -1.90666,0.466665 z m 0,-1.199997 q 0.69333,0 1.22666,-0.319999 0.53334,-0.319999 0.82667,-0.879998 0.30666,-0.559998 0.30666,-1.29333 0,-0.733331 -0.30666,-1.29333 -0.29333,-0.573332 -0.82667,-0.893331 -0.53333,-0.319999 -1.22666,-0.319999 -0.69333,0 -1.22666,0.319999 -0.53334,0.319999 -0.84,0.893331 -0.30667,0.559999 -0.30667,1.29333 0,0.733332 0.30667,1.29333 0.30666,0.559999 0.84,0.879998 0.53333,0.319999 1.22666,0.319999 z m 6.3733,4.266656 q -0.29333,0 -0.49333,-0.199999 -0.18667,-0.186666 -0.18667,-0.479999 v -6.079985 q 0.0133,-1.05333 0.49334,-1.893328 0.47999,-0.839998 1.30666,-1.319997 0.82666,-0.493332 1.86666,-0.493332 1.05333,0 1.88,0.493332 0.82666,0.479999 1.30666,1.319997 0.49333,0.839998 0.49333,1.893328 0,1.053331 -0.45333,1.893329 -0.44,0.826665 -1.21333,1.319997 -0.77333,0.479998 -1.74666,0.479998 -0.78667,0 -1.45333,-0.319999 -0.65333,-0.333332 -1.12,-0.893331 v 3.599991 q 0,0.293333 -0.18667,0.479999 -0.18666,0.199999 -0.49333,0.199999 z m 2.98666,-4.266656 q 0.68,0 1.21333,-0.319999 0.53333,-0.333332 0.84,-0.893331 0.32,-0.573332 0.32,-1.279997 0,-0.719998 -0.32,-1.279996 -0.30667,-0.573332 -0.84,-0.893331 -0.53333,-0.333333 -1.21333,-0.333333 -0.66666,0 -1.21333,0.333333 -0.53333,0.319999 -0.84,0.893331 -0.30666,0.559998 -0.30666,1.279996 0,0.706665 0.30666,1.279997 0.30667,0.559999 0.84,0.893331 0.54667,0.319999 1.21333,0.319999 z m 5.66664,-1.826662 q -0.29333,0 -0.49333,-0.186666 -0.18667,-0.186666 -0.18667,-0.479999 0,-0.306666 0.18667,-0.493332 0.2,-0.186666 0.49333,-0.186666 h 2.97333 q 0.29333,0 0.48,0.186666 0.18666,0.186666 0.18666,0.493332 0,0.293333 -0.18666,0.479999 -0.18667,0.186666 -0.48,0.186666 z m 6.53332,0.306666 -0.82666,-0.906664 4.09332,-3.653324 q 0.2,-0.186666 0.44,-0.173333 0.25333,0.01333 0.42667,0.213333 0.18666,0.199999 0.17333,0.439999 -0.0133,0.239999 -0.21333,0.426665 z m -0.62666,2.66666 q -0.29333,0 -0.48,-0.173333 -0.17333,-0.186666 -0.17333,-0.479998 v -9.106644 q 0,-0.293333 0.17333,-0.466666 Q 202.41292,10 202.70625,10 q 0.29333,0 0.46666,0.186666 0.18667,0.173333 0.18667,0.466666 v 9.106644 q 0,0.293332 -0.18667,0.479998 -0.17333,0.173333 -0.46666,0.173333 z m 4.75999,-0.06667 q -0.21334,0.173333 -0.48,0.146666 -0.25333,-0.01333 -0.42667,-0.226666 l -2.70666,-3.346658 0.93333,-0.879998 2.77333,3.413325 q 0.17333,0.213332 0.14667,0.466665 -0.0133,0.239999 -0.24,0.426666 z m 11.74664,0.08 q -0.29333,0 -0.49333,-0.186666 -0.18667,-0.199999 -0.18667,-0.493332 v -3.813323 q 0,-0.839998 -0.41333,-1.239997 -0.41333,-0.413333 -1.08,-0.413333 -0.69333,0 -1.14666,0.479999 -0.44,0.479999 -0.44,1.226664 h -1.10666 q 0,-0.866665 0.37333,-1.519996 0.37333,-0.666665 1.04,-1.039998 0.67999,-0.373332 1.54666,-0.373332 0.76,0 1.34666,0.333332 0.58667,0.333333 0.90667,0.986664 0.33333,0.639999 0.33333,1.559997 v 3.813323 q 0,0.293333 -0.18667,0.493332 -0.18666,0.186666 -0.49333,0.186666 z m -8.89331,0 q -0.29333,0 -0.49333,-0.186666 -0.18667,-0.199999 -0.18667,-0.493332 v -5.933318 q 0,-0.306666 0.18667,-0.493332 0.2,-0.186666 0.49333,-0.186666 0.30667,0 0.49333,0.186666 0.18667,0.186666 0.18667,0.493332 v 5.933318 q 0,0.293333 -0.18667,0.493332 -0.18666,0.186666 -0.49333,0.186666 z m 4.45332,0 q -0.29333,0 -0.49333,-0.186666 -0.18667,-0.199999 -0.18667,-0.493332 v -3.813323 q 0,-0.839998 -0.41333,-1.239997 -0.41333,-0.413333 -1.08,-0.413333 -0.69333,0 -1.14666,0.479999 -0.45333,0.479999 -0.45333,1.226664 h -0.84 q 0,-0.866665 0.34667,-1.519996 0.34666,-0.666665 0.95999,-1.039998 0.61334,-0.373332 1.4,-0.373332 0.76,0 1.34666,0.333332 0.58667,0.333333 0.90667,0.986664 0.33333,0.639999 0.33333,1.559997 v 3.813323 q 0,0.293333 -0.18667,0.493332 -0.18666,0.186666 -0.49333,0.186666 z m 10.67998,0.04 q -1.08,0 -1.90666,-0.466665 -0.82667,-0.479999 -1.30667,-1.306663 -0.46666,-0.839998 -0.46666,-1.919996 0,-1.09333 0.46666,-1.919995 0.48,-0.839998 1.30667,-1.306663 0.82666,-0.479999 1.90666,-0.479999 1.06666,0 1.89333,0.479999 0.82666,0.466665 1.29333,1.306663 0.48,0.826665 0.48,1.919995 0,1.079998 -0.46667,1.919996 -0.46667,0.826664 -1.29333,1.306663 -0.82666,0.466665 -1.90666,0.466665 z m 0,-1.199997 q 0.69333,0 1.22666,-0.319999 0.53333,-0.319999 0.82667,-0.879998 0.30666,-0.559998 0.30666,-1.29333 0,-0.733331 -0.30666,-1.29333 -0.29334,-0.573332 -0.82667,-0.893331 -0.53333,-0.319999 -1.22666,-0.319999 -0.69333,0 -1.22667,0.319999 -0.53333,0.319999 -0.83999,0.893331 -0.30667,0.559999 -0.30667,1.29333 0,0.733332 0.30667,1.29333 0.30666,0.559999 0.83999,0.879998 0.53334,0.319999 1.22667,0.319999 z m 8.99997,1.199997 q -1.04,0 -1.88,-0.479998 -0.82666,-0.493332 -1.31999,-1.33333 -0.48,-0.839998 -0.48,-1.893329 0,-1.053331 0.44,-1.879995 0.45333,-0.839998 1.22666,-1.319997 0.77333,-0.493332 1.74666,-0.493332 0.78667,0 1.45333,0.333333 0.66667,0.319999 1.12,0.879997 v -3.599991 q 0,-0.306665 0.18666,-0.493332 Q 237.14616,10 237.4395,10 q 0.30666,0 0.49333,0.186666 0.18666,0.186667 0.18666,0.493332 v 6.079985 q 0,1.053331 -0.49333,1.893329 -0.48,0.839998 -1.30666,1.33333 -0.82667,0.479998 -1.86666,0.479998 z m 0,-1.199997 q 0.68,0 1.21333,-0.319999 0.53333,-0.333332 0.84,-0.906664 0.30666,-0.573332 0.30666,-1.279997 0,-0.719998 -0.30666,-1.279997 -0.30667,-0.559998 -0.84,-0.879997 -0.53333,-0.333333 -1.21333,-0.333333 -0.66667,0 -1.21333,0.333333 -0.53333,0.319999 -0.85333,0.879997 -0.30667,0.559999 -0.30667,1.279997 0,0.706665 0.30667,1.279997 0.32,0.573332 0.85333,0.906664 0.54666,0.319999 1.21333,0.319999 z"
       id="text2"
       style="font-weight:bold;font-size:13.3333px;line-height:1.25;font-family:Comfortaa;-inkscape-font-specification:'Comfortaa Bold';fill:#f8765f;stroke-width:4"
       aria-label="framework-laptop-kmod" /><g
       id="text3"
       style="font-size:10.6667px;line-height:1.25;font-family:Roboto;-inkscape-font-specification:Roboto;fill:#e9ecef;stroke-width:4"
       aria-label="Fan speed monitoring and control&#10;Expose privacy switch status"><path
         d="m 76.182305,34.651058 h -3.182302 v 3.348969 H 72 v -7.583358 h 4.697932 v 0.82292 h -3.697929 v 2.593758 h 3.182302 z m 4.864599,3.348969 q -0.08333,-0.166667 -0.135417,-0.593752 -0.671877,0.697919 -1.604172,0.697919 -0.833336,0 -1.369796,-0.468752 -0.531252,-0.47396 -0.531252,-1.19792 0,-0.880211 0.666669,-1.364588 0.671877,-0.489585 1.885423,-0.489585 h 0.937503 V 34.14064 q 0,-0.50521 -0.302085,-0.802086 -0.302084,-0.302085 -0.890627,-0.302085 -0.515627,0 -0.864586,0.260418 -0.34896,0.260417 -0.34896,0.63021 h -0.968753 q 0,-0.421876 0.296876,-0.812502 0.302084,-0.395835 0.812503,-0.625002 0.515626,-0.229168 1.130211,-0.229168 0.973962,0 1.526047,0.489585 0.552085,0.484377 0.572918,1.338546 v 2.593758 q 0,0.776044 0.197918,1.234379 v 0.08333 z M 79.44794,37.265649 q 0.453127,0 0.859378,-0.234375 0.406251,-0.234376 0.588544,-0.609377 v -1.156254 h -0.755211 q -1.770839,0 -1.770839,1.036462 0,0.453126 0.302084,0.708335 0.302085,0.255209 0.776044,0.255209 z m 4.83335,-4.901057 0.03125,0.708336 q 0.645835,-0.812503 1.687505,-0.812503 1.786464,0 1.802089,2.015632 v 3.72397 h -0.963545 v -3.729179 q -0.0052,-0.609377 -0.281251,-0.901044 -0.270834,-0.291668 -0.848961,-0.291668 -0.468751,0 -0.822919,0.250001 -0.354168,0.250001 -0.552085,0.656252 v 4.015638 h -0.963545 v -5.635435 z m 10.895866,4.140638 q 0,-0.390626 -0.296876,-0.604168 -0.291667,-0.218751 -1.026044,-0.375001 -0.729169,-0.156251 -1.161462,-0.375002 -0.427085,-0.21875 -0.635419,-0.520835 -0.203126,-0.302084 -0.203126,-0.718752 0,-0.69271 0.583335,-1.171879 0.588544,-0.479168 1.500005,-0.479168 0.958337,0 1.552088,0.494793 0.598961,0.494794 0.598961,1.265629 h -0.968753 q 0,-0.395834 -0.338543,-0.682293 -0.333335,-0.28646 -0.843753,-0.28646 -0.526043,0 -0.822919,0.229168 -0.296876,0.229167 -0.296876,0.59896 0,0.348959 0.276042,0.526043 0.276043,0.177084 0.994795,0.338543 0.723961,0.161459 1.171879,0.385418 0.447918,0.223959 0.66146,0.541668 0.218751,0.312501 0.218751,0.765628 0,0.75521 -0.604168,1.213545 -0.604169,0.453127 -1.567714,0.453127 -0.677085,0 -1.19792,-0.239584 -0.520835,-0.239584 -0.817711,-0.666669 -0.291668,-0.432293 -0.291668,-0.932295 h 0.963545 q 0.02604,0.484377 0.385418,0.770836 0.364584,0.281251 0.958336,0.281251 0.546877,0 0.875003,-0.218751 0.333334,-0.223959 0.333334,-0.593752 z m 6.979184,-1.26042 q 0,1.286462 -0.58854,2.072923 -0.58854,0.786461 -1.593754,0.786461 -1.026045,0 -1.614588,-0.651044 v 2.71355 h -0.963545 v -7.802108 h 0.880211 l 0.04687,0.625002 q 0.588544,-0.729169 1.635422,-0.729169 1.015634,0 1.604174,0.765628 0.59375,0.765627 0.59375,2.130215 z m -0.96354,-0.109376 q 0,-0.953128 -0.40625,-1.505213 -0.40625,-0.552085 -1.114588,-0.552085 -0.875003,0 -1.312504,0.776044 v 2.692717 q 0.432293,0.770836 1.322921,0.770836 0.692711,0 1.098961,-0.546877 0.41146,-0.552085 0.41146,-1.635422 z m 4.52606,2.96876 q -1.14584,0 -1.86459,-0.750003 -0.71876,-0.75521 -0.71876,-2.015631 v -0.177084 q 0,-0.838544 0.31771,-1.494796 0.32292,-0.661461 0.89584,-1.031254 0.57813,-0.375001 1.25,-0.375001 1.09897,0 1.70834,0.723961 0.60938,0.72396 0.60938,2.072923 v 0.401043 h -3.81772 q 0.0208,0.833336 0.48438,1.348963 0.46875,0.510418 1.1875,0.510418 0.51042,0 0.86459,-0.208334 0.35416,-0.208334 0.61979,-0.552085 l 0.58854,0.458335 q -0.70833,1.088545 -2.125,1.088545 z m -0.1198,-5.0521 q -0.58333,0 -0.97917,0.427085 -0.39583,0.421876 -0.48958,1.187504 h 2.82293 v -0.07292 q -0.0417,-0.734377 -0.39584,-1.13542 -0.35417,-0.406252 -0.95834,-0.406252 z m 5.77085,5.0521 q -1.14583,0 -1.86458,-0.750003 -0.71876,-0.75521 -0.71876,-2.015631 v -0.177084 q 0,-0.838544 0.31771,-1.494796 0.32292,-0.661461 0.89584,-1.031254 0.57813,-0.375001 1.25,-0.375001 1.09896,0 1.70834,0.723961 0.60938,0.72396 0.60938,2.072923 v 0.401043 h -3.81772 q 0.0208,0.833336 0.48437,1.348963 0.46876,0.510418 1.18751,0.510418 0.51042,0 0.86458,-0.208334 0.35417,-0.208334 0.6198,-0.552085 l 0.58854,0.458335 q -0.70833,1.088545 -2.12501,1.088545 z m -0.11979,-5.0521 q -0.58333,0 -0.97917,0.427085 -0.39583,0.421876 -0.48958,1.187504 h 2.82292 v -0.07292 q -0.0417,-0.734377 -0.39583,-1.13542 -0.35417,-0.406252 -0.95834,-0.406252 z m 3.19793,2.08334 q 0,-1.296879 0.61459,-2.08334 0.61458,-0.791669 1.60938,-0.791669 0.98958,0 1.56771,0.677086 v -2.93751 h 0.96355 v 8.000026 h -0.88542 l -0.0469,-0.604169 q -0.57813,0.708336 -1.60938,0.708336 -0.97917,0 -1.59896,-0.802086 -0.61459,-0.802086 -0.61459,-2.093757 z m 0.96355,0.109376 q 0,0.958336 0.39583,1.500004 0.39584,0.541669 1.09375,0.541669 0.91667,0 1.33855,-0.822919 v -2.58855 q -0.43229,-0.796878 -1.32813,-0.796878 -0.70833,0 -1.10417,0.546877 -0.39583,0.546877 -0.39583,1.619797 z m 8.83336,-2.880218 0.026,0.625002 q 0.61979,-0.729169 1.67188,-0.729169 1.18229,0 1.60938,0.906253 0.28125,-0.406251 0.72917,-0.656252 0.45312,-0.250001 1.06771,-0.250001 1.85417,0 1.88542,1.963548 v 3.776054 h -0.96354 v -3.718762 q 0,-0.604169 -0.27604,-0.901045 -0.27605,-0.302084 -0.92709,-0.302084 -0.53646,0 -0.89063,0.322918 -0.35417,0.317709 -0.41146,0.859378 v 3.739595 h -0.96875 v -3.69272 q 0,-1.229171 -1.20313,-1.229171 -0.94792,0 -1.29688,0.807294 v 4.114597 h -0.96354 v -5.635435 z m 8.18752,2.765634 q 0,-0.828128 0.32292,-1.489588 0.32813,-0.66146 0.90625,-1.020837 0.58334,-0.359376 1.32813,-0.359376 1.15105,0 1.85938,0.796878 0.71355,0.796877 0.71355,2.119798 v 0.06771 q 0,0.822919 -0.31771,1.479171 -0.3125,0.651044 -0.90105,1.015628 -0.58333,0.364585 -1.34375,0.364585 -1.14584,0 -1.85938,-0.796878 -0.70834,-0.796877 -0.70834,-2.109381 z m 0.96876,0.114584 q 0,0.937503 0.43229,1.505213 0.4375,0.56771 1.16667,0.56771 0.73438,0 1.16667,-0.572919 0.43229,-0.578126 0.43229,-1.614588 0,-0.927086 -0.44271,-1.500005 -0.4375,-0.578127 -1.16667,-0.578127 -0.71354,0 -1.15104,0.567711 -0.4375,0.56771 -0.4375,1.625005 z m 6.28127,-2.880218 0.0312,0.708336 q 0.64583,-0.812503 1.6875,-0.812503 1.78647,0 1.80209,2.015632 v 3.72397 h -0.96354 v -3.729179 q -0.005,-0.609377 -0.28125,-0.901044 -0.27084,-0.291668 -0.84896,-0.291668 -0.46876,0 -0.82292,0.250001 -0.35417,0.250001 -0.55209,0.656252 v 4.015638 H 138.771 v -5.635435 z m 6.02084,5.635435 h -0.96354 v -5.635435 h 0.96354 z m -1.04167,-7.130231 q 0,-0.234376 0.14063,-0.395835 0.14583,-0.161459 0.42708,-0.161459 0.28126,0 0.42709,0.161459 0.14583,0.161459 0.14583,0.395835 0,0.234376 -0.14583,0.390626 -0.14583,0.156251 -0.42709,0.156251 -0.28125,0 -0.42708,-0.156251 -0.14063,-0.15625 -0.14063,-0.390626 z m 3.89065,0.130209 v 1.364587 h 1.05208 v 0.744794 h -1.05208 v 3.494803 q 0,0.338543 0.14062,0.510418 0.14063,0.166667 0.47917,0.166667 0.16667,0 0.45833,-0.0625 v 0.781253 q -0.3802,0.104167 -0.73958,0.104167 -0.64584,0 -0.97396,-0.390627 -0.32813,-0.390626 -0.32813,-1.109378 v -3.494803 h -1.02604 v -0.744794 h 1.02604 v -1.364587 z m 1.81771,4.130221 q 0,-0.828128 0.32292,-1.489588 0.32812,-0.66146 0.90625,-1.020837 0.58334,-0.359376 1.32813,-0.359376 1.15104,0 1.85938,0.796878 0.71354,0.796877 0.71354,2.119798 v 0.06771 q 0,0.822919 -0.3177,1.479171 -0.31251,0.651044 -0.90105,1.015628 -0.58333,0.364585 -1.34375,0.364585 -1.14584,0 -1.85938,-0.796878 -0.70834,-0.796877 -0.70834,-2.109381 z m 0.96875,0.114584 q 0,0.937503 0.4323,1.505213 0.4375,0.56771 1.16667,0.56771 0.73437,0 1.16667,-0.572919 0.43229,-0.578126 0.43229,-1.614588 0,-0.927086 -0.44271,-1.500005 -0.4375,-0.578127 -1.16667,-0.578127 -0.71354,0 -1.15105,0.567711 -0.4375,0.56771 -0.4375,1.625005 z m 8.09378,-2.015632 q -0.21875,-0.03646 -0.47396,-0.03646 -0.94792,0 -1.28647,0.807294 v 4.000013 H 156.7086 V 32.36459 h 0.9375 l 0.0156,0.651044 q 0.47396,-0.755211 1.34375,-0.755211 0.28125,0 0.42709,0.07292 z m 1.9323,4.770849 h -0.96355 v -5.635435 h 0.96355 z m -1.04167,-7.130231 q 0,-0.234376 0.14062,-0.395835 0.14584,-0.161459 0.42709,-0.161459 0.28125,0 0.42708,0.161459 0.14584,0.161459 0.14584,0.395835 0,0.234376 -0.14584,0.390626 -0.14583,0.156251 -0.42708,0.156251 -0.28125,0 -0.42709,-0.156251 -0.14062,-0.15625 -0.14062,-0.390626 z m 3.4948,1.494796 0.0312,0.708336 q 0.64583,-0.812503 1.6875,-0.812503 1.78647,0 1.80209,2.015632 v 3.72397 h -0.96354 v -3.729179 q -0.005,-0.609377 -0.28125,-0.901044 -0.27084,-0.291668 -0.84896,-0.291668 -0.46876,0 -0.82292,0.250001 -0.35417,0.250001 -0.55209,0.656252 v 4.015638 h -0.96354 v -5.635435 z m 4.74481,2.770842 q 0,-1.317712 0.60937,-2.093756 0.60938,-0.781253 1.61459,-0.781253 1.03126,0 1.60938,0.729169 l 0.0469,-0.625002 h 0.88021 v 5.500018 q 0,1.093753 -0.65105,1.723963 -0.64583,0.630211 -1.73958,0.630211 -0.60938,0 -1.19272,-0.260418 -0.58333,-0.260417 -0.89062,-0.713544 l 0.5,-0.578127 q 0.61979,0.765628 1.51563,0.765628 0.70312,0 1.09375,-0.395835 0.39584,-0.395834 0.39584,-1.114587 v -0.484376 q -0.57813,0.666669 -1.57813,0.666669 -0.98959,0 -1.60418,-0.796878 -0.60937,-0.796877 -0.60937,-2.171882 z m 0.96875,0.109376 q 0,0.953128 0.39063,1.500004 0.39062,0.541669 1.09375,0.541669 0.91146,0 1.33855,-0.828128 V 33.88543 q -0.44271,-0.807294 -1.32813,-0.807294 -0.70313,0 -1.09897,0.546877 -0.39583,0.546877 -0.39583,1.619797 z m 11.36461,2.755217 q -0.0833,-0.166667 -0.13541,-0.593752 -0.67188,0.697919 -1.60417,0.697919 -0.83334,0 -1.3698,-0.468752 -0.53125,-0.47396 -0.53125,-1.19792 0,-0.880211 0.66667,-1.364588 0.67187,-0.489585 1.88542,-0.489585 h 0.9375 V 34.14064 q 0,-0.50521 -0.30208,-0.802086 -0.30209,-0.302085 -0.89063,-0.302085 -0.51563,0 -0.86459,0.260418 -0.34896,0.260417 -0.34896,0.63021 h -0.96875 q 0,-0.421876 0.29688,-0.812502 0.30208,-0.395835 0.8125,-0.625002 0.51563,-0.229168 1.13021,-0.229168 0.97396,0 1.52605,0.489585 0.55208,0.484377 0.57292,1.338546 v 2.593758 q 0,0.776044 0.19791,1.234379 v 0.08333 z m -1.59896,-0.734378 q 0.45313,0 0.85938,-0.234375 0.40625,-0.234376 0.58854,-0.609377 v -1.156254 h -0.75521 q -1.77084,0 -1.77084,1.036462 0,0.453126 0.30209,0.708335 0.30208,0.255209 0.77604,0.255209 z m 4.83335,-4.901057 0.0312,0.708336 q 0.64583,-0.812503 1.6875,-0.812503 1.78647,0 1.80209,2.015632 v 3.72397 h -0.96354 v -3.729179 q -0.005,-0.609377 -0.28125,-0.901044 -0.27084,-0.291668 -0.84896,-0.291668 -0.46875,0 -0.82292,0.250001 -0.35417,0.250001 -0.55209,0.656252 v 4.015638 h -0.96354 v -5.635435 z m 4.7396,2.770842 q 0,-1.296879 0.61458,-2.08334 0.61459,-0.791669 1.60938,-0.791669 0.98959,0 1.56772,0.677086 v -2.93751 h 0.96354 v 8.000026 h -0.88542 l -0.0469,-0.604169 q -0.57813,0.708336 -1.60938,0.708336 -0.97917,0 -1.59897,-0.802086 -0.61458,-0.802086 -0.61458,-2.093757 z m 0.96354,0.109376 q 0,0.958336 0.39584,1.500004 0.39583,0.541669 1.09375,0.541669 0.91667,0 1.33855,-0.822919 v -2.58855 q -0.43229,-0.796878 -1.32813,-0.796878 -0.70834,0 -1.10417,0.546877 -0.39584,0.546877 -0.39584,1.619797 z m 10.18754,2.072923 q 0.51563,0 0.90104,-0.312501 0.38542,-0.312501 0.42709,-0.781253 h 0.91146 q -0.026,0.484377 -0.33333,0.921878 -0.3073,0.437502 -0.82292,0.697919 -0.51042,0.260418 -1.08334,0.260418 -1.15105,0 -1.83334,-0.765628 -0.67709,-0.770835 -0.67709,-2.104173 v -0.161459 q 0,-0.822919 0.30209,-1.463546 0.30208,-0.640627 0.86459,-0.994795 0.56771,-0.354168 1.33854,-0.354168 0.94792,0 1.57292,0.56771 0.63021,0.56771 0.67188,1.473963 h -0.91146 q -0.0417,-0.546876 -0.41667,-0.895836 -0.36979,-0.354168 -0.91667,-0.354168 -0.73438,0 -1.14063,0.531252 -0.40104,0.526043 -0.40104,1.526047 v 0.182292 q 0,0.973961 0.40104,1.500005 0.40105,0.526043 1.14584,0.526043 z m 3.06772,-2.187507 q 0,-0.828128 0.32292,-1.489588 0.32812,-0.66146 0.90625,-1.020837 0.58333,-0.359376 1.32813,-0.359376 1.15104,0 1.85938,0.796878 0.71354,0.796877 0.71354,2.119798 v 0.06771 q 0,0.822919 -0.31771,1.479171 -0.3125,0.651044 -0.90104,1.015628 -0.58334,0.364585 -1.34376,0.364585 -1.14583,0 -1.85938,-0.796878 -0.70833,-0.796877 -0.70833,-2.109381 z m 0.96875,0.114584 q 0,0.937503 0.43229,1.505213 0.43751,0.56771 1.16667,0.56771 0.73438,0 1.16667,-0.572919 0.4323,-0.578126 0.4323,-1.614588 0,-0.927086 -0.44271,-1.500005 -0.4375,-0.578127 -1.16667,-0.578127 -0.71355,0 -1.15105,0.567711 -0.4375,0.56771 -0.4375,1.625005 z m 6.28126,-2.880218 0.0312,0.708336 q 0.64584,-0.812503 1.68751,-0.812503 1.78646,0 1.80209,2.015632 v 3.72397 h -0.96355 v -3.729179 q -0.005,-0.609377 -0.28125,-0.901044 -0.27083,-0.291668 -0.84896,-0.291668 -0.46875,0 -0.82292,0.250001 -0.35417,0.250001 -0.55208,0.656252 v 4.015638 h -0.96355 v -5.635435 z m 6.28127,-1.364587 v 1.364587 h 1.05209 v 0.744794 h -1.05209 v 3.494803 q 0,0.338543 0.14063,0.510418 0.14062,0.166667 0.47917,0.166667 0.16666,0 0.45833,-0.0625 v 0.781253 q -0.38021,0.104167 -0.73958,0.104167 -0.64584,0 -0.97397,-0.390627 -0.32812,-0.390626 -0.32812,-1.109378 v -3.494803 h -1.02605 v -0.744794 h 1.02605 v -1.364587 z m 4.90106,2.229173 q -0.21875,-0.03646 -0.47396,-0.03646 -0.94791,0 -1.28646,0.807294 v 4.000013 h -0.96354 V 32.36459 h 0.9375 l 0.0156,0.651044 q 0.47396,-0.755211 1.34375,-0.755211 0.28125,0 0.42708,0.07292 z m 0.52605,1.901048 q 0,-0.828128 0.32291,-1.489588 0.32813,-0.66146 0.90626,-1.020837 0.58333,-0.359376 1.32813,-0.359376 1.15104,0 1.85938,0.796878 0.71354,0.796877 0.71354,2.119798 v 0.06771 q 0,0.822919 -0.31771,1.479171 -0.3125,0.651044 -0.90104,1.015628 -0.58334,0.364585 -1.34376,0.364585 -1.14583,0 -1.85938,-0.796878 -0.70833,-0.796877 -0.70833,-2.109381 z m 0.96875,0.114584 q 0,0.937503 0.43229,1.505213 0.4375,0.56771 1.16667,0.56771 0.73438,0 1.16667,-0.572919 0.4323,-0.578126 0.4323,-1.614588 0,-0.927086 -0.44271,-1.500005 -0.4375,-0.578127 -1.16667,-0.578127 -0.71355,0 -1.15105,0.567711 -0.4375,0.56771 -0.4375,1.625005 z m 6.41669,2.755217 h -0.96354 v -8.000026 h 0.96354 z"
         id="path1" /><path
         d="m 76.286472,47.828183 h -3.286469 v 2.687508 h 3.817721 v 0.817711 H 72 v -7.583357 h 4.76564 v 0.822919 h -3.765637 v 2.437508 h 3.286469 z m 3.515636,-0.07292 1.250004,-2.057298 h 1.125004 l -1.843756,2.786467 1.901047,2.848967 h -1.114586 l -1.302088,-2.109382 -1.302087,2.109382 h -1.119795 l 1.901047,-2.848967 -1.843756,-2.786467 h 1.114587 z m 8.156276,0.822919 q 0,1.286463 -0.588543,2.072923 -0.588544,0.786461 -1.593756,0.786461 -1.026044,0 -1.614588,-0.651044 v 2.713551 h -0.963545 v -7.802108 h 0.880211 l 0.04688,0.625002 q 0.588543,-0.729169 1.635421,-0.729169 1.015629,0 1.604172,0.765627 0.593752,0.765628 0.593752,2.130215 z M 86.994839,48.46881 q 0,-0.953128 -0.406251,-1.505213 -0.406251,-0.552085 -1.114587,-0.552085 -0.875003,0 -1.312504,0.776044 v 2.692717 q 0.432293,0.770835 1.322921,0.770835 0.69271,0 1.098962,-0.546876 0.411459,-0.552085 0.411459,-1.635422 z m 1.932299,-0.0052 q 0,-0.828127 0.322918,-1.489588 0.328126,-0.66146 0.906253,-1.020836 0.583335,-0.359376 1.328129,-0.359376 1.151045,0 1.859381,0.796877 0.713544,0.796878 0.713544,2.119799 v 0.06771 q 0,0.822919 -0.31771,1.479171 -0.312501,0.651044 -0.901044,1.015629 -0.583335,0.364584 -1.343754,0.364584 -1.145837,0 -1.859381,-0.796877 -0.708336,-0.796878 -0.708336,-2.109382 z m 0.968753,0.114584 q 0,0.937503 0.432293,1.505213 0.437502,0.56771 1.166671,0.56771 0.734377,0 1.16667,-0.572918 0.432293,-0.578127 0.432293,-1.614589 0,-0.927086 -0.44271,-1.500004 -0.437501,-0.578127 -1.16667,-0.578127 -0.713544,0 -1.151045,0.56771 -0.437502,0.56771 -0.437502,1.625005 z m 8.651068,1.260421 q 0,-0.390626 -0.296876,-0.604169 -0.291668,-0.21875 -1.026045,-0.375001 -0.729169,-0.15625 -1.161462,-0.375001 -0.427085,-0.218751 -0.635419,-0.520835 -0.203125,-0.302084 -0.203125,-0.718752 0,-0.692711 0.583335,-1.171879 0.588543,-0.479168 1.500005,-0.479168 0.958336,0 1.552088,0.494793 0.59896,0.494793 0.59896,1.265629 h -0.968753 q 0,-0.395835 -0.338543,-0.682294 -0.333334,-0.286459 -0.843752,-0.286459 -0.526044,0 -0.82292,0.229167 -0.296876,0.229168 -0.296876,0.59896 0,0.34896 0.276043,0.526044 0.276043,0.177084 0.994795,0.338543 0.72396,0.161458 1.171878,0.385417 0.447919,0.223959 0.661461,0.541669 0.218751,0.312501 0.218751,0.765627 0,0.755211 -0.604169,1.213546 -0.604169,0.453126 -1.567713,0.453126 -0.677086,0 -1.197921,-0.239584 -0.520835,-0.239584 -0.817711,-0.666669 -0.291667,-0.432293 -0.291667,-0.932294 h 0.963544 q 0.02604,0.484376 0.385418,0.770835 0.364585,0.281251 0.958337,0.281251 0.546876,0 0.875002,-0.21875 0.333335,-0.223959 0.333335,-0.593752 z m 4.557301,1.598963 q -1.14583,0 -1.86458,-0.750002 -0.71876,-0.755211 -0.71876,-2.015632 v -0.177083 q 0,-0.838545 0.31771,-1.494797 0.32292,-0.66146 0.89584,-1.031253 0.57813,-0.375001 1.25,-0.375001 1.09896,0 1.70834,0.72396 0.60938,0.723961 0.60938,2.072924 v 0.401042 h -3.81772 q 0.0208,0.833336 0.48437,1.348963 0.46876,0.510418 1.18751,0.510418 0.51042,0 0.86458,-0.208334 0.35417,-0.208334 0.6198,-0.552085 l 0.58854,0.458335 q -0.70833,1.088545 -2.12501,1.088545 z m -0.11979,-5.052099 q -0.58333,0 -0.97917,0.427085 -0.39583,0.421876 -0.48958,1.187503 h 2.82292 v -0.07292 q -0.0417,-0.734377 -0.39583,-1.13542 -0.35417,-0.406251 -0.95834,-0.406251 z m 10.83337,2.192715 q 0,1.286463 -0.58854,2.072923 -0.58855,0.786461 -1.59376,0.786461 -1.02604,0 -1.61459,-0.651044 v 2.713551 h -0.96354 v -7.802108 h 0.88021 l 0.0469,0.625002 q 0.58855,-0.729169 1.63543,-0.729169 1.01562,0 1.60417,0.765627 0.59375,0.765628 0.59375,2.130215 z M 112.8543,48.46881 q 0,-0.953128 -0.40626,-1.505213 -0.40625,-0.552085 -1.11458,-0.552085 -0.87501,0 -1.31251,0.776044 v 2.692717 q 0.4323,0.770835 1.32292,0.770835 0.69271,0 1.09897,-0.546876 0.41146,-0.552085 0.41146,-1.635422 z m 4.91147,-1.906256 q -0.21875,-0.03646 -0.47396,-0.03646 -0.94792,0 -1.28646,0.807295 v 4.000012 h -0.96355 v -5.635434 h 0.93751 l 0.0156,0.651043 q 0.47396,-0.75521 1.34375,-0.75521 0.28126,0 0.42709,0.07292 z m 1.9323,4.770848 h -0.96355 v -5.635434 h 0.96355 z m -1.04167,-7.130231 q 0,-0.234375 0.14062,-0.395834 0.14584,-0.161459 0.42709,-0.161459 0.28125,0 0.42708,0.161459 0.14584,0.161459 0.14584,0.395834 0,0.234376 -0.14584,0.390627 -0.14583,0.15625 -0.42708,0.15625 -0.28125,0 -0.42709,-0.15625 -0.14062,-0.156251 -0.14062,-0.390627 z m 4.44272,5.822935 1.39584,-4.328138 h 0.98438 l -2.02084,5.635434 h -0.73438 l -2.04167,-5.635434 h 0.98437 z m 6.70836,1.307296 q -0.0833,-0.166667 -0.13542,-0.593752 -0.67188,0.697919 -1.60417,0.697919 -0.83334,0 -1.3698,-0.468751 -0.53125,-0.47396 -0.53125,-1.197921 0,-0.880211 0.66667,-1.364587 0.67187,-0.489585 1.88542,-0.489585 h 0.9375 v -0.44271 q 0,-0.50521 -0.30208,-0.802086 -0.30209,-0.302084 -0.89063,-0.302084 -0.51563,0 -0.86458,0.260417 -0.34896,0.260418 -0.34896,0.630211 h -0.96876 q 0,-0.421877 0.29688,-0.812503 0.30208,-0.395835 0.8125,-0.625002 0.51563,-0.229167 1.13021,-0.229167 0.97396,0 1.52605,0.489585 0.55208,0.484376 0.57292,1.338545 v 2.593759 q 0,0.776044 0.19792,1.234379 v 0.08333 z m -1.59897,-0.734377 q 0.45313,0 0.85938,-0.234376 0.40625,-0.234376 0.58854,-0.609377 v -1.156253 h -0.75521 q -1.77084,0 -1.77084,1.036461 0,0.453127 0.30209,0.708336 0.30208,0.255209 0.77604,0.255209 z m 6.18231,0.05208 q 0.51563,0 0.90105,-0.312501 0.38542,-0.312501 0.42708,-0.781252 h 0.91146 q -0.026,0.484376 -0.33333,0.921878 -0.30729,0.437501 -0.82292,0.697919 -0.51042,0.260417 -1.08334,0.260417 -1.15104,0 -1.83334,-0.765627 -0.67708,-0.770836 -0.67708,-2.104174 V 48.40631 q 0,-0.82292 0.30208,-1.463547 0.30209,-0.640627 0.86459,-0.994795 0.56771,-0.354167 1.33854,-0.354167 0.94792,0 1.57293,0.56771 0.63021,0.56771 0.67187,1.473963 h -0.91146 q -0.0417,-0.546877 -0.41667,-0.895836 -0.36979,-0.354168 -0.91667,-0.354168 -0.73437,0 -1.14062,0.531252 -0.40105,0.526043 -0.40105,1.526046 v 0.182292 q 0,0.973962 0.40105,1.500005 0.40104,0.526043 1.14583,0.526043 z m 5.16669,-0.729169 1.3125,-4.223971 h 1.03125 l -2.26563,6.505229 q -0.52604,1.406254 -1.67188,1.406254 l -0.18229,-0.01563 -0.35938,-0.06771 v -0.781252 l 0.26042,0.02083 q 0.48958,0 0.76042,-0.197917 0.27604,-0.197917 0.45313,-0.723961 l 0.21354,-0.572918 -2.01043,-5.572934 h 1.05209 z m 9.12502,-0.08333 q 0,-0.390626 -0.29687,-0.604169 -0.29167,-0.21875 -1.02605,-0.375001 -0.72917,-0.15625 -1.16146,-0.375001 -0.42708,-0.218751 -0.63542,-0.520835 -0.20312,-0.302084 -0.20312,-0.718752 0,-0.692711 0.58333,-1.171879 0.58854,-0.479168 1.50001,-0.479168 0.95833,0 1.55208,0.494793 0.59896,0.494793 0.59896,1.265629 h -0.96875 q 0,-0.395835 -0.33854,-0.682294 -0.33334,-0.286459 -0.84375,-0.286459 -0.52605,0 -0.82292,0.229167 -0.29688,0.229168 -0.29688,0.59896 0,0.34896 0.27604,0.526044 0.27605,0.177084 0.9948,0.338543 0.72396,0.161458 1.17188,0.385417 0.44791,0.223959 0.66146,0.541669 0.21875,0.312501 0.21875,0.765627 0,0.755211 -0.60417,1.213546 -0.60417,0.453126 -1.56771,0.453126 -0.67709,0 -1.19792,-0.239584 -0.52084,-0.239584 -0.81772,-0.666669 -0.29166,-0.432293 -0.29166,-0.932294 h 0.96354 q 0.026,0.484376 0.38542,0.770835 0.36458,0.281251 0.95834,0.281251 0.54687,0 0.875,-0.21875 0.33333,-0.223959 0.33333,-0.593752 z m 7.20836,0.166667 1.08333,-4.307305 h 0.96355 l -1.64063,5.635434 h -0.78125 l -1.3698,-4.270847 -1.33334,4.270847 h -0.78125 l -1.63542,-5.635434 h 0.95833 l 1.10938,4.218763 1.31251,-4.218763 h 0.77604 z m 4.07293,1.328129 h -0.96354 v -5.635434 h 0.96354 z m -1.04167,-7.130231 q 0,-0.234375 0.14063,-0.395834 0.14583,-0.161459 0.42708,-0.161459 0.28125,0 0.42709,0.161459 0.14583,0.161459 0.14583,0.395834 0,0.234376 -0.14583,0.390627 -0.14584,0.15625 -0.42709,0.15625 -0.28125,0 -0.42708,-0.15625 -0.14063,-0.156251 -0.14063,-0.390627 z m 3.89064,0.130209 v 1.364588 h 1.05208 v 0.744794 h -1.05208 v 3.494802 q 0,0.338543 0.14062,0.510419 0.14063,0.166667 0.47917,0.166667 0.16667,0 0.45833,-0.0625 v 0.781252 q -0.3802,0.104167 -0.73958,0.104167 -0.64584,0 -0.97396,-0.390626 -0.32813,-0.390626 -0.32813,-1.109379 v -3.494802 h -1.02604 v -0.744794 h 1.02604 V 44.33338 Z m 4.43751,6.317728 q 0.51563,0 0.90105,-0.312501 0.38542,-0.312501 0.42708,-0.781252 h 0.91146 q -0.026,0.484376 -0.33333,0.921878 -0.30729,0.437501 -0.82292,0.697919 -0.51042,0.260417 -1.08334,0.260417 -1.15104,0 -1.83333,-0.765627 -0.67709,-0.770836 -0.67709,-2.104174 V 48.40631 q 0,-0.82292 0.30208,-1.463547 0.30209,-0.640627 0.86459,-0.994795 0.56771,-0.354167 1.33855,-0.354167 0.94792,0 1.57292,0.56771 0.63021,0.56771 0.67187,1.473963 h -0.91146 q -0.0417,-0.546877 -0.41666,-0.895836 -0.3698,-0.354168 -0.91667,-0.354168 -0.73438,0 -1.14063,0.531252 -0.40105,0.526043 -0.40105,1.526046 v 0.182292 q 0,0.973962 0.40105,1.500005 0.40104,0.526043 1.14583,0.526043 z m 4.28648,-4.270846 q 0.64062,-0.786461 1.66667,-0.786461 1.78646,0 1.80209,2.015631 v 3.72397 h -0.96355 v -3.729178 q -0.005,-0.609377 -0.28125,-0.901045 -0.27083,-0.291667 -0.84896,-0.291667 -0.46875,0 -0.82292,0.25 -0.35417,0.250001 -0.55208,0.656252 v 4.015638 h -0.96355 v -8.000025 h 0.96355 z m 10.83336,3.458344 q 0,-0.390626 -0.29688,-0.604169 -0.29166,-0.21875 -1.02604,-0.375001 -0.72917,-0.15625 -1.16146,-0.375001 -0.42709,-0.218751 -0.63542,-0.520835 -0.20313,-0.302084 -0.20313,-0.718752 0,-0.692711 0.58334,-1.171879 0.58854,-0.479168 1.5,-0.479168 0.95834,0 1.55209,0.494793 0.59896,0.494793 0.59896,1.265629 h -0.96875 q 0,-0.395835 -0.33854,-0.682294 -0.33334,-0.286459 -0.84376,-0.286459 -0.52604,0 -0.82292,0.229167 -0.29687,0.229168 -0.29687,0.59896 0,0.34896 0.27604,0.526044 0.27604,0.177084 0.99479,0.338543 0.72397,0.161458 1.17188,0.385417 0.44792,0.223959 0.66146,0.541669 0.21875,0.312501 0.21875,0.765627 0,0.755211 -0.60416,1.213546 -0.60417,0.453126 -1.56772,0.453126 -0.67708,0 -1.19792,-0.239584 -0.52083,-0.239584 -0.81771,-0.666669 -0.29167,-0.432293 -0.29167,-0.932294 h 0.96355 q 0.026,0.484376 0.38542,0.770835 0.36458,0.281251 0.95833,0.281251 0.54688,0 0.87501,-0.21875 0.33333,-0.223959 0.33333,-0.593752 z m 3.52605,-5.505226 v 1.364588 h 1.05209 v 0.744794 h -1.05209 v 3.494802 q 0,0.338543 0.14063,0.510419 0.14062,0.166667 0.47916,0.166667 0.16667,0 0.45834,-0.0625 v 0.781252 q -0.38021,0.104167 -0.73959,0.104167 -0.64583,0 -0.97396,-0.390626 -0.32812,-0.390626 -0.32812,-1.109379 v -3.494802 h -1.02605 v -0.744794 h 1.02605 V 44.33338 Z m 5.65627,7.000022 q -0.0833,-0.166667 -0.13541,-0.593752 -0.67188,0.697919 -1.60418,0.697919 -0.83333,0 -1.36979,-0.468751 -0.53125,-0.47396 -0.53125,-1.197921 0,-0.880211 0.66667,-1.364587 0.67187,-0.489585 1.88542,-0.489585 h 0.9375 v -0.44271 q 0,-0.50521 -0.30208,-0.802086 -0.30209,-0.302084 -0.89063,-0.302084 -0.51563,0 -0.86459,0.260417 -0.34896,0.260418 -0.34896,0.630211 h -0.96875 q 0,-0.421877 0.29688,-0.812503 0.30208,-0.395835 0.8125,-0.625002 0.51563,-0.229167 1.13021,-0.229167 0.97396,0 1.52605,0.489585 0.55208,0.484376 0.57292,1.338545 v 2.593759 q 0,0.776044 0.19791,1.234379 v 0.08333 z m -1.59896,-0.734377 q 0.45313,0 0.85938,-0.234376 0.40625,-0.234376 0.58854,-0.609377 v -1.156253 h -0.75521 q -1.77084,0 -1.77084,1.036461 0,0.453127 0.30209,0.708336 0.30208,0.255209 0.77604,0.255209 z m 5.22918,-6.265645 v 1.364588 h 1.05209 v 0.744794 h -1.05209 v 3.494802 q 0,0.338543 0.14063,0.510419 0.14062,0.166667 0.47917,0.166667 0.16666,0 0.45833,-0.0625 v 0.781252 q -0.38021,0.104167 -0.73959,0.104167 -0.64583,0 -0.97396,-0.390626 -0.32812,-0.390626 -0.32812,-1.109379 v -3.494802 h -1.02605 v -0.744794 h 1.02605 V 44.33338 Z m 5.65627,6.442729 q -0.56251,0.66146 -1.65105,0.66146 -0.90104,0 -1.375,-0.520835 -0.46876,-0.526043 -0.47396,-1.552088 v -3.666678 h 0.96354 v 3.640636 q 0,1.281254 1.04167,1.281254 1.10417,0 1.46875,-0.822919 v -4.098971 h 0.96355 v 5.635434 h -0.91667 z m 5.68231,-0.937503 q 0,-0.390626 -0.29688,-0.604169 -0.29167,-0.21875 -1.02605,-0.375001 -0.72916,-0.15625 -1.16146,-0.375001 -0.42708,-0.218751 -0.63542,-0.520835 -0.20312,-0.302084 -0.20312,-0.718752 0,-0.692711 0.58333,-1.171879 0.58855,-0.479168 1.50001,-0.479168 0.95833,0 1.55209,0.494793 0.59896,0.494793 0.59896,1.265629 h -0.96876 q 0,-0.395835 -0.33854,-0.682294 -0.33333,-0.286459 -0.84375,-0.286459 -0.52605,0 -0.82292,0.229167 -0.29688,0.229168 -0.29688,0.59896 0,0.34896 0.27605,0.526044 0.27604,0.177084 0.99479,0.338543 0.72396,0.161458 1.17188,0.385417 0.44792,0.223959 0.66146,0.541669 0.21875,0.312501 0.21875,0.765627 0,0.755211 -0.60417,1.213546 -0.60417,0.453126 -1.56771,0.453126 -0.67709,0 -1.19792,-0.239584 -0.52084,-0.239584 -0.81771,-0.666669 -0.29167,-0.432293 -0.29167,-0.932294 h 0.96354 q 0.026,0.484376 0.38542,0.770835 0.36459,0.281251 0.95834,0.281251 0.54688,0 0.875,-0.21875 0.33334,-0.223959 0.33334,-0.593752 z"
         id="path2" /></g><g
       style="fill:none"
       id="g10"
       transform="matrix(0.5,0,0,0.5,-29.75,11.533215)"><path
         d="m 167.83734,29.321824 -7.03265,-4.170583 c -3.29254,-1.959384 -5.3277,-5.571662 -5.3277,-9.479527 V 7.33061 c 0,-1.707631 -0.75652,-3.3167223 -2.04594,-4.3894705 -3.8359,-3.18537753 -8.15142,-5.7687211 -12.81839,-7.6186527 -1.55587,-0.6129933 -3.29254,-0.4925838 -4.73105,0.3612309 l -7.04313,4.18148767 c -3.29254,1.95941483 -7.35238,1.95941483 -10.6554,0 l -7.04344,-4.18148767 c -1.43849,-0.8538147 -3.18595,-0.9851707 -4.73094,-0.3612309 -4.67773,1.8499316 -8.982521,4.43327517 -12.807833,7.6077176 -1.289294,1.0727174 -2.045818,2.6818396 -2.045818,4.3894696 v 8.341106 c 0,3.907832 -2.024532,7.520141 -5.327732,9.479525 l -7.032558,4.170429 c -1.438492,0.853862 -2.418791,2.331793 -2.674522,4.017339 -0.394249,2.484885 -0.586047,5.024599 -0.586047,7.607744 0,2.583456 0.191798,5.122861 0.575392,7.596657 0.255731,1.685853 1.23603,3.174565 2.674518,4.028426 l 7.03256,4.17043 c 3.292541,1.959385 5.327731,5.571661 5.327731,9.479649 v 8.341167 c 0,1.707414 0.756524,3.316568 2.045818,4.389439 3.825311,3.174257 8.140761,5.757712 12.807831,7.607745 1.55565,0.612982 3.29263,0.492542 4.73113,-0.36132 l 7.04313,-4.181518 c 3.29254,-1.959384 7.35208,-1.959384 10.6554,0 l 7.04313,4.181518 c 1.43851,0.853862 3.18596,0.974302 4.73105,0.36132 4.66727,-1.850033 8.98248,-4.433488 12.80792,-7.607745 1.28941,-1.072871 2.04593,-2.682025 2.04593,-4.389439 v -8.341167 c 0,-3.907988 2.03517,-7.520264 5.32771,-9.479649 l 7.03234,-4.17043 c 1.4385,-0.853861 2.41897,-2.331484 2.67464,-4.028426 0.37302,-2.473796 0.57539,-5.013201 0.57539,-7.596657 0,-2.583145 -0.1919,-5.122859 -0.57539,-7.596655 -0.24521,-1.685853 -1.21489,-3.163477 -2.65308,-4.017338 z m -44.32655,40.983193 c -15.78073,0 -28.577998,-13.146755 -28.577998,-29.35811 0,-16.211631 12.797268,-29.358172 28.577998,-29.358172 15.78041,0 28.57755,13.146541 28.57755,29.358172 0,16.211355 -12.79714,29.35811 -28.57755,29.35811 z"
         fill="#ffffff"
         id="path10"
         style="fill:#000000;stroke-width:3.0803" /></g></g></svg>
