<?xml version="1.0" encoding="UTF-8" standalone="no"?>
<!-- Created with Inkscape (http://www.inkscape.org/) -->

<svg
   width="256"
   height="64"
   viewBox="0 0 256 64"
   version="1.1"
   id="svg1"
   xml:space="preserve"
   xmlns="http://www.w3.org/2000/svg"
   xmlns:svg="http://www.w3.org/2000/svg"><defs
     id="defs1" /><g
     id="layer1"><rect
       style="fill:#212529;fill-opacity:1;stroke-width:2.83465"
       id="rect1"
       width="256"
       height="64"
       x="0"
       y="0"
       rx="16" /><rect
       style="fill:#ffffff;fill-opacity:1;stroke:#e9ecef;stroke-width:1.93103;stroke-dasharray:none;stroke-opacity:1"
       id="rect2"
       width="54.06897"
       height="54.06897"
       x="4.9655151"
       y="4.9655151"
       rx="15.448277" /><path
       d="m 73.087997,24.87464 q -0.469333,0 -0.789332,-0.32 -0.298666,-0.319999 -0.298666,-0.789332 V 9.3226641 q 0,-0.4906659 0.298666,-0.7893321 0.319999,-0.3199995 0.789332,-0.3199995 0.511999,0 0.853332,0.4053327 L 83.242648,20.991979 V 9.3226641 q 0,-0.4906659 0.319999,-0.7893321 0.32,-0.3199995 0.789332,-0.3199995 0.490666,0 0.789332,0.3199995 0.298666,0.2986662 0.298666,0.7893321 V 23.765308 q 0,0.469333 -0.298666,0.789332 -0.298666,0.32 -0.789332,0.32 -0.213333,0 -0.469332,-0.08533 -0.234667,-0.106666 -0.384,-0.298666 L 74.197329,12.117326 v 11.647982 q 0,0.469333 -0.32,0.789332 -0.298666,0.32 -0.789332,0.32 z m 22.335962,0 q -0.682665,0 -1.002665,-0.703999 L 88.170638,9.8773299 q -0.298667,-0.7253322 -0.064,-1.1946648 0.234666,-0.4693326 0.895998,-0.4693326 0.746666,0 1.023999,0.6613323 L 95.509293,22.037311 H 95.274626 L 100.86395,8.8746648 q 0.17067,-0.3839994 0.384,-0.5119992 0.23467,-0.1493331 0.61867,-0.1493331 0.63999,0 0.87466,0.4693326 0.256,0.4479993 0,1.0026651 L 96.426624,24.170641 q -0.149333,0.341332 -0.405332,0.533332 -0.234667,0.170667 -0.597333,0.170667 z m 15.359971,0 q -0.46933,0 -0.78933,-0.32 -0.32,-0.319999 -0.32,-0.789332 V 8.2133325 h 2.21866 V 23.765308 q 0,0.469333 -0.32,0.789332 -0.31999,0.32 -0.78933,0.32 z m -5.71732,-14.613311 q -0.448,0 -0.74667,-0.2773326 -0.27733,-0.2986662 -0.27733,-0.7466655 0,-0.4479993 0.27733,-0.7253322 0.29867,-0.2986662 0.74667,-0.2986662 h 11.41331 q 0.448,0 0.72534,0.2986662 0.29866,0.2773329 0.29866,0.7253322 0,0.4479993 -0.29866,0.7466655 -0.27734,0.2773326 -0.72534,0.2773326 z m 21.5253,14.826644 q -1.87733,0 -3.43466,-0.618666 -1.55733,-0.639999 -2.688,-1.770664 -1.10933,-1.151998 -1.72799,-2.709329 -0.61867,-1.578664 -0.61867,-3.455995 0,-1.87733 0.61867,-3.434661 0.61866,-1.557331 1.72799,-2.687996 1.13067,-1.1519978 2.688,-1.7706635 1.55733,-0.639999 3.43466,-0.639999 1.87733,0 3.41333,0.639999 1.55733,0.6186657 2.68799,1.7706635 1.13067,1.130665 1.74933,2.687996 0.61867,1.557331 0.61867,3.434661 0,1.877331 -0.61867,3.455995 -0.61866,1.557331 -1.74933,2.709329 -1.13066,1.130665 -2.68799,1.770664 -1.536,0.618666 -3.41333,0.618666 z m 0,-2.005331 q 1.38666,0 2.53866,-0.490666 1.17333,-0.511999 2.02667,-1.386664 0.85333,-0.895999 1.30133,-2.090663 0.46933,-1.194665 0.46933,-2.58133 0,-1.386664 -0.46933,-2.581329 -0.448,-1.194665 -1.30133,-2.06933 -0.85334,-0.895999 -2.02667,-1.386664 -1.152,-0.490666 -2.53866,-0.490666 -1.38666,0 -2.56,0.490666 -1.15199,0.490665 -2.00533,1.386664 -0.83199,0.874665 -1.30133,2.06933 -0.46933,1.194665 -0.46933,2.581329 0,1.386665 0.46933,2.58133 0.46934,1.194664 1.30133,2.090663 0.85334,0.874665 2.00533,1.386664 1.17334,0.490666 2.56,0.490666 z m 13.05597,1.791998 q -0.46933,0 -0.78933,-0.32 -0.32,-0.319999 -0.32,-0.789332 V 9.3226641 q 0,-0.4906659 0.32,-0.7893321 0.32,-0.3199995 0.78933,-0.3199995 h 4.26666 q 1.6,0 2.83733,0.7039989 1.23733,0.7039989 1.92,1.9626636 0.704,1.237331 0.704,2.858662 0,1.557331 -0.704,2.773329 -0.68267,1.215998 -1.92,1.898664 -1.23733,0.682665 -2.83733,0.682665 h -3.15733 v 4.671993 q 0,0.469333 -0.32,0.789332 -0.29866,0.32 -0.78933,0.32 z m 1.10933,-7.829321 h 3.15733 q 0.98133,0 1.728,-0.426666 0.74666,-0.426666 1.17333,-1.173332 0.42667,-0.746665 0.42667,-1.706664 0,-1.023998 -0.42667,-1.791997 -0.42667,-0.789332 -1.17333,-1.237331 -0.74667,-0.448 -1.728,-0.448 h -3.15733 z"
       id="text2"
       style="font-weight:bold;font-size:21.3333px;line-height:1.25;font-family:Comfortaa;-inkscape-font-specification:'Comfortaa Bold';fill:#f8765f;stroke-width:4"
       aria-label="NVTOP" /><g
       id="text3"
       style="font-size:10.6667px;line-height:1.25;font-family:Roboto;-inkscape-font-specification:Roboto;fill:#e9ecef;stroke-width:4"
       aria-label="Improved i915 support&#10;Implemented Xe support"><path
         d="m 73.000006,38.000027 h -1.000003 v -7.583358 h 1.000003 z m 2.583342,-5.635435 0.02604,0.625002 q 0.619794,-0.729169 1.671881,-0.729169 1.182295,0 1.60938,0.906253 0.281251,-0.406251 0.729169,-0.656252 0.453126,-0.250001 1.067711,-0.250001 1.854173,0 1.885423,1.963548 v 3.776054 h -0.963545 v -3.718762 q 0,-0.604169 -0.276042,-0.901045 -0.276043,-0.302084 -0.927086,-0.302084 -0.53646,0 -0.890628,0.322918 -0.354168,0.317709 -0.41146,0.859378 v 3.739595 h -0.968753 v -3.69272 q 0,-1.229171 -1.203129,-1.229171 -0.947919,0 -1.296879,0.807294 v 4.114597 h -0.963545 v -5.635435 z m 13.203166,2.880218 q 0,1.286462 -0.588544,2.072923 -0.588543,0.786461 -1.593755,0.786461 -1.026045,0 -1.614588,-0.651044 v 2.71355 h -0.963545 v -7.802108 h 0.880211 l 0.04687,0.625002 q 0.588544,-0.729169 1.635422,-0.729169 1.015628,0 1.604172,0.765628 0.593752,0.765627 0.593752,2.130215 z m -0.963545,-0.109376 q 0,-0.953128 -0.406251,-1.505213 -0.406251,-0.552085 -1.114587,-0.552085 -0.875003,0 -1.312504,0.776044 v 2.692717 q 0.432293,0.770836 1.322921,0.770836 0.69271,0 1.098961,-0.546877 0.41146,-0.552085 0.41146,-1.635422 z m 4.911474,-1.906256 q -0.218751,-0.03646 -0.47396,-0.03646 -0.947919,0 -1.286462,0.807294 v 4.000013 H 90.010476 V 32.36459 h 0.937503 l 0.01563,0.651044 q 0.47396,-0.755211 1.343754,-0.755211 0.281251,0 0.427085,0.07292 z m 0.526044,1.901048 q 0,-0.828128 0.322918,-1.489588 0.328126,-0.66146 0.906253,-1.020837 0.583335,-0.359376 1.328129,-0.359376 1.151046,0 1.859381,0.796878 0.713544,0.796877 0.713544,2.119798 v 0.06771 q 0,0.822919 -0.317709,1.479171 -0.312501,0.651044 -0.901045,1.015628 -0.583335,0.364585 -1.343754,0.364585 -1.145837,0 -1.859381,-0.796878 -0.708336,-0.796877 -0.708336,-2.109381 z m 0.968754,0.114584 q 0,0.937503 0.432293,1.505213 0.437501,0.56771 1.16667,0.56771 0.734377,0 1.16667,-0.572919 0.432293,-0.578126 0.432293,-1.614588 0,-0.927086 -0.442709,-1.500005 -0.437502,-0.578127 -1.166671,-0.578127 -0.713544,0 -1.151045,0.567711 -0.437501,0.56771 -0.437501,1.625005 z m 7.151059,1.447921 1.39584,-4.328139 h 0.98438 l -2.02084,5.635435 h -0.73438 l -2.041671,-5.635435 h 0.984378 z m 5.57815,1.411463 q -1.14584,0 -1.86459,-0.750003 -0.71876,-0.75521 -0.71876,-2.015631 v -0.177084 q 0,-0.838544 0.31771,-1.494796 0.32292,-0.661461 0.89584,-1.031254 0.57813,-0.375001 1.25,-0.375001 1.09897,0 1.70834,0.723961 0.60938,0.72396 0.60938,2.072923 v 0.401043 h -3.81772 q 0.0208,0.833336 0.48438,1.348963 0.46875,0.510418 1.1875,0.510418 0.51042,0 0.86459,-0.208334 0.35416,-0.208334 0.61979,-0.552085 l 0.58854,0.458335 q -0.70833,1.088545 -2.125,1.088545 z m -0.1198,-5.0521 q -0.58333,0 -0.97917,0.427085 -0.39583,0.421876 -0.48958,1.187504 h 2.82292 v -0.07292 q -0.0417,-0.734377 -0.39583,-1.13542 -0.35417,-0.406252 -0.95834,-0.406252 z m 3.19793,2.08334 q 0,-1.296879 0.61458,-2.08334 0.61459,-0.791669 1.60938,-0.791669 0.98959,0 1.56772,0.677086 v -2.93751 h 0.96354 v 8.000026 h -0.88542 l -0.0469,-0.604169 q -0.57813,0.708336 -1.60938,0.708336 -0.97917,0 -1.59897,-0.802086 -0.61458,-0.802086 -0.61458,-2.093757 z m 0.96354,0.109376 q 0,0.958336 0.39584,1.500004 0.39583,0.541669 1.09375,0.541669 0.91667,0 1.33855,-0.822919 v -2.58855 q -0.43229,-0.796878 -1.32813,-0.796878 -0.70834,0 -1.10417,0.546877 -0.39584,0.546877 -0.39584,1.619797 z m 8.97399,2.755217 h -0.96354 v -5.635435 h 0.96354 z m -1.04167,-7.130231 q 0,-0.234376 0.14063,-0.395835 0.14583,-0.161459 0.42708,-0.161459 0.28126,0 0.42709,0.161459 0.14583,0.161459 0.14583,0.395835 0,0.234376 -0.14583,0.390626 -0.14583,0.156251 -0.42709,0.156251 -0.28125,0 -0.42708,-0.156251 -0.14063,-0.15625 -0.14063,-0.390626 z m 6.1771,3.796887 q -0.30208,0.359376 -0.72396,0.578127 -0.41666,0.21875 -0.91667,0.21875 -0.65625,0 -1.14583,-0.322917 -0.48438,-0.322918 -0.75001,-0.906253 -0.26562,-0.588544 -0.26562,-1.296879 0,-0.760419 0.28646,-1.369796 0.29167,-0.609377 0.82292,-0.932295 0.53125,-0.322918 1.23958,-0.322918 1.12501,0 1.77084,0.843753 0.65105,0.838544 0.65105,2.291674 v 0.281251 q 0,2.213549 -0.87501,3.234385 -0.875,1.015628 -2.64063,1.04167 h -0.1875 v -0.812503 h 0.20313 q 1.19271,-0.02083 1.83333,-0.619793 0.64063,-0.604169 0.69792,-1.906256 z m -1.48438,0 q 0.48438,0 0.89063,-0.296876 0.41146,-0.296876 0.59896,-0.734377 v -0.385418 q 0,-0.94792 -0.41146,-1.541672 -0.41146,-0.593752 -1.04167,-0.593752 -0.63542,0 -1.02083,0.489585 -0.38542,0.484377 -0.38542,1.281254 0,0.776044 0.36979,1.281254 0.375,0.500002 1,0.500002 z m 6.94795,3.333344 h -0.96876 v -6.421896 l -1.94271,0.713544 v -0.875002 l 2.76042,-1.036462 h 0.15105 z m 3.26563,-3.802096 0.38542,-3.781262 h 3.88543 v 0.890628 h -3.06772 l -0.22917,2.067715 q 0.55729,-0.328126 1.26563,-0.328126 1.03646,0 1.64584,0.687502 0.60938,0.682294 0.60938,1.848964 0,1.171879 -0.63542,1.848965 -0.63021,0.671877 -1.76563,0.671877 -1.00522,0 -1.64063,-0.557294 -0.63542,-0.557293 -0.72396,-1.541671 h 0.91146 q 0.0885,0.651043 0.46354,0.984378 0.375,0.328126 0.98959,0.328126 0.67187,0 1.05208,-0.458335 0.38542,-0.458335 0.38542,-1.265629 0,-0.760419 -0.41667,-1.218754 -0.41146,-0.463543 -1.09896,-0.463543 -0.63021,0 -0.98959,0.276043 l -0.2552,0.208334 z m 11.56775,2.307299 q 0,-0.390626 -0.29688,-0.604168 -0.29167,-0.218751 -1.02604,-0.375001 -0.72917,-0.156251 -1.16147,-0.375002 -0.42708,-0.21875 -0.63542,-0.520835 -0.20312,-0.302084 -0.20312,-0.718752 0,-0.69271 0.58333,-1.171879 0.58855,-0.479168 1.50001,-0.479168 0.95834,0 1.55209,0.494793 0.59896,0.494794 0.59896,1.265629 h -0.96876 q 0,-0.395834 -0.33854,-0.682293 -0.33333,-0.28646 -0.84375,-0.28646 -0.52604,0 -0.82292,0.229168 -0.29688,0.229167 -0.29688,0.59896 0,0.348959 0.27605,0.526043 0.27604,0.177084 0.99479,0.338543 0.72396,0.161459 1.17188,0.385418 0.44792,0.223959 0.66146,0.541668 0.21875,0.312501 0.21875,0.765628 0,0.75521 -0.60417,1.213545 -0.60417,0.453127 -1.56771,0.453127 -0.67709,0 -1.19792,-0.239584 -0.52084,-0.239584 -0.81771,-0.666669 -0.29167,-0.432293 -0.29167,-0.932295 h 0.96355 q 0.026,0.484377 0.38541,0.770836 0.36459,0.281251 0.95834,0.281251 0.54688,0 0.875,-0.218751 0.33334,-0.223959 0.33334,-0.593752 z m 5.69793,0.937503 q -0.5625,0.661461 -1.65105,0.661461 -0.90104,0 -1.375,-0.520835 -0.46875,-0.526044 -0.47396,-1.552089 v -3.666678 h 0.96354 v 3.640637 q 0,1.281254 1.04167,1.281254 1.10417,0 1.46876,-0.822919 v -4.098972 h 0.96354 v 5.635435 h -0.91667 z m 7.16148,-2.197923 q 0,1.286462 -0.58854,2.072923 -0.58855,0.786461 -1.59376,0.786461 -1.02604,0 -1.61459,-0.651044 v 2.71355 h -0.96354 v -7.802108 h 0.88021 l 0.0469,0.625002 q 0.58855,-0.729169 1.63543,-0.729169 1.01562,0 1.60417,0.765628 0.59375,0.765627 0.59375,2.130215 z m -0.96355,-0.109376 q 0,-0.953128 -0.40625,-1.505213 -0.40625,-0.552085 -1.11458,-0.552085 -0.87501,0 -1.31251,0.776044 v 2.692717 q 0.4323,0.770836 1.32292,0.770836 0.69271,0 1.09896,-0.546877 0.41146,-0.552085 0.41146,-1.635422 z m 6.94795,0.109376 q 0,1.286462 -0.58855,2.072923 -0.58854,0.786461 -1.59375,0.786461 -1.02605,0 -1.61459,-0.651044 v 2.71355 h -0.96354 v -7.802108 h 0.88021 l 0.0469,0.625002 q 0.58855,-0.729169 1.63542,-0.729169 1.01563,0 1.60418,0.765628 0.59375,0.765627 0.59375,2.130215 z m -0.96355,-0.109376 q 0,-0.953128 -0.40625,-1.505213 -0.40625,-0.552085 -1.11459,-0.552085 -0.875,0 -1.3125,0.776044 v 2.692717 q 0.43229,0.770836 1.32292,0.770836 0.69271,0 1.09896,-0.546877 0.41146,-0.552085 0.41146,-1.635422 z m 1.9323,-0.0052 q 0,-0.828128 0.32291,-1.489588 0.32813,-0.66146 0.90626,-1.020837 0.58333,-0.359376 1.32813,-0.359376 1.15104,0 1.85938,0.796878 0.71354,0.796877 0.71354,2.119798 v 0.06771 q 0,0.822919 -0.31771,1.479171 -0.3125,0.651044 -0.90104,1.015628 -0.58334,0.364585 -1.34376,0.364585 -1.14583,0 -1.85938,-0.796878 -0.70833,-0.796877 -0.70833,-2.109381 z m 0.96875,0.114584 q 0,0.937503 0.43229,1.505213 0.4375,0.56771 1.16667,0.56771 0.73438,0 1.16667,-0.572919 0.4323,-0.578126 0.4323,-1.614588 0,-0.927086 -0.44271,-1.500005 -0.4375,-0.578127 -1.16667,-0.578127 -0.71355,0 -1.15105,0.567711 -0.4375,0.56771 -0.4375,1.625005 z m 8.09377,-2.015632 q -0.21875,-0.03646 -0.47396,-0.03646 -0.94792,0 -1.28646,0.807294 v 4.000013 h -0.96354 v -5.635435 h 0.9375 l 0.0156,0.651044 q 0.47396,-0.755211 1.34376,-0.755211 0.28125,0 0.42708,0.07292 z m 2.45314,-2.229173 V 32.3646 h 1.05208 v 0.744794 h -1.05208 v 3.494803 q 0,0.338543 0.14062,0.510418 0.14063,0.166667 0.47917,0.166667 0.16667,0 0.45834,-0.0625 v 0.781253 q -0.38021,0.104167 -0.73959,0.104167 -0.64584,0 -0.97396,-0.390627 -0.32813,-0.390626 -0.32813,-1.109378 v -3.494803 h -1.02604 V 32.3646 h 1.02604 v -1.364587 z"
         id="path1" /><path
         d="m 73.000006,51.333402 h -1.000003 v -7.583357 h 1.000003 z m 2.583342,-5.635434 0.02604,0.625002 q 0.619794,-0.729169 1.671881,-0.729169 1.182295,0 1.60938,0.906253 0.281251,-0.406252 0.729169,-0.656253 0.453126,-0.25 1.067711,-0.25 1.854173,0 1.885423,1.963548 v 3.776053 H 81.609408 V 47.61464 q 0,-0.604168 -0.276042,-0.901044 -0.276043,-0.302084 -0.927086,-0.302084 -0.53646,0 -0.890628,0.322917 -0.354168,0.31771 -0.41146,0.859378 v 3.739595 h -0.968753 v -3.69272 q 0,-1.22917 -1.203129,-1.22917 -0.947919,0 -1.296879,0.807294 v 4.114596 h -0.963545 v -5.635434 z m 13.203166,2.880217 q 0,1.286463 -0.588544,2.072923 -0.588543,0.786461 -1.593755,0.786461 -1.026045,0 -1.614588,-0.651044 v 2.713551 h -0.963545 v -7.802108 h 0.880211 l 0.04687,0.625002 q 0.588544,-0.729169 1.635422,-0.729169 1.015628,0 1.604172,0.765627 0.593752,0.765628 0.593752,2.130215 z M 87.822969,48.46881 q 0,-0.953128 -0.406251,-1.505213 -0.406251,-0.552085 -1.114587,-0.552085 -0.875003,0 -1.312504,0.776044 v 2.692717 q 0.432293,0.770835 1.322921,0.770835 0.69271,0 1.098961,-0.546876 0.41146,-0.552085 0.41146,-1.635422 z m 3.234385,2.864592 H 90.09381 v -8.000025 h 0.963544 z m 3.880222,0.104167 q -1.145837,0 -1.864589,-0.750002 -0.718753,-0.755211 -0.718753,-2.015632 v -0.177083 q 0,-0.838545 0.31771,-1.494797 0.322917,-0.66146 0.895836,-1.031253 0.578127,-0.375001 1.250004,-0.375001 1.098962,0 1.708338,0.72396 0.609377,0.723961 0.609377,2.072924 v 0.401042 h -3.81772 q 0.02083,0.833336 0.484377,1.348963 0.468751,0.510418 1.187503,0.510418 0.510419,0 0.864586,-0.208334 0.354168,-0.208334 0.619794,-0.552085 l 0.588544,0.458335 q -0.708336,1.088545 -2.125007,1.088545 z M 94.817784,46.38547 q -0.583335,0 -0.97917,0.427085 -0.395835,0.421876 -0.489585,1.187503 h 2.822926 v -0.07292 Q 96.130288,47.192764 95.77612,46.791721 95.421952,46.38547 94.817784,46.38547 Z m 4.338554,-0.687502 0.02604,0.625002 q 0.619793,-0.729169 1.671882,-0.729169 1.1823,0 1.60938,0.906253 0.28125,-0.406252 0.72917,-0.656253 0.45313,-0.25 1.06771,-0.25 1.85417,0 1.88542,1.963548 v 3.776053 H 105.1824 V 47.61464 q 0,-0.604168 -0.27604,-0.901044 -0.27605,-0.302084 -0.92709,-0.302084 -0.53646,0 -0.89063,0.322917 -0.35417,0.31771 -0.41146,0.859378 v 3.739595 h -0.96875 v -3.69272 q 0,-1.22917 -1.20313,-1.22917 -0.947919,0 -1.296879,0.807294 v 4.114596 h -0.963544 v -5.635434 z m 10.781282,5.739601 q -1.14584,0 -1.86459,-0.750002 -0.71875,-0.755211 -0.71875,-2.015632 v -0.177083 q 0,-0.838545 0.31771,-1.494797 0.32292,-0.66146 0.89584,-1.031253 0.57812,-0.375001 1.25,-0.375001 1.09896,0 1.70834,0.72396 0.60938,0.723961 0.60938,2.072924 v 0.401042 h -3.81773 q 0.0208,0.833336 0.48438,1.348963 0.46875,0.510418 1.18751,0.510418 0.51041,0 0.86458,-0.208334 0.35417,-0.208334 0.61979,-0.552085 l 0.58855,0.458335 q -0.70834,1.088545 -2.12501,1.088545 z m -0.11979,-5.052099 q -0.58334,0 -0.97917,0.427085 -0.39583,0.421876 -0.48959,1.187503 h 2.82293 v -0.07292 q -0.0417,-0.734377 -0.39583,-1.13542 -0.35417,-0.406251 -0.95834,-0.406251 z m 4.34377,-0.687502 0.0312,0.708335 q 0.64583,-0.812502 1.6875,-0.812502 1.78647,0 1.80209,2.015631 v 3.72397 h -0.96354 v -3.729178 q -0.005,-0.609377 -0.28126,-0.901045 -0.27083,-0.291667 -0.84896,-0.291667 -0.46875,0 -0.82292,0.25 -0.35416,0.250001 -0.55208,0.656252 v 4.015638 h -0.96355 v -5.635434 z m 6.28126,-1.364588 v 1.364588 h 1.05209 v 0.744794 h -1.05209 v 3.494802 q 0,0.338543 0.14063,0.510419 0.14062,0.166667 0.47917,0.166667 0.16666,0 0.45833,-0.0625 v 0.781252 q -0.38021,0.104167 -0.73958,0.104167 -0.64584,0 -0.97397,-0.390626 -0.32812,-0.390626 -0.32812,-1.109379 v -3.494802 h -1.02605 v -0.744794 h 1.02605 V 44.33338 Z m 4.51564,7.104189 q -1.14583,0 -1.86459,-0.750002 -0.71875,-0.755211 -0.71875,-2.015632 v -0.177083 q 0,-0.838545 0.31771,-1.494797 0.32292,-0.66146 0.89584,-1.031253 0.57812,-0.375001 1.25,-0.375001 1.09896,0 1.70834,0.72396 0.60938,0.723961 0.60938,2.072924 v 0.401042 h -3.81772 q 0.0208,0.833336 0.48437,1.348963 0.46875,0.510418 1.18751,0.510418 0.51042,0 0.86458,-0.208334 0.35417,-0.208334 0.6198,-0.552085 l 0.58854,0.458335 q -0.70834,1.088545 -2.12501,1.088545 z m -0.11979,-5.052099 q -0.58333,0 -0.97917,0.427085 -0.39583,0.421876 -0.48958,1.187503 h 2.82292 v -0.07292 q -0.0417,-0.734377 -0.39583,-1.13542 -0.35417,-0.406251 -0.95834,-0.406251 z m 3.19793,2.08334 q 0,-1.296879 0.61458,-2.08334 0.61459,-0.791669 1.60938,-0.791669 0.98959,0 1.56772,0.677085 v -2.937509 h 0.96354 v 8.000025 h -0.88542 l -0.0469,-0.604168 q -0.57813,0.708335 -1.60938,0.708335 -0.97917,0 -1.59897,-0.802086 -0.61458,-0.802086 -0.61458,-2.093756 z m 0.96354,0.109375 q 0,0.958336 0.39584,1.500005 0.39583,0.541668 1.09375,0.541668 0.91667,0 1.33855,-0.822919 v -2.58855 q -0.4323,-0.796877 -1.32813,-0.796877 -0.70834,0 -1.10417,0.546876 -0.39584,0.546877 -0.39584,1.619797 z m 10.55212,-1.921881 1.81771,-2.906259 h 1.17709 l -2.39584,3.760428 2.45313,3.822929 h -1.1875 l -1.86459,-2.958343 -1.87501,2.958343 H 136.495 l 2.45834,-3.822929 -2.40105,-3.760428 h 1.17188 z m 6.26565,4.781265 q -1.14584,0 -1.86459,-0.750002 -0.71875,-0.755211 -0.71875,-2.015632 v -0.177083 q 0,-0.838545 0.3177,-1.494797 0.32292,-0.66146 0.89584,-1.031253 0.57813,-0.375001 1.25,-0.375001 1.09897,0 1.70834,0.72396 0.60938,0.723961 0.60938,2.072924 v 0.401042 h -3.81772 q 0.0208,0.833336 0.48438,1.348963 0.46875,0.510418 1.1875,0.510418 0.51042,0 0.86459,-0.208334 0.35416,-0.208334 0.61979,-0.552085 l 0.58854,0.458335 q -0.70833,1.088545 -2.125,1.088545 z m -0.1198,-5.052099 q -0.58333,0 -0.97916,0.427085 -0.39584,0.421876 -0.48959,1.187503 h 2.82293 v -0.07292 q -0.0417,-0.734377 -0.39584,-1.13542 -0.35417,-0.406251 -0.95834,-0.406251 z m 9.3542,3.453136 q 0,-0.390626 -0.29688,-0.604169 -0.29167,-0.21875 -1.02605,-0.375001 -0.72916,-0.15625 -1.16146,-0.375001 -0.42708,-0.218751 -0.63542,-0.520835 -0.20312,-0.302084 -0.20312,-0.718752 0,-0.692711 0.58333,-1.171879 0.58855,-0.479168 1.50001,-0.479168 0.95833,0 1.55209,0.494793 0.59896,0.494793 0.59896,1.265629 h -0.96876 q 0,-0.395835 -0.33854,-0.682294 -0.33333,-0.286459 -0.84375,-0.286459 -0.52605,0 -0.82292,0.229167 -0.29688,0.229168 -0.29688,0.59896 0,0.34896 0.27605,0.526044 0.27604,0.177084 0.99479,0.338543 0.72396,0.161458 1.17188,0.385417 0.44792,0.223959 0.66146,0.541669 0.21875,0.312501 0.21875,0.765627 0,0.755211 -0.60417,1.213546 -0.60417,0.453126 -1.56771,0.453126 -0.67709,0 -1.19792,-0.239584 -0.52084,-0.239584 -0.81771,-0.666669 -0.29167,-0.432293 -0.29167,-0.932294 h 0.96354 q 0.026,0.484376 0.38542,0.770835 0.36459,0.281251 0.95834,0.281251 0.54687,0 0.875,-0.21875 0.33334,-0.223959 0.33334,-0.593752 z m 5.69794,0.937503 q -0.56251,0.66146 -1.65105,0.66146 -0.90105,0 -1.37501,-0.520835 -0.46875,-0.526043 -0.47396,-1.552088 v -3.666678 h 0.96355 v 3.640636 q 0,1.281254 1.04167,1.281254 1.10417,0 1.46875,-0.822919 v -4.098971 h 0.96355 v 5.635434 h -0.91667 z m 7.16148,-2.197924 q 0,1.286463 -0.58855,2.072923 -0.58854,0.786461 -1.59375,0.786461 -1.02605,0 -1.61459,-0.651044 v 2.713551 h -0.96355 v -7.802108 h 0.88022 l 0.0469,0.625002 q 0.58854,-0.729169 1.63542,-0.729169 1.01563,0 1.60417,0.765627 0.59376,0.765628 0.59376,2.130215 z m -0.96355,-0.109375 q 0,-0.953128 -0.40625,-1.505213 -0.40625,-0.552085 -1.11459,-0.552085 -0.875,0 -1.3125,0.776044 v 2.692717 q 0.43229,0.770835 1.32292,0.770835 0.69271,0 1.09896,-0.546876 0.41146,-0.552085 0.41146,-1.635422 z m 6.94794,0.109375 q 0,1.286463 -0.58855,2.072923 -0.58854,0.786461 -1.59375,0.786461 -1.02605,0 -1.61459,-0.651044 v 2.713551 h -0.96355 v -7.802108 h 0.88022 l 0.0469,0.625002 q 0.58854,-0.729169 1.63542,-0.729169 1.01563,0 1.60417,0.765627 0.59376,0.765628 0.59376,2.130215 z m -0.96355,-0.109375 q 0,-0.953128 -0.40625,-1.505213 -0.40625,-0.552085 -1.11459,-0.552085 -0.875,0 -1.3125,0.776044 v 2.692717 q 0.43229,0.770835 1.32292,0.770835 0.69271,0 1.09896,-0.546876 0.41146,-0.552085 0.41146,-1.635422 z m 1.9323,-0.0052 q 0,-0.828127 0.32292,-1.489588 0.32813,-0.66146 0.90625,-1.020836 0.58334,-0.359376 1.32813,-0.359376 1.15105,0 1.85938,0.796877 0.71355,0.796878 0.71355,2.119799 v 0.06771 q 0,0.822919 -0.31771,1.479171 -0.3125,0.651044 -0.90105,1.015629 -0.58333,0.364584 -1.34375,0.364584 -1.14584,0 -1.85938,-0.796877 -0.70834,-0.796878 -0.70834,-2.109382 z m 0.96876,0.114584 q 0,0.937503 0.43229,1.505213 0.4375,0.56771 1.16667,0.56771 0.73438,0 1.16667,-0.572918 0.43229,-0.578127 0.43229,-1.614589 0,-0.927086 -0.44271,-1.500004 -0.4375,-0.578127 -1.16667,-0.578127 -0.71354,0 -1.15104,0.56771 -0.4375,0.56771 -0.4375,1.625005 z m 8.09377,-2.015631 q -0.21875,-0.03646 -0.47396,-0.03646 -0.94792,0 -1.28646,0.807295 v 4.000012 h -0.96355 v -5.635434 h 0.93751 l 0.0156,0.651043 q 0.47396,-0.75521 1.34376,-0.75521 0.28125,0 0.42708,0.07292 z m 2.45313,-2.229174 v 1.364588 h 1.05209 v 0.744794 h -1.05209 v 3.494802 q 0,0.338543 0.14063,0.510419 0.14062,0.166667 0.47917,0.166667 0.16666,0 0.45833,-0.0625 v 0.781252 q -0.38021,0.104167 -0.73958,0.104167 -0.64584,0 -0.97397,-0.390626 -0.32812,-0.390626 -0.32812,-1.109379 v -3.494802 h -1.02605 v -0.744794 h 1.02605 V 44.33338 Z"
         id="path2" /></g><g
       id="g4"
       transform="matrix(1.0345422,0,0,1.0345422,3.8186929,4.627738)"><g
         id="layer3"
         style="display:inline"><path
           id="path2552"
           style="display:inline;fill:none;stroke:#000000;stroke-width:0.79375;stroke-linecap:round;stroke-linejoin:round;stroke-dasharray:none;stroke-opacity:1"
           d="M 28.934776,15.854339 V 37.062328 M 41.986104,15.854339 h 8.30539 v 9.278495 h -8.30539 M 24.188839,15.854339 h 10.678359 v 21.207989 h 7.118906 V 15.854339 h -7.118906" /><rect
           style="display:inline;fill:none;stroke:#000000;stroke-width:0.352778;stroke-linecap:round;stroke-linejoin:round;stroke-dasharray:none;stroke-dashoffset:0;stroke-opacity:1"
           id="rect1102"
           width="19.84375"
           height="23.8125"
           x="3.96875"
           y="14.552083"
           rx="2.8548594e-17" /><path
           id="path5382"
           style="display:inline;fill:none;stroke:#a347ba;stroke-width:0.661458;stroke-linecap:round;stroke-linejoin:bevel;stroke-dasharray:none;stroke-opacity:1"
           d="M 5.2916667,37.05613 V 15.860536 m 0,0 6.6145833,21.195594 m 0,0 V 15.860536 m 0,0 5.291667,21.181131 m 0,0 L 22.489583,15.875" /></g></g></g></svg>
