<?xml version="1.0" encoding="UTF-8" standalone="no"?>
<!-- Created with Inkscape (http://www.inkscape.org/) -->

<svg
   width="256"
   height="64"
   viewBox="0 0 256 64"
   version="1.1"
   id="svg1"
   xml:space="preserve"
   xmlns="http://www.w3.org/2000/svg"
   xmlns:svg="http://www.w3.org/2000/svg"><defs
     id="defs1"><clipPath
       clipPathUnits="userSpaceOnUse"
       id="clipPath103"><rect
         style="display:inline;fill:#ffffff;fill-opacity:1;stroke:#e9ecef;stroke-width:1.93103;stroke-dasharray:none;stroke-opacity:1"
         id="rect103"
         width="54.06897"
         height="54.06897"
         x="4.9655151"
         y="4.9655151"
         rx="15.448277"
         ry="15.448277" /></clipPath></defs><g
     id="layer1"><rect
       style="fill:#212529;fill-opacity:1;stroke-width:2.83465"
       id="rect1"
       width="256"
       height="64"
       x="0"
       y="0"
       rx="16"
       ry="16" /><rect
       style="fill:#ffffff;fill-opacity:1;stroke:#e9ecef;stroke-width:1.93103;stroke-dasharray:none;stroke-opacity:1"
       id="rect2"
       width="54.06897"
       height="54.06897"
       x="4.9655151"
       y="4.9655151"
       rx="15.448277"
       ry="15.448277" /><path
       d="m 74.047996,24.87464 q -0.410667,0 -0.690667,-0.28 -0.28,-0.28 -0.28,-0.690667 V 11.26664 q 0,-0.429333 0.28,-0.690667 0.28,-0.28 0.690667,-0.28 h 3.733333 q 1.4,0 2.482667,0.616 1.082666,0.616 1.68,1.717334 0.616,1.082666 0.616,2.501333 0,1.362666 -0.616,2.426666 -0.597334,1.064 -1.68,1.661334 -1.082667,0.597333 -2.482667,0.597333 h -2.762666 v 4.088 q 0,0.410667 -0.28,0.690667 -0.261334,0.28 -0.690667,0.28 z m 0.970667,-6.850667 h 2.762666 q 0.858667,0 1.512,-0.373333 0.653334,-0.373334 1.026667,-1.026667 0.373333,-0.653333 0.373333,-1.493333 0,-0.896 -0.373333,-1.568 -0.373333,-0.690667 -1.026667,-1.082667 -0.653333,-0.392 -1.512,-0.392 h -2.762666 z m 13.383975,6.925333 q -1.362666,0 -2.445333,-0.672 -1.082667,-0.690666 -1.717333,-1.848 -0.616,-1.176 -0.616,-2.650666 0,-1.474667 0.672,-2.650667 0.690666,-1.176 1.848,-1.848 1.176,-0.690666 2.632,-0.690666 1.456,0 2.613333,0.690666 1.157333,0.672 1.829333,1.848 0.690667,1.176 0.690667,2.650667 h -0.728 q 0,1.474666 -0.634667,2.650666 -0.616,1.157334 -1.698666,1.848 -1.082667,0.672 -2.445334,0.672 z m 0.373334,-1.68 q 0.952,0 1.698666,-0.448 0.746667,-0.466666 1.176,-1.250666 0.429334,-0.802667 0.429334,-1.792 0,-1.008 -0.429334,-1.792 -0.429333,-0.802667 -1.176,-1.250667 -0.746666,-0.466667 -1.698666,-0.466667 -0.933334,0 -1.698667,0.466667 -0.746667,0.448 -1.194667,1.250667 -0.429333,0.784 -0.429333,1.792 0,0.989333 0.429333,1.792 0.448,0.784 1.194667,1.250666 0.765333,0.448 1.698667,0.448 z m 4.181333,1.624 q -0.410667,0 -0.690667,-0.261333 -0.261333,-0.28 -0.261333,-0.690667 v -2.856 l 0.354667,-1.978666 1.549333,0.672 v 4.162666 q 0,0.410667 -0.28,0.690667 -0.261333,0.261333 -0.672,0.261333 z m 5.581306,-0.01867 q -0.298667,0 -0.56,-0.168 -0.242667,-0.186667 -0.336,-0.448 l -2.762667,-8.288 q -0.149333,-0.578667 0,-0.933333 0.168,-0.373334 0.709334,-0.373334 0.354666,0 0.578666,0.205334 0.242667,0.186666 0.392,0.653333 l 2.352,7.354666 h -0.653333 l 2.221329,-7.503999 q 0.0933,-0.317334 0.31734,-0.504 0.224,-0.205334 0.616,-0.205334 0.37333,0 0.59733,0.205334 0.24267,0.186666 0.31733,0.504 l 1.81067,7.055999 h -0.28 l 2.20267,-6.906666 q 0.26133,-0.858667 0.97066,-0.858667 0.52267,0 0.70934,0.373334 0.18666,0.354666 -0.0187,0.933333 l -2.76267,8.288 q -0.0747,0.261333 -0.31733,0.448 -0.24267,0.168 -0.56,0.168 -0.29867,0 -0.56,-0.168 -0.26133,-0.186667 -0.336,-0.448 l -1.92267,-7.112 h 0.18667 l -2.015999,7.112 q -0.07467,0.261333 -0.336,0.448 -0.242667,0.168 -0.56,0.168 z m 19.861339,0.01867 q -0.41066,0 -0.69066,-0.261333 -0.26134,-0.28 -0.26134,-0.690667 v -4.592 q 0,-1.064 -0.392,-1.736 -0.392,-0.672 -1.064,-0.989333 -0.65333,-0.336 -1.512,-0.336 -0.784,0 -1.41866,0.317333 -0.63467,0.317334 -1.008,0.858667 -0.37334,0.522667 -0.37334,1.213333 h -1.176 q 0,-1.176 0.56,-2.090666 0.57867,-0.933334 1.568,-1.474667 0.98934,-0.541333 2.22134,-0.541333 1.288,0 2.296,0.56 1.02666,0.541333 1.60533,1.605333 0.59733,1.064 0.59733,2.613333 v 4.592 q 0,0.410667 -0.28,0.690667 -0.26133,0.261333 -0.672,0.261333 z m -7.672,0 q -0.41066,0 -0.69066,-0.261333 -0.26134,-0.28 -0.26134,-0.690667 v -8.325333 q 0,-0.429333 0.26134,-0.690666 0.28,-0.261334 0.69066,-0.261334 0.42934,0 0.69067,0.261334 0.26133,0.261333 0.26133,0.690666 v 8.325333 q 0,0.410667 -0.26133,0.690667 -0.26133,0.261333 -0.69067,0.261333 z m 12.93599,-0.01867 q -0.41067,0 -0.69067,-0.28 -0.28,-0.28 -0.28,-0.690667 V 11.26664 q 0,-0.429333 0.28,-0.690667 0.28,-0.28 0.69067,-0.28 0.42933,0 0.69067,0.28 0.28,0.261334 0.28,0.690667 v 12.637333 q 0,0.410667 -0.28,0.690667 -0.26134,0.28 -0.69067,0.28 z m 11.44268,0.186666 q -1.64266,0 -3.00533,-0.541333 -1.36267,-0.56 -2.352,-1.549333 -0.97067,-1.008 -1.512,-2.370667 -0.54133,-1.381333 -0.54133,-3.024 0,-1.642667 0.54133,-3.005333 0.54133,-1.362667 1.512,-2.352 0.98933,-1.008 2.352,-1.549333 1.36267,-0.56 3.00533,-0.56 1.64267,0 2.98667,0.56 1.36267,0.541333 2.352,1.549333 0.98933,0.989333 1.53067,2.352 0.54133,1.362666 0.54133,3.005333 0,1.642667 -0.54133,3.024 -0.54134,1.362667 -1.53067,2.370667 -0.98933,0.989333 -2.352,1.549333 -1.344,0.541333 -2.98667,0.541333 z m 0,-1.754666 q 1.21334,0 2.22134,-0.429334 1.02666,-0.448 1.77333,-1.213333 0.74667,-0.784 1.13867,-1.829333 0.41066,-1.045334 0.41066,-2.258667 0,-1.213333 -0.41066,-2.258666 -0.392,-1.045334 -1.13867,-1.810667 -0.74667,-0.784 -1.77333,-1.213333 -1.008,-0.429334 -2.22134,-0.429334 -1.21333,0 -2.24,0.429334 -1.008,0.429333 -1.75466,1.213333 -0.728,0.765333 -1.13867,1.810667 -0.41067,1.045333 -0.41067,2.258666 0,1.213333 0.41067,2.258667 0.41067,1.045333 1.13867,1.829333 0.74666,0.765333 1.75466,1.213333 1.02667,0.429334 2.24,0.429334 z m 16.89331,1.568 q -0.41067,0 -0.69067,-0.28 -0.28,-0.28 -0.28,-0.690667 V 11.26664 q 0,-0.429333 0.28,-0.690667 0.28,-0.28 0.69067,-0.28 0.56,0 0.85867,0.522667 l 5.84266,11.704 h -0.59733 l 5.69333,-11.704 q 0.29867,-0.522667 0.85867,-0.522667 0.41067,0 0.69067,0.28 0.28,0.261334 0.28,0.690667 v 12.637333 q 0,0.410667 -0.29867,0.690667 -0.28,0.28 -0.672,0.28 -0.41067,0 -0.69067,-0.28 -0.28,-0.28 -0.28,-0.690667 V 13.95464 l 0.37334,-0.09333 -4.89067,9.967999 q -0.31733,0.485334 -0.84,0.485334 -0.616,0 -0.896,-0.578667 l -4.83467,-9.688 0.37334,-0.09333 v 9.949333 q 0,0.410667 -0.28,0.690667 -0.28,0.28 -0.69067,0.28 z m 21.80267,0.07467 q -1.512,0 -2.66933,-0.653333 -1.15733,-0.672 -1.82933,-1.829333 -0.65334,-1.176 -0.65334,-2.688 0,-1.530667 0.65334,-2.688 0.672,-1.176 1.82933,-1.829333 1.15733,-0.672 2.66933,-0.672 1.49334,0 2.65067,0.672 1.15733,0.653333 1.81067,1.829333 0.672,1.157333 0.672,2.688 0,1.512 -0.65334,2.688 -0.65333,1.157333 -1.81066,1.829333 -1.15734,0.653333 -2.66934,0.653333 z m 0,-1.68 q 0.97067,0 1.71734,-0.448 0.74666,-0.448 1.15733,-1.232 0.42933,-0.784 0.42933,-1.810666 0,-1.026667 -0.42933,-1.810667 -0.41067,-0.802667 -1.15733,-1.250667 -0.74667,-0.448 -1.71734,-0.448 -0.97066,0 -1.71733,0.448 -0.74667,0.448 -1.176,1.250667 -0.42933,0.784 -0.42933,1.810667 0,1.026666 0.42933,1.810666 0.42933,0.784 1.176,1.232 0.74667,0.448 1.71733,0.448 z m 12.59999,1.68 q -1.456,0 -2.632,-0.672 -1.15733,-0.690666 -1.848,-1.866666 -0.67199,-1.176 -0.67199,-2.650667 0,-1.474667 0.61599,-2.632 0.63467,-1.176 1.71734,-1.848 1.08266,-0.690666 2.44533,-0.690666 1.10133,0 2.03467,0.466666 0.93333,0.448 1.568,1.232 v -5.04 q 0,-0.429333 0.26133,-0.690666 0.28,-0.261334 0.69067,-0.261334 0.42933,0 0.69066,0.261334 0.26134,0.261333 0.26134,0.690666 v 8.512 q 0,1.474667 -0.69067,2.650667 -0.672,1.176 -1.82933,1.866666 -1.15734,0.672 -2.61334,0.672 z m 0,-1.68 q 0.952,0 1.69867,-0.448 0.74667,-0.466666 1.176,-1.269333 0.42933,-0.802667 0.42933,-1.792 0,-1.008 -0.42933,-1.792 -0.42933,-0.784 -1.176,-1.232 -0.74667,-0.466667 -1.69867,-0.466667 -0.93333,0 -1.69866,0.466667 -0.74667,0.448 -1.19467,1.232 -0.42933,0.784 -0.42933,1.792 0,0.989333 0.42933,1.792 0.448,0.802667 1.19467,1.269333 0.76533,0.448 1.69866,0.448 z m 12.78665,1.698667 q -1.28799,0 -2.31466,-0.541333 -1.008,-0.56 -1.60533,-1.624 -0.57867,-1.064 -0.57867,-2.613334 v -4.592 q 0,-0.410666 0.26133,-0.671999 0.28,-0.28 0.69067,-0.28 0.41067,0 0.672,0.28 0.28,0.261333 0.28,0.671999 v 4.592 q 0,1.045334 0.392,1.736 0.392,0.672 1.064,1.008 0.672,0.317334 1.512,0.317334 0.80266,0 1.41866,-0.317334 0.63467,-0.317333 1.008,-0.858666 0.37334,-0.541334 0.37334,-1.213334 h 1.176 q 0,1.157334 -0.57867,2.090667 -0.56,0.933333 -1.54933,1.474667 -0.97067,0.541333 -2.22134,0.541333 z m 4.12534,-0.09333 q -0.41067,0 -0.69067,-0.261334 -0.26133,-0.28 -0.26133,-0.690666 v -8.325334 q 0,-0.429333 0.26133,-0.690666 0.28,-0.261333 0.69067,-0.261333 0.42933,0 0.69066,0.261333 0.26134,0.261333 0.26134,0.690666 v 8.325334 q 0,0.410666 -0.26134,0.690666 -0.26133,0.261334 -0.69066,0.261334 z m 6.73865,0 q -0.82133,0 -1.456,-0.448 -0.63467,-0.448 -0.98933,-1.213334 -0.35467,-0.784 -0.35467,-1.792 V 11.229307 q 0,-0.410667 0.26133,-0.672 0.26134,-0.261334 0.672,-0.261334 0.41067,0 0.672,0.261334 0.26134,0.261333 0.26134,0.672 v 10.191999 q 0,0.690667 0.26133,1.138667 0.26133,0.448 0.672,0.448 h 0.46667 q 0.37333,0 0.59733,0.261333 0.24267,0.261334 0.24267,0.672 0,0.410667 -0.35467,0.672 -0.35467,0.261334 -0.91467,0.261334 z m 7.41063,0.07467 q -1.54933,0 -2.76267,-0.653333 -1.19466,-0.672 -1.88533,-1.829333 -0.672,-1.176 -0.672,-2.688 0,-1.530667 0.63467,-2.688 0.65333,-1.176 1.792,-1.829333 1.13866,-0.672 2.61333,-0.672 1.456,0 2.50133,0.653333 1.04534,0.634666 1.58667,1.773333 0.56,1.12 0.56,2.594667 0,0.354666 -0.24267,0.597333 -0.24266,0.224 -0.616,0.224 h -7.52266 v -1.49334 h 7.46666 l -0.76533,0.522666 q -0.0187,-0.933333 -0.37333,-1.661333 -0.35467,-0.746667 -1.008,-1.176 -0.65334,-0.429333 -1.58667,-0.429333 -1.064,0 -1.82933,0.466666 -0.74667,0.466667 -1.13867,1.288 -0.392,0.802667 -0.392,1.829334 0,1.026666 0.46667,1.829333 0.46666,0.802667 1.288,1.269333 0.82133,0.466667 1.88533,0.466667 0.57867,0 1.176,-0.205333 0.616,-0.224 0.98933,-0.504 0.28,-0.205334 0.59734,-0.205334 0.336,-0.01867 0.57866,0.186667 0.31734,0.28 0.336,0.616 0.0187,0.336 -0.29866,0.578667 -0.63467,0.504 -1.58667,0.821333 -0.93333,0.317333 -1.792,0.317333 z m 10.50934,0 q -1.30666,0 -2.42666,-0.392 -1.10134,-0.410666 -1.71734,-1.026666 -0.28,-0.298667 -0.24266,-0.672 0.056,-0.392 0.37333,-0.634667 0.37333,-0.298667 0.728,-0.242667 0.37333,0.03733 0.63467,0.317334 0.31733,0.354666 1.008,0.672 0.70933,0.298666 1.568,0.298666 1.08266,0 1.64266,-0.354666 0.57867,-0.354667 0.59734,-0.914667 0.0187,-0.56 -0.54134,-0.970667 -0.54133,-0.410666 -1.99733,-0.672 -1.88533,-0.373333 -2.744,-1.12 -0.84,-0.746666 -0.84,-1.829333 0,-0.952 0.56,-1.568 0.56,-0.634666 1.43733,-0.933333 0.87734,-0.317333 1.82934,-0.317333 1.232,0 2.184,0.392 0.952,0.392 1.512,1.082666 0.26133,0.298667 0.24266,0.634667 -0.0187,0.317333 -0.31733,0.541333 -0.29867,0.205333 -0.70933,0.130667 -0.41067,-0.07467 -0.69067,-0.336 -0.46667,-0.448 -1.008,-0.616 -0.54133,-0.168 -1.25067,-0.168 -0.82133,0 -1.4,0.28 -0.56,0.28 -0.56,0.821333 0,0.336 0.168,0.616 0.18667,0.261333 0.70934,0.485333 0.52266,0.205334 1.53066,0.410667 1.4,0.28 2.20267,0.709333 0.82133,0.429334 1.176,1.008 0.35467,0.56 0.35467,1.306667 0,0.858667 -0.46667,1.549333 -0.448,0.690667 -1.344,1.101334 -0.87733,0.410666 -2.20267,0.410666 z"
       id="text2"
       style="font-weight:bold;font-size:18.6667px;line-height:1.25;font-family:Comfortaa;-inkscape-font-specification:'Comfortaa Bold';fill:#f8765f;stroke-width:4"
       aria-label="PawnIO Modules" /><g
       id="text3"
       style="font-size:10.6667px;line-height:1.25;font-family:Roboto;-inkscape-font-specification:Roboto;fill:#e9ecef;stroke-width:4"
       aria-label="Implemented the Chrome OS EC&#10;Implemented SMBus for Intel &amp; AMD"><path
         d="m 73.807295,38.109402 h -1.000003 v -7.583358 h 1.000003 z m 2.583342,-5.635435 0.02604,0.625002 q 0.619793,-0.729169 1.67188,-0.729169 1.182295,0 1.60938,0.906253 0.281251,-0.406251 0.729169,-0.656252 0.453126,-0.250001 1.067712,-0.250001 1.854172,0 1.885422,1.963548 v 3.776054 H 82.416697 V 34.39064 q 0,-0.604169 -0.276042,-0.901045 -0.276043,-0.302084 -0.927086,-0.302084 -0.53646,0 -0.890628,0.322918 -0.354168,0.317709 -0.41146,0.859378 v 3.739595 h -0.968753 v -3.69272 q 0,-1.229171 -1.203129,-1.229171 -0.947919,0 -1.296879,0.807294 v 4.114597 h -0.963544 v -5.635435 z m 13.203166,2.880218 q 0,1.286462 -0.588544,2.072923 -0.588543,0.786461 -1.593755,0.786461 -1.026045,0 -1.614588,-0.651044 v 2.71355 h -0.963545 v -7.802108 h 0.880211 l 0.04688,0.625002 q 0.588543,-0.729169 1.635421,-0.729169 1.015629,0 1.604172,0.765628 0.593752,0.765627 0.593752,2.130215 z m -0.963545,-0.109376 q 0,-0.953128 -0.406251,-1.505213 -0.406251,-0.552085 -1.114587,-0.552085 -0.875003,0 -1.312504,0.776044 v 2.692717 q 0.432293,0.770836 1.322921,0.770836 0.69271,0 1.098962,-0.546877 0.411459,-0.552085 0.411459,-1.635422 z m 3.234386,2.864593 h -0.963545 v -8.000026 h 0.963545 z m 3.880221,0.104167 q -1.145837,0 -1.864589,-0.750003 -0.718753,-0.75521 -0.718753,-2.015631 v -0.177084 q 0,-0.838544 0.31771,-1.494796 0.322917,-0.661461 0.895836,-1.031254 0.578127,-0.375001 1.250004,-0.375001 1.098962,0 1.708339,0.723961 0.609377,0.72396 0.609377,2.072923 v 0.401043 h -3.817721 q 0.02083,0.833336 0.484377,1.348963 0.468751,0.510418 1.187503,0.510418 0.510419,0 0.864586,-0.208334 0.354168,-0.208334 0.619794,-0.552085 l 0.588544,0.458335 q -0.708336,1.088545 -2.125007,1.088545 z m -0.119792,-5.0521 q -0.583335,0 -0.97917,0.427085 -0.395834,0.421876 -0.489585,1.187504 h 2.822926 v -0.07292 q -0.04167,-0.734377 -0.395835,-1.13542 -0.354168,-0.406252 -0.958336,-0.406252 z m 4.338554,-0.687502 0.02604,0.625002 q 0.619793,-0.729169 1.671883,-0.729169 1.18229,0 1.60938,0.906253 0.28125,-0.406251 0.72917,-0.656252 0.45312,-0.250001 1.06771,-0.250001 1.85417,0 1.88542,1.963548 v 3.776054 h -0.96354 V 34.39064 q 0,-0.604169 -0.27604,-0.901045 -0.27605,-0.302084 -0.92709,-0.302084 -0.53646,0 -0.89063,0.322918 -0.35417,0.317709 -0.41146,0.859378 v 3.739595 h -0.96875 v -3.69272 q 0,-1.229171 -1.20313,-1.229171 -0.94792,0 -1.29688,0.807294 v 4.114597 h -0.963546 v -5.635435 z m 10.781283,5.739602 q -1.14584,0 -1.86459,-0.750003 -0.71875,-0.75521 -0.71875,-2.015631 v -0.177084 q 0,-0.838544 0.31771,-1.494796 0.32292,-0.661461 0.89583,-1.031254 0.57813,-0.375001 1.25001,-0.375001 1.09896,0 1.70834,0.723961 0.60937,0.72396 0.60937,2.072923 v 0.401043 h -3.81772 q 0.0208,0.833336 0.48438,1.348963 0.46875,0.510418 1.1875,0.510418 0.51042,0 0.86459,-0.208334 0.35417,-0.208334 0.61979,-0.552085 l 0.58855,0.458335 q -0.70834,1.088545 -2.12501,1.088545 z m -0.11979,-5.0521 q -0.58334,0 -0.97917,0.427085 -0.39584,0.421876 -0.48959,1.187504 h 2.82293 v -0.07292 q -0.0417,-0.734377 -0.39583,-1.13542 -0.35417,-0.406252 -0.95834,-0.406252 z m 4.34376,-0.687502 0.0312,0.708336 q 0.64584,-0.812503 1.68751,-0.812503 1.78646,0 1.80209,2.015632 v 3.72397 h -0.96355 v -3.729179 q -0.005,-0.609377 -0.28125,-0.901044 -0.27083,-0.291668 -0.84896,-0.291668 -0.46875,0 -0.82292,0.250001 -0.35416,0.250001 -0.55208,0.656252 v 4.015638 h -0.96355 v -5.635435 z m 6.28127,-1.364587 v 1.364587 h 1.05209 v 0.744794 h -1.05209 v 3.494803 q 0,0.338543 0.14063,0.510418 0.14062,0.166667 0.47917,0.166667 0.16666,0 0.45833,-0.0625 v 0.781253 q -0.38021,0.104167 -0.73958,0.104167 -0.64584,0 -0.97397,-0.390627 -0.32812,-0.390626 -0.32812,-1.109378 v -3.494803 h -1.02605 v -0.744794 h 1.02605 V 31.10938 Z m 4.51564,7.104189 q -1.14583,0 -1.86459,-0.750003 -0.71875,-0.75521 -0.71875,-2.015631 v -0.177084 q 0,-0.838544 0.31771,-1.494796 0.32292,-0.661461 0.89584,-1.031254 0.57812,-0.375001 1.25,-0.375001 1.09896,0 1.70834,0.723961 0.60938,0.72396 0.60938,2.072923 v 0.401043 H 124.146 q 0.0208,0.833336 0.48437,1.348963 0.46875,0.510418 1.18751,0.510418 0.51041,0 0.86458,-0.208334 0.35417,-0.208334 0.6198,-0.552085 l 0.58854,0.458335 q -0.70834,1.088545 -2.12501,1.088545 z m -0.11979,-5.0521 q -0.58333,0 -0.97917,0.427085 -0.39583,0.421876 -0.48958,1.187504 h 2.82292 v -0.07292 q -0.0417,-0.734377 -0.39583,-1.13542 -0.35417,-0.406252 -0.95834,-0.406252 z m 3.19793,2.08334 q 0,-1.296879 0.61458,-2.08334 0.61459,-0.791669 1.60938,-0.791669 0.98959,0 1.56771,0.677086 v -2.93751 h 0.96355 v 8.000026 h -0.88542 l -0.0469,-0.604169 q -0.57812,0.708336 -1.60938,0.708336 -0.97917,0 -1.59896,-0.802086 -0.61458,-0.802086 -0.61458,-2.093757 z m 0.96354,0.109376 q 0,0.958336 0.39584,1.500004 0.39583,0.541669 1.09375,0.541669 0.91667,0 1.33854,-0.822919 v -2.58855 q -0.43229,-0.796878 -1.32812,-0.796878 -0.70834,0 -1.10417,0.546877 -0.39584,0.546877 -0.39584,1.619797 z m 9.2344,-4.244805 v 1.364587 h 1.05209 v 0.744794 h -1.05209 v 3.494803 q 0,0.338543 0.14063,0.510418 0.14062,0.166667 0.47917,0.166667 0.16666,0 0.45833,-0.0625 v 0.781253 q -0.38021,0.104167 -0.73958,0.104167 -0.64584,0 -0.97396,-0.390627 -0.32813,-0.390626 -0.32813,-1.109378 v -3.494803 h -1.02605 v -0.744794 h 1.02605 V 31.10938 Z m 3.14064,2.046881 q 0.64063,-0.786461 1.66668,-0.786461 1.78646,0 1.80208,2.015632 v 3.72397 h -0.96354 v -3.729179 q -0.005,-0.609377 -0.28125,-0.901044 -0.27084,-0.291668 -0.84896,-0.291668 -0.46875,0 -0.82292,0.250001 -0.35417,0.250001 -0.55209,0.656252 v 4.015638 h -0.96354 v -8.000026 h 0.96354 z m 7.25002,5.057308 q -1.14583,0 -1.86459,-0.750003 -0.71875,-0.75521 -0.71875,-2.015631 v -0.177084 q 0,-0.838544 0.31771,-1.494796 0.32292,-0.661461 0.89584,-1.031254 0.57812,-0.375001 1.25,-0.375001 1.09896,0 1.70834,0.723961 0.60938,0.72396 0.60938,2.072923 v 0.401043 h -3.81772 q 0.0208,0.833336 0.48437,1.348963 0.46875,0.510418 1.18751,0.510418 0.51041,0 0.86458,-0.208334 0.35417,-0.208334 0.6198,-0.552085 l 0.58854,0.458335 q -0.70834,1.088545 -2.12501,1.088545 z m -0.11979,-5.0521 q -0.58333,0 -0.97917,0.427085 -0.39583,0.421876 -0.48958,1.187504 h 2.82292 v -0.07292 q -0.0417,-0.734377 -0.39583,-1.13542 -0.35417,-0.406252 -0.95834,-0.406252 z m 11.80212,2.541675 q -0.14062,1.203129 -0.89062,1.859381 -0.7448,0.651044 -1.98439,0.651044 -1.34375,0 -2.15625,-0.963545 -0.8073,-0.963545 -0.8073,-2.578133 v -0.729169 q 0,-1.057295 0.375,-1.859381 0.38021,-0.802086 1.07292,-1.229171 0.69271,-0.432293 1.60418,-0.432293 1.20833,0 1.9375,0.677086 0.72917,0.671877 0.84896,1.864589 h -1.00521 q -0.13021,-0.906253 -0.56771,-1.312504 -0.43229,-0.406251 -1.21354,-0.406251 -0.95834,0 -1.50522,0.708335 -0.54167,0.708336 -0.54167,2.015632 v 0.734377 q 0,1.234379 0.51563,1.963548 0.51563,0.729169 1.44271,0.729169 0.83334,0 1.27605,-0.375001 0.44792,-0.38021 0.59375,-1.317713 z m 2.17709,-2.546883 q 0.64063,-0.786461 1.66667,-0.786461 1.78647,0 1.80209,2.015632 v 3.72397 h -0.96354 v -3.729179 q -0.005,-0.609377 -0.28126,-0.901044 -0.27083,-0.291668 -0.84896,-0.291668 -0.46875,0 -0.82292,0.250001 -0.35416,0.250001 -0.55208,0.656252 v 4.015638 h -0.96355 v -8.000026 h 0.96355 z m 7.63544,0.182292 q -0.21875,-0.03646 -0.47396,-0.03646 -0.94792,0 -1.28646,0.807294 V 38.1094 h -0.96354 v -5.635435 h 0.9375 l 0.0156,0.651044 q 0.47396,-0.755211 1.34375,-0.755211 0.28125,0 0.42708,0.07292 z m 0.52605,1.901048 q 0,-0.828128 0.32291,-1.489588 0.32813,-0.66146 0.90626,-1.020837 0.58333,-0.359376 1.32813,-0.359376 1.15104,0 1.85938,0.796878 0.71354,0.796877 0.71354,2.119798 v 0.06771 q 0,0.822919 -0.31771,1.479171 -0.3125,0.651044 -0.90104,1.015628 -0.58334,0.364585 -1.34376,0.364585 -1.14583,0 -1.85938,-0.796878 -0.70833,-0.796877 -0.70833,-2.109381 z m 0.96875,0.114584 q 0,0.937503 0.43229,1.505213 0.4375,0.56771 1.16667,0.56771 0.73438,0 1.16667,-0.572919 0.4323,-0.578126 0.4323,-1.614588 0,-0.927086 -0.44271,-1.500005 -0.4375,-0.578127 -1.16667,-0.578127 -0.71355,0 -1.15105,0.567711 -0.4375,0.56771 -0.4375,1.625005 z m 6.27606,-2.880218 0.026,0.625002 q 0.6198,-0.729169 1.67188,-0.729169 1.1823,0 1.60938,0.906253 0.28125,-0.406251 0.72917,-0.656252 0.45313,-0.250001 1.06771,-0.250001 1.85418,0 1.88543,1.963548 v 3.776054 h -0.96355 V 34.39064 q 0,-0.604169 -0.27604,-0.901045 -0.27604,-0.302084 -0.92709,-0.302084 -0.53646,0 -0.89063,0.322918 -0.35416,0.317709 -0.41146,0.859378 v 3.739595 h -0.96875 v -3.69272 q 0,-1.229171 -1.20313,-1.229171 -0.94792,0 -1.29688,0.807294 v 4.114597 h -0.96354 v -5.635435 z m 10.78129,5.739602 q -1.14584,0 -1.86459,-0.750003 -0.71875,-0.75521 -0.71875,-2.015631 v -0.177084 q 0,-0.838544 0.31771,-1.494796 0.32291,-0.661461 0.89583,-1.031254 0.57813,-0.375001 1.25001,-0.375001 1.09896,0 1.70833,0.723961 0.60938,0.72396 0.60938,2.072923 v 0.401043 h -3.81772 q 0.0208,0.833336 0.48438,1.348963 0.46875,0.510418 1.1875,0.510418 0.51042,0 0.86459,-0.208334 0.35416,-0.208334 0.61979,-0.552085 l 0.58854,0.458335 q -0.70833,1.088545 -2.125,1.088545 z m -0.11979,-5.0521 q -0.58334,0 -0.97917,0.427085 -0.39584,0.421876 -0.48959,1.187504 h 2.82293 v -0.07292 q -0.0417,-0.734377 -0.39584,-1.13542 -0.35417,-0.406252 -0.95833,-0.406252 z m 12.05733,1.401046 q 0,1.114587 -0.375,1.947923 -0.37501,0.828128 -1.06251,1.265629 -0.6875,0.437502 -1.60417,0.437502 -0.89584,0 -1.58855,-0.437502 -0.69271,-0.442709 -1.07812,-1.255212 -0.38021,-0.817711 -0.39063,-1.890631 v -0.546877 q 0,-1.093753 0.38021,-1.932297 0.38021,-0.838545 1.07292,-1.281255 0.69792,-0.447918 1.59375,-0.447918 0.91147,0 1.60418,0.44271 0.69791,0.437502 1.07292,1.276046 0.375,0.833336 0.375,1.942714 z m -0.9948,-0.489584 q 0,-1.348963 -0.54167,-2.067715 -0.54166,-0.723961 -1.51563,-0.723961 -0.94792,0 -1.49479,0.723961 -0.54167,0.718752 -0.5573,2.000006 v 0.557293 q 0,1.307296 0.54688,2.057299 0.55209,0.744794 1.51563,0.744794 0.96875,0 1.50001,-0.703128 0.53125,-0.708335 0.54687,-2.026048 z m 4.72919,0.656252 q -1.28647,-0.369793 -1.87501,-0.906253 -0.58334,-0.541669 -0.58334,-1.333338 0,-0.895836 0.71355,-1.479171 0.71875,-0.588544 1.86459,-0.588544 0.78125,0 1.39063,0.302085 0.61458,0.302084 0.94792,0.833336 0.33854,0.531251 0.33854,1.161462 h -1.00521 q 0,-0.687502 -0.4375,-1.078129 -0.4375,-0.395834 -1.23438,-0.395834 -0.73959,0 -1.15626,0.328126 -0.41146,0.322917 -0.41146,0.901044 0,0.463543 0.39063,0.786461 0.39584,0.317709 1.33855,0.583335 0.94792,0.265626 1.47917,0.588544 0.53646,0.317709 0.79167,0.744794 0.26041,0.427084 0.26041,1.005211 0,0.921878 -0.71875,1.479172 -0.71875,0.552085 -1.92188,0.552085 -0.78125,0 -1.45834,-0.296876 -0.67708,-0.302085 -1.04687,-0.82292 -0.36459,-0.520834 -0.36459,-1.182295 h 1.00521 q 0,0.687502 0.50521,1.088545 0.51042,0.395835 1.35938,0.395835 0.79167,0 1.21355,-0.322918 0.42187,-0.322918 0.42187,-0.880211 0,-0.557293 -0.39062,-0.859378 -0.39063,-0.307292 -1.41667,-0.604168 z m 11.02085,-0.125001 h -3.28647 v 2.687509 h 3.81772 v 0.817711 h -4.81772 v -7.583358 h 4.76564 v 0.82292 h -3.76564 v 2.437507 h 3.28647 z m 7.3542,1.098962 q -0.14062,1.203129 -0.89063,1.859381 -0.74479,0.651044 -1.98438,0.651044 -1.34375,0 -2.15625,-0.963545 -0.8073,-0.963545 -0.8073,-2.578133 v -0.729169 q 0,-1.057295 0.375,-1.859381 0.38021,-0.802086 1.07292,-1.229171 0.69271,-0.432293 1.60418,-0.432293 1.20833,0 1.9375,0.677086 0.72917,0.671877 0.84896,1.864589 h -1.00521 q -0.13021,-0.906253 -0.56771,-1.312504 -0.43229,-0.406251 -1.21354,-0.406251 -0.95834,0 -1.50522,0.708335 -0.54167,0.708336 -0.54167,2.015632 v 0.734377 q 0,1.234379 0.51563,1.963548 0.51563,0.729169 1.44271,0.729169 0.83334,0 1.27605,-0.375001 0.44792,-0.38021 0.59375,-1.317713 z"
         id="path105" /><path
         d="M 73.807295,51.442777 H 72.807292 V 43.85942 h 1.000003 z m 2.583342,-5.635434 0.02604,0.625002 q 0.619793,-0.729169 1.67188,-0.729169 1.182295,0 1.60938,0.906253 0.281251,-0.406252 0.729169,-0.656253 0.453126,-0.25 1.067712,-0.25 1.854172,0 1.885422,1.963548 v 3.776053 h -0.963545 v -3.718762 q 0,-0.604168 -0.276042,-0.901044 -0.276043,-0.302084 -0.927086,-0.302084 -0.53646,0 -0.890628,0.322917 -0.354168,0.31771 -0.41146,0.859378 v 3.739595 h -0.968753 v -3.69272 q 0,-1.22917 -1.203129,-1.22917 -0.947919,0 -1.296879,0.807294 v 4.114596 h -0.963544 v -5.635434 z m 13.203166,2.880217 q 0,1.286463 -0.588544,2.072923 -0.588543,0.786461 -1.593755,0.786461 -1.026045,0 -1.614588,-0.651044 v 2.713551 h -0.963545 v -7.802108 h 0.880211 l 0.04688,0.625002 q 0.588543,-0.729169 1.635421,-0.729169 1.015629,0 1.604172,0.765627 0.593752,0.765628 0.593752,2.130215 z m -0.963545,-0.109375 q 0,-0.953128 -0.406251,-1.505213 -0.406251,-0.552085 -1.114587,-0.552085 -0.875003,0 -1.312504,0.776044 v 2.692717 q 0.432293,0.770835 1.322921,0.770835 0.69271,0 1.098962,-0.546876 0.411459,-0.552085 0.411459,-1.635422 z m 3.234386,2.864592 h -0.963545 v -8.000025 h 0.963545 z m 3.880221,0.104167 q -1.145837,0 -1.864589,-0.750002 -0.718753,-0.755211 -0.718753,-2.015632 v -0.177083 q 0,-0.838545 0.31771,-1.494797 0.322917,-0.66146 0.895836,-1.031253 0.578127,-0.375001 1.250004,-0.375001 1.098962,0 1.708339,0.72396 0.609377,0.723961 0.609377,2.072924 v 0.401042 h -3.817721 q 0.02083,0.833336 0.484377,1.348963 0.468751,0.510418 1.187503,0.510418 0.510419,0 0.864586,-0.208334 0.354168,-0.208334 0.619794,-0.552085 l 0.588544,0.458335 q -0.708336,1.088545 -2.125007,1.088545 z m -0.119792,-5.052099 q -0.583335,0 -0.97917,0.427085 -0.395834,0.421876 -0.489585,1.187503 h 2.822926 v -0.07292 q -0.04167,-0.734377 -0.395835,-1.13542 -0.354168,-0.406251 -0.958336,-0.406251 z m 4.338554,-0.687502 0.02604,0.625002 q 0.619793,-0.729169 1.671883,-0.729169 1.18229,0 1.60938,0.906253 0.28125,-0.406252 0.72917,-0.656253 0.45312,-0.25 1.06771,-0.25 1.85417,0 1.88542,1.963548 v 3.776053 h -0.96354 v -3.718762 q 0,-0.604168 -0.27604,-0.901044 -0.27605,-0.302084 -0.92709,-0.302084 -0.53646,0 -0.89063,0.322917 -0.35417,0.31771 -0.41146,0.859378 v 3.739595 h -0.96875 v -3.69272 q 0,-1.22917 -1.20313,-1.22917 -0.94792,0 -1.29688,0.807294 v 4.114596 h -0.963546 v -5.635434 z m 10.781283,5.739601 q -1.14584,0 -1.86459,-0.750002 -0.71875,-0.755211 -0.71875,-2.015632 v -0.177083 q 0,-0.838545 0.31771,-1.494797 0.32292,-0.66146 0.89583,-1.031253 0.57813,-0.375001 1.25001,-0.375001 1.09896,0 1.70834,0.72396 0.60937,0.723961 0.60937,2.072924 v 0.401042 h -3.81772 q 0.0208,0.833336 0.48438,1.348963 0.46875,0.510418 1.1875,0.510418 0.51042,0 0.86459,-0.208334 0.35417,-0.208334 0.61979,-0.552085 l 0.58855,0.458335 q -0.70834,1.088545 -2.12501,1.088545 z m -0.11979,-5.052099 q -0.58334,0 -0.97917,0.427085 -0.39584,0.421876 -0.48959,1.187503 h 2.82293 v -0.07292 q -0.0417,-0.734377 -0.39583,-1.13542 -0.35417,-0.406251 -0.95834,-0.406251 z m 4.34376,-0.687502 0.0312,0.708335 q 0.64584,-0.812502 1.68751,-0.812502 1.78646,0 1.80209,2.015631 v 3.72397 h -0.96355 v -3.729178 q -0.005,-0.609377 -0.28125,-0.901045 -0.27083,-0.291667 -0.84896,-0.291667 -0.46875,0 -0.82292,0.25 -0.35416,0.250001 -0.55208,0.656252 v 4.015638 h -0.96355 v -5.635434 z m 6.28127,-1.364588 v 1.364588 h 1.05209 v 0.744794 h -1.05209 v 3.494802 q 0,0.338543 0.14063,0.510419 0.14062,0.166667 0.47917,0.166667 0.16666,0 0.45833,-0.0625 v 0.781252 q -0.38021,0.104167 -0.73958,0.104167 -0.64584,0 -0.97397,-0.390626 -0.32812,-0.390626 -0.32812,-1.109379 v -3.494802 h -1.02605 v -0.744794 h 1.02605 v -1.364588 z m 4.51564,7.104189 q -1.14583,0 -1.86459,-0.750002 -0.71875,-0.755211 -0.71875,-2.015632 v -0.177083 q 0,-0.838545 0.31771,-1.494797 0.32292,-0.66146 0.89584,-1.031253 0.57812,-0.375001 1.25,-0.375001 1.09896,0 1.70834,0.72396 0.60938,0.723961 0.60938,2.072924 v 0.401042 H 124.146 q 0.0208,0.833336 0.48437,1.348963 0.46875,0.510418 1.18751,0.510418 0.51041,0 0.86458,-0.208334 0.35417,-0.208334 0.6198,-0.552085 l 0.58854,0.458335 q -0.70834,1.088545 -2.12501,1.088545 z M 125.646,46.494845 q -0.58333,0 -0.97917,0.427085 -0.39583,0.421876 -0.48958,1.187503 h 2.82292 v -0.07292 q -0.0417,-0.734377 -0.39583,-1.13542 -0.35417,-0.406251 -0.95834,-0.406251 z m 3.19793,2.08334 q 0,-1.296879 0.61458,-2.08334 0.61459,-0.791669 1.60938,-0.791669 0.98959,0 1.56771,0.677085 v -2.937509 h 0.96355 v 8.000025 h -0.88542 l -0.0469,-0.604168 q -0.57812,0.708335 -1.60938,0.708335 -0.97917,0 -1.59896,-0.802086 -0.61458,-0.802086 -0.61458,-2.093756 z m 0.96354,0.109375 q 0,0.958336 0.39584,1.500005 0.39583,0.541668 1.09375,0.541668 0.91667,0 1.33854,-0.822919 v -2.58855 q -0.43229,-0.796877 -1.32812,-0.796877 -0.70834,0 -1.10417,0.546876 -0.39584,0.546877 -0.39584,1.619797 z M 140.12,48.062558 q -1.28646,-0.369793 -1.875,-0.906253 -0.58334,-0.541668 -0.58334,-1.333337 0,-0.895836 0.71355,-1.479172 0.71875,-0.588543 1.86458,-0.588543 0.78126,0 1.39063,0.302084 0.61459,0.302084 0.94792,0.833336 0.33855,0.531252 0.33855,1.161462 h -1.00522 q 0,-0.687502 -0.4375,-1.078128 -0.4375,-0.395835 -1.23438,-0.395835 -0.73958,0 -1.15625,0.328126 -0.41146,0.322918 -0.41146,0.901045 0,0.463543 0.39063,0.786461 0.39583,0.317709 1.33854,0.583335 0.94792,0.265626 1.47917,0.588543 0.53646,0.31771 0.79167,0.744794 0.26042,0.427085 0.26042,1.005212 0,0.921878 -0.71875,1.479171 -0.71875,0.552085 -1.92188,0.552085 -0.78125,0 -1.45834,-0.296876 -0.67709,-0.302084 -1.04688,-0.822919 -0.36458,-0.520835 -0.36458,-1.182295 h 1.00521 q 0,0.687502 0.50521,1.088545 0.51042,0.395834 1.35938,0.395834 0.79167,0 1.21354,-0.322917 0.42188,-0.322918 0.42188,-0.880212 0,-0.557293 -0.39063,-0.859377 -0.39062,-0.307293 -1.41667,-0.604169 z m 5.38544,-4.203138 2.47917,6.187519 2.47918,-6.187519 h 1.29688 v 7.583357 h -1.00001 v -2.953134 l 0.0937,-3.18751 -2.48959,6.140644 h -0.76562 l -2.48439,-6.125019 0.099,3.171885 v 2.953134 h -1 V 43.85942 Z m 8.02086,7.583357 V 43.85942 h 2.47917 q 1.23438,0 1.85418,0.510418 0.625,0.510418 0.625,1.510422 0,0.531251 -0.30209,0.942711 -0.30208,0.406251 -0.82292,0.63021 0.61459,0.171876 0.96876,0.656252 0.35937,0.479168 0.35937,1.145837 0,1.020837 -0.66146,1.604172 -0.66146,0.583335 -1.86979,0.583335 z m 1,-3.546886 v 2.729175 h 1.65105 q 0.69792,0 1.09896,-0.359376 0.40625,-0.364584 0.40625,-1.000003 0,-1.369796 -1.48959,-1.369796 z m 0,-0.802086 h 1.51042 q 0.65626,0 1.04688,-0.328126 0.39584,-0.328126 0.39584,-0.890628 0,-0.625002 -0.36459,-0.906253 -0.36458,-0.286459 -1.10938,-0.286459 h -1.47917 z m 8.96878,3.791679 q -0.5625,0.66146 -1.65104,0.66146 -0.90105,0 -1.37501,-0.520835 -0.46875,-0.526043 -0.47396,-1.552088 v -3.666678 h 0.96355 v 3.640636 q 0,1.281254 1.04167,1.281254 1.10417,0 1.46875,-0.822919 v -4.098971 h 0.96355 v 5.635434 h -0.91667 z m 5.68231,-0.937503 q 0,-0.390626 -0.29687,-0.604169 -0.29167,-0.21875 -1.02605,-0.375001 -0.72917,-0.15625 -1.16146,-0.375001 -0.42709,-0.218751 -0.63542,-0.520835 -0.20313,-0.302084 -0.20313,-0.718752 0,-0.692711 0.58334,-1.171879 0.58854,-0.479168 1.5,-0.479168 0.95834,0 1.55209,0.494793 0.59896,0.494793 0.59896,1.265629 h -0.96875 q 0,-0.395835 -0.33854,-0.682294 -0.33334,-0.286459 -0.84376,-0.286459 -0.52604,0 -0.82292,0.229167 -0.29687,0.229168 -0.29687,0.59896 0,0.34896 0.27604,0.526044 0.27604,0.177084 0.9948,0.338543 0.72396,0.161458 1.17187,0.385417 0.44792,0.223959 0.66147,0.541669 0.21875,0.312501 0.21875,0.765627 0,0.755211 -0.60417,1.213546 -0.60417,0.453126 -1.56772,0.453126 -0.67708,0 -1.19792,-0.239584 -0.52083,-0.239584 -0.81771,-0.666669 -0.29167,-0.432293 -0.29167,-0.932294 h 0.96355 q 0.026,0.484376 0.38542,0.770835 0.36458,0.281251 0.95833,0.281251 0.54688,0 0.87501,-0.21875 0.33333,-0.223959 0.33333,-0.593752 z m 5.33335,1.494796 v -4.89064 h -0.89063 v -0.744794 h 0.89063 v -0.578127 q 0,-0.906253 0.48437,-1.401046 0.48438,-0.494793 1.3698,-0.494793 0.33334,0 0.66146,0.08854 l -0.0521,0.781253 q -0.24479,-0.04687 -0.52084,-0.04687 -0.46875,0 -0.72396,0.276042 -0.25521,0.270835 -0.25521,0.781253 v 0.593752 h 1.20313 v 0.744794 h -1.20313 v 4.89064 z m 2.97397,-2.869801 q 0,-0.828127 0.32292,-1.489588 0.32812,-0.66146 0.90625,-1.020836 0.58334,-0.359376 1.32813,-0.359376 1.15104,0 1.85938,0.796877 0.71354,0.796878 0.71354,2.119799 v 0.06771 q 0,0.822919 -0.31771,1.479171 -0.3125,0.651044 -0.90104,1.015629 -0.58333,0.364584 -1.34375,0.364584 -1.14584,0 -1.85938,-0.796877 -0.70834,-0.796878 -0.70834,-2.109382 z m 0.96875,0.114584 q 0,0.937503 0.4323,1.505213 0.4375,0.56771 1.16667,0.56771 0.73437,0 1.16667,-0.572918 0.43229,-0.578127 0.43229,-1.614589 0,-0.927086 -0.44271,-1.500004 -0.4375,-0.578127 -1.16667,-0.578127 -0.71354,0 -1.15105,0.56771 -0.4375,0.56771 -0.4375,1.625005 z m 8.09378,-2.015631 q -0.21875,-0.03646 -0.47396,-0.03646 -0.94792,0 -1.28647,0.807295 v 4.000012 h -0.96354 v -5.635434 h 0.9375 l 0.0156,0.651043 q 0.47396,-0.75521 1.34375,-0.75521 0.28125,0 0.42709,0.07292 z m 4.75001,4.770848 h -1.00001 V 43.85942 h 1.00001 z m 2.58855,-5.635434 0.0312,0.708335 q 0.64584,-0.812502 1.68751,-0.812502 1.78646,0 1.80209,2.015631 v 3.72397 h -0.96355 v -3.729178 q -0.005,-0.609377 -0.28125,-0.901045 -0.27083,-0.291667 -0.84896,-0.291667 -0.46875,0 -0.82292,0.25 -0.35417,0.250001 -0.55209,0.656252 v 4.015638 h -0.96354 v -5.635434 z m 6.28127,-1.364588 v 1.364588 h 1.05209 v 0.744794 h -1.05209 v 3.494802 q 0,0.338543 0.14063,0.510419 0.14062,0.166667 0.47917,0.166667 0.16666,0 0.45833,-0.0625 v 0.781252 q -0.38021,0.104167 -0.73958,0.104167 -0.64584,0 -0.97397,-0.390626 -0.32812,-0.390626 -0.32812,-1.109379 v -3.494802 h -1.02605 v -0.744794 h 1.02605 v -1.364588 z m 4.51565,7.104189 q -1.14584,0 -1.86459,-0.750002 -0.71876,-0.755211 -0.71876,-2.015632 v -0.177083 q 0,-0.838545 0.31771,-1.494797 0.32292,-0.66146 0.89584,-1.031253 0.57813,-0.375001 1.25,-0.375001 1.09897,0 1.70834,0.72396 0.60938,0.723961 0.60938,2.072924 v 0.401042 h -3.81772 q 0.0208,0.833336 0.48438,1.348963 0.46875,0.510418 1.1875,0.510418 0.51042,0 0.86459,-0.208334 0.35416,-0.208334 0.61979,-0.552085 l 0.58854,0.458335 q -0.70833,1.088545 -2.125,1.088545 z m -0.1198,-5.052099 q -0.58333,0 -0.97917,0.427085 -0.39583,0.421876 -0.48958,1.187503 h 2.82292 v -0.07292 q -0.0417,-0.734377 -0.39583,-1.13542 -0.35417,-0.406251 -0.95834,-0.406251 z m 4.47917,4.947932 h -0.96354 v -8.000025 h 0.96354 z m 3.97918,-2.036465 q 0,-0.546876 0.30209,-1.005211 0.30729,-0.458335 1.16667,-1.067712 -0.50521,-0.614585 -0.67709,-0.989586 -0.17187,-0.375001 -0.17187,-0.744794 0,-0.864586 0.51042,-1.354171 0.51042,-0.489585 1.38542,-0.489585 0.78125,0 1.29167,0.458335 0.51042,0.453126 0.51042,1.145837 0,0.458334 -0.23438,0.848961 -0.22917,0.385418 -0.80729,0.812502 l -0.5573,0.41146 1.68751,2.015631 q 0.35417,-0.677085 0.35417,-1.505213 h 0.86979 q 0,1.328129 -0.64063,2.203132 l 1.08334,1.296879 h -1.15625 l -0.50521,-0.59896 q -0.38542,0.343751 -0.90626,0.526043 -0.51562,0.177084 -1.05208,0.177084 -1.10938,0 -1.78126,-0.588543 -0.67188,-0.588544 -0.67188,-1.552089 z m 2.45314,1.354171 q 0.76563,0 1.40104,-0.583335 l -1.84896,-2.213549 -0.17188,0.125001 q -0.86979,0.640627 -0.86979,1.317712 0,0.614586 0.39583,0.984378 0.40105,0.369793 1.09376,0.369793 z m -0.8698,-5.192724 q 0,0.500001 0.61459,1.250004 l 0.61458,-0.432293 q 0.35417,-0.250001 0.48438,-0.47396 0.13021,-0.229168 0.13021,-0.552085 0,-0.34896 -0.26042,-0.578127 -0.26042,-0.234376 -0.65625,-0.234376 -0.42709,0 -0.67709,0.291668 -0.25,0.286459 -0.25,0.729169 z m 12.2292,3.895845 h -3.17709 l -0.71354,1.979173 h -1.03126 l 2.89585,-7.583357 h 0.875 l 2.90105,7.583357 h -1.02604 z m -2.875,-0.822919 h 2.57813 l -1.29167,-3.546886 z m 6.93752,-4.781265 2.47918,6.187519 2.47917,-6.187519 h 1.29688 v 7.583357 h -1 v -2.953134 l 0.0937,-3.18751 -2.48959,6.140644 h -0.76563 l -2.48439,-6.125019 0.099,3.171885 v 2.953134 h -1 V 43.85942 Z m 8.02086,7.583357 V 43.85942 h 2.14063 q 0.98959,0 1.75001,0.437501 0.76042,0.437502 1.17188,1.244796 0.41666,0.807294 0.42187,1.854172 v 0.484377 q 0,1.07292 -0.41666,1.880214 -0.41146,0.807294 -1.1823,1.239587 -0.76563,0.432293 -1.78646,0.44271 z m 1,-6.760438 v 5.942727 h 1.05209 q 1.15625,0 1.79688,-0.718752 0.64584,-0.718752 0.64584,-2.046881 v -0.44271 q 0,-1.291671 -0.60938,-2.005215 -0.60417,-0.718752 -1.71876,-0.729169 z"
         id="path106" /></g><g
       id="g102"
       clip-path="url(#clipPath103)"><g
         id="g101"><g
           id="g2"
           transform="matrix(0.109375,0,0,0.109375,4.0000001,4.0000001)"
           style="display:inline;stroke-width:14.2857"><rect
             style="fill:#88c5cc;stroke-width:0.25"
             id="rect4"
             width="56"
             height="56"
             x="3.9999998"
             y="4"
             transform="matrix(9.1428571,0,0,9.1428571,-36.571429,-36.571429)" /><path
             id="path1"
             style="fill:#80b9bf;stroke-width:14.2857"
             d="m 252.64286,75.857142 c -0.36869,-0.0022 -0.72229,0.01957 -1.08929,0.05357 -1.188,0.092 -2.35386,0.08929 -3.51786,0.08929 H 248 v 0.321429 c -28,3.892 -48,27.301849 -48,55.517849 0,4.872 0.65343,9.58129 1.82143,14.08929 0.144,0.636 0.24671,1.28271 0.41071,1.91071 1.04,4.612 2.63,9.009 4.75,13.125 1.028,3.616 2.40714,7.091 4.10714,10.375 1.016,3.556 2.39543,6.96443 4.07143,10.19643 1.02,3.544 2.38157,6.95457 4.05357,10.17857 0.032,0.116 0.0791,0.24115 0.10715,0.35715 C 215.24943,192.43543 212,195.836 212,200 c 0,1.28 0.331,2.47757 0.875,3.55357 -0.008,0.152 -0.0536,0.29443 -0.0536,0.44643 0,1.864 0.67,3.56457 1.75,4.92857 0.18,1.5 0.76471,2.868 1.66071,4 0.18,1.5 0.76072,2.868 1.66072,4 0.172,1.504 0.76071,2.868 1.66071,4 0.172,1.5 0.74686,2.868 1.64286,4 0.176,1.5 0.76471,2.868 1.66071,4 0.176,1.5 0.76472,2.868 1.66072,4 0.176,1.5 0.74685,2.868 1.64285,4 0.176,1.5 0.76472,2.868 1.66072,4 0.048,0.404 0.12014,0.79457 0.23214,1.17857 C 222.93357,286.51514 211.18,340.436 184,388 h -4 c -4.4,0 -8,3.6 -8,8 0,1.288 0.34486,2.49143 0.89286,3.57143 0.116,1.616 0.70871,3.02871 1.66071,4.16071 0.064,0.732 0.21629,1.42343 0.46429,2.07143 C 173.19786,407.27157 172,409.488 172,412 c 0,1.26 0.32914,2.44586 0.85714,3.51786 0.048,1.584 0.539,3.13814 1.375,4.48214 H 164 c -4.4,0 -8,3.596 -8,8 0,1.276 0.331,2.47757 0.875,3.55357 -0.008,0.152 -0.0536,0.29443 -0.0536,0.44643 0,1.864 0.67,3.56457 1.75,4.92857 0.18,1.5 0.76471,2.868 1.66071,4 0.18,1.5 0.76072,2.872 1.66072,4 0.172,1.508 0.76071,2.868 1.66071,4 0.172,1.5 0.74686,2.868 1.64286,4 0.176,1.5 0.76471,2.868 1.66071,4 0.176,1.5 0.76472,2.868 1.66072,4 0.176,1.5 0.74685,2.868 1.64285,4 0.176,1.5 0.76472,2.868 1.66072,4 0.176,1.5 0.76471,2.868 1.66071,4 0.176,1.5 0.74286,2.872 1.64286,4 0.176,1.508 0.76071,2.868 1.66071,4 0.176,1.5 0.76072,2.868 1.66072,4 0.172,1.5 0.76071,2.868 1.66071,4 0.172,1.5 0.74286,2.868 1.64286,4 0.16942,1.47753 0.74783,2.82445 1.625,3.94643 0.0613,0.5338 0.19287,1.05757 0.35714,1.55357 0.0785,0.23696 0.15029,0.46961 0.25,0.69643 v 0.0179 H 184 c 0.28387,0.64046 0.64047,1.24143 1.07143,1.78571 0.007,0.0567 0.01,0.1044 0.0179,0.16071 0.20251,1.43357 0.78073,2.75007 1.64286,3.83929 0.18,1.5 0.74286,2.872 1.64286,4 0.12724,1.11561 0.47717,2.15021 1.01786,3.07143 h 281.53571 c -0.26037,-0.63785 -0.52275,-1.26944 -0.80357,-1.89286 -0.5,-1.376 -1.04686,-2.73357 -1.64286,-4.05357 -0.508,-1.4 -1.07057,-2.76314 -1.67857,-4.10714 -0.508,-1.388 -1.03886,-2.75329 -1.64286,-4.08929 -0.508,-1.388 -1.05671,-2.75728 -1.66071,-4.08928 -0.508,-1.388 -1.05272,-2.75329 -1.66072,-4.08929 -0.508,-1.388 -1.03485,-2.75729 -1.64285,-4.08929 -0.508,-1.392 -1.05272,-2.73942 -1.66072,-4.07142 -0.508,-1.396 -1.05671,-2.75329 -1.66071,-4.08929 -0.5,-1.376 -1.04286,-2.74343 -1.64286,-4.07143 -0.504,-1.384 -1.04286,-2.74343 -1.64286,-4.07143 -0.688,-2.2 -1.556,-4.303 -2.5,-6.375 -0.504,-1.388 -1.05671,-2.75328 -1.66071,-4.08928 -0.504,-1.388 -1.05271,-2.75729 -1.66071,-4.08929 -0.504,-1.392 -1.03486,-2.75328 -1.64286,-4.08928 -0.5,-1.388 -1.05272,-2.75329 -1.66072,-4.08929 -0.5,-1.376 -1.04285,-2.72957 -1.64285,-4.05357 -0.508,-1.4 -1.05272,-2.76314 -1.66072,-4.10714 -0.508,-1.392 -1.05671,-2.75729 -1.66071,-4.08929 -0.508,-1.392 -1.06072,-2.75329 -1.66072,-4.08929 -0.508,-1.388 -1.04285,-2.75728 -1.64285,-4.08928 -0.508,-1.388 -1.05672,-2.75329 -1.66072,-4.08929 -0.504,-1.388 -1.05671,-2.75728 -1.66071,-4.08928 -0.5,-1.376 -1.03886,-2.73357 -1.64286,-4.05357 -0.508,-1.404 -1.05271,-2.781 -1.66071,-4.125 -0.504,-1.388 -1.05272,-2.73543 -1.66072,-4.07143 -0.504,-1.388 -1.05271,-2.75729 -1.66071,-4.08929 -0.504,-1.392 -1.03886,-2.75728 -1.64286,-4.08928 -0.5,-1.372 -1.04686,-2.71572 -1.64286,-4.03572 -0.692,-2.2 -1.556,-4.32086 -2.5,-6.39286 -0.5,-1.376 -1.04285,-2.73357 -1.64285,-4.05357 -0.508,-1.4 -1.05272,-2.777 -1.66072,-4.125 -0.508,-1.388 -1.06071,-2.75328 -1.66071,-4.08928 -0.508,-1.388 -1.04286,-2.75729 -1.64286,-4.08929 -0.508,-1.388 -1.05271,-2.73943 -1.66071,-4.07143 -0.5,-1.392 -1.05272,-2.77114 -1.66072,-4.10714 -0.5,-1.388 -1.05671,-2.73943 -1.66071,-4.07143 -0.504,-1.392 -1.03886,-2.75728 -1.64286,-4.08928 -0.5,-1.376 -1.04686,-2.73358 -1.64286,-4.05358 -0.508,-1.4 -1.07057,-2.781 -1.67857,-4.125 -0.504,-1.392 -1.04285,-2.75728 -1.64285,-4.08928 -0.508,-1.388 -1.06072,-2.75329 -1.66072,-4.08929 -0.508,-1.388 -1.05271,-2.75328 -1.66071,-4.08928 -0.504,-1.388 -1.05272,-2.73943 -1.66072,-4.07143 -0.504,-1.388 -1.03885,-2.75329 -1.64285,-4.08929 -0.492,-1.36 -1.037,-2.70985 -1.625,-4.01785 -0.696,-2.212 -1.56986,-4.32672 -2.51786,-6.41072 -0.5,-1.388 -1.05272,-2.75728 -1.66072,-4.08928 -0.5,-1.392 -1.03485,-2.75329 -1.64285,-4.08929 -0.5,-1.388 -1.05272,-2.75729 -1.66072,-4.08929 -0.5,-1.388 -1.03885,-2.75328 -1.64285,-4.08928 -0.504,-1.388 -1.05672,-2.73943 -1.66072,-4.07143 -0.504,-1.388 -1.05671,-2.75329 -1.66071,-4.08929 -0.5,-1.376 -1.04686,-2.74742 -1.64286,-4.07142 -0.508,-1.4 -1.04871,-2.76315 -1.66071,-4.10715 -0.504,-1.392 -1.05672,-2.75328 -1.66072,-4.08928 -0.504,-1.388 -1.05271,-2.75729 -1.66071,-4.08929 -0.504,-1.388 -1.05272,-2.75328 -1.66072,-4.08928 -0.504,-1.388 -1.03885,-2.75729 -1.64285,-4.08929 -0.504,-1.388 -1.06072,-2.75329 -1.66072,-4.08929 -0.5,-1.376 -1.04686,-2.72957 -1.64286,-4.05357 -0.508,-1.4 -1.04871,-2.781 -1.66071,-4.125 -0.5,-1.388 -1.05671,-2.73543 -1.66071,-4.07143 -0.508,-1.388 -1.05672,-2.75728 -1.66072,-4.08928 -0.92009,-2.52429 -2.01458,-4.96351 -3.26786,-7.30357 -0.0465,-0.1042 -0.0956,-0.21757 -0.14285,-0.32143 -0.5,-1.388 -1.03486,-2.75729 -1.64286,-4.08929 -0.5,-1.388 -1.05671,-2.75328 -1.66071,-4.08928 -0.504,-1.388 -1.05672,-2.73943 -1.66072,-4.07143 -0.504,-1.388 -1.03886,-2.75329 -1.64286,-4.08929 -0.5,-1.376 -1.04685,-2.72957 -1.64285,-4.05357 -0.508,-1.4 -1.06657,-2.781 -1.67857,-4.125 -0.504,-1.392 -1.05672,-2.75328 -1.66072,-4.08928 -0.504,-1.388 -1.03486,-2.75729 -1.64286,-4.08929 -0.504,-1.388 -1.05271,-2.75329 -1.66071,-4.08929 -0.504,-1.388 -1.05671,-2.73942 -1.66071,-4.07142 -0.504,-1.388 -1.04286,-2.75329 -1.64286,-4.08929 -0.5,-1.376 -1.04686,-2.74743 -1.64286,-4.07143 -0.508,-1.4 -1.06657,-2.76314 -1.67857,-4.10714 -0.5,-1.388 -1.05671,-2.75329 -1.66071,-4.08929 -0.508,-1.388 -1.03886,-2.75728 -1.64286,-4.08928 -1.10916,-3.04298 -2.46418,-5.96121 -4.05357,-8.73215 -0.28809,-0.71824 -0.59275,-1.43954 -0.91072,-2.14285 -0.504,-1.388 -1.05671,-2.73943 -1.66071,-4.07143 -0.504,-1.388 -1.05672,-2.75329 -1.66072,-4.08929 -0.5,-1.376 -1.04685,-2.72957 -1.64285,-4.05357 -0.508,-1.4 -1.04872,-2.781 -1.66072,-4.125 -0.504,-1.392 -1.05671,-2.75328 -1.66071,-4.08928 -0.504,-1.388 -1.05272,-2.75729 -1.66072,-4.08929 -0.504,-1.388 -1.03485,-2.75329 -1.64285,-4.08929 -0.504,-1.388 -1.05672,-2.73942 -1.66072,-4.07142 -0.504,-1.388 -1.06071,-2.75329 -1.66071,-4.08929 -0.5,-1.376 -1.04686,-2.74743 -1.64286,-4.07143 -0.508,-1.4 -1.04871,-2.76314 -1.66071,-4.10714 -0.5,-1.388 -1.05672,-2.75329 -1.66072,-4.08929 -0.508,-1.388 -1.05671,-2.75728 -1.66071,-4.08928 C 300.765,91.382426 280.228,75.999999 256,75.999999 c -1.128,0 -2.25108,-0.136107 -3.35714,-0.142857 z" /><path
             style="fill:#e6e6e6;stroke-width:14.2857"
             d="m 280,164 c -12,0 -24,0 -24,0 0,0 -12,0 -24,0 0,36 0,140 -48,224 36,0 72,0 72,0 0,0 36,0 72,0 -48,-84 -48,-188 -48,-224 z"
             id="path2" /><path
             style="fill:#cccccc;stroke-width:14.2857"
             d="m 280,164 c -5.788,0 -11.564,0 -16,0 0,36 0,140 48,224 5.256,0 10.616,0 16,0 -48,-84 -48,-188 -48,-224 z"
             id="path3" /><path
             style="fill:#e6e6e6;stroke-width:14.2857"
             d="m 312,132 c 0,30.936 -25.048,56 -56,56 -30.92,0 -56,-25.064 -56,-56 0,-30.94 25.08,-56 56,-56 30.952,0 56,25.06 56,56 z"
             id="path4" /><path
             style="fill:#cccccc;stroke-width:14.2857"
             d="m 256,76 c -2.728,0 -5.384,0.26 -7.996,0.636 C 275.148,80.524 296,103.784 296,132 c 0,28.216 -20.852,51.476 -47.996,55.364 2.612,0.376 5.268,0.636 7.996,0.636 30.952,0 56,-25.064 56,-56 0,-30.94 -25.048,-56 -56,-56 z"
             id="path5" /><path
             style="fill:#cc584c;stroke-width:14.2857"
             d="m 292,184 c 0,4.4 -3.6,8 -8,8 h -56 c -4.4,0 -8,-3.6 -8,-8 v 0 c 0,-4.4 3.6,-8 8,-8 h 56 c 4.4,0 8,3.6 8,8 z"
             id="path6" /><g
             id="g8"
             style="stroke-width:14.2857">
	<path
   style="fill:#263740;stroke-width:14.2857"
   d="m 300,200 c 0,4.4 -3.6,8 -8,8 h -72 c -4.4,0 -8,-3.6 -8,-8 v 0 c 0,-4.4 3.6,-8 8,-8 h 72 c 4.4,0 8,3.6 8,8 z"
   id="path7" />
	<path
   style="fill:#263740;stroke-width:14.2857"
   d="m 340,396 c 0,4.4 -3.6,8 -8,8 H 180 c -4.4,0 -8,-3.6 -8,-8 v 0 c 0,-4.4 3.6,-8 8,-8 h 152 c 4.4,0 8,3.6 8,8 z"
   id="path8" />
</g><path
             style="fill:#1e2c33;stroke-width:14.2857"
             d="m 332,388 h -16 c 4.4,0 8,3.6 8,8 0,4.4 -3.6,8 -8,8 h 16 c 4.4,0 8,-3.6 8,-8 0,-4.4 -3.6,-8 -8,-8 z"
             id="path9" /><path
             style="fill:#cc584c;stroke-width:14.2857"
             d="m 340,412 c 0,4.4 -3.6,8 -8,8 H 180 c -4.4,0 -8,-3.6 -8,-8 v 0 c 0,-4.4 3.6,-8 8,-8 h 152 c 4.4,0 8,3.6 8,8 z"
             id="path10" /><path
             style="fill:#263740;stroke-width:14.2857"
             d="m 356,428 c 0,4.4 -3.6,8 -8,8 H 164 c -4.4,0 -8,-3.6 -8,-8 v 0 c 0,-4.4 3.6,-8 8,-8 h 184 c 4.4,0 8,3.6 8,8 z"
             id="path11" /><path
             style="fill:#1e2c33;stroke-width:14.2857"
             d="m 348,420 h -16 c 4.4,0 8,3.6 8,8 0,4.4 -3.6,8 -8,8 h 16 c 4.4,0 8,-3.6 8,-8 0,-4.4 -3.6,-8 -8,-8 z"
             id="path12" /><path
             style="fill:#b34d43;stroke-width:14.2857"
             d="m 332,404 h -16 c 4.4,0 8,3.6 8,8 0,4.4 -3.6,8 -8,8 h 16 c 4.4,0 8,-3.6 8,-8 0,-4.4 -3.6,-8 -8,-8 z"
             id="path13" /><path
             style="fill:#1e2c33;stroke-width:14.2857"
             d="m 292,192 h -16 c 4.4,0 8,3.6 8,8 0,4.4 -3.6,8 -8,8 h 16 c 4.4,0 8,-3.6 8,-8 0,-4.4 -3.6,-8 -8,-8 z"
             id="path14" /><path
             style="fill:#b34d43;stroke-width:14.2857"
             d="m 284,176 h -16 c 4.4,0 8,3.6 8,8 0,4.4 -3.6,8 -8,8 h 16 c 4.4,0 8,-3.6 8,-8 0,-4.4 -3.6,-8 -8,-8 z"
             id="path15" /></g></g></g></g></svg>
