<?xml version="1.0" encoding="UTF-8" standalone="no"?>
<!-- Created with Inkscape (http://www.inkscape.org/) -->

<svg
   width="256"
   height="64"
   viewBox="0 0 256 64"
   version="1.1"
   id="svg1"
   xml:space="preserve"
   sodipodi:docname="pawnio-inkscape.svg"
   inkscape:version="1.4.2 (ebf0e940d0, 2025-05-08)"
   inkscape:export-xdpi="96"
   inkscape:export-ydpi="96"
   xmlns:inkscape="http://www.inkscape.org/namespaces/inkscape"
   xmlns:sodipodi="http://sodipodi.sourceforge.net/DTD/sodipodi-0.dtd"
   xmlns:xlink="http://www.w3.org/1999/xlink"
   xmlns="http://www.w3.org/2000/svg"
   xmlns:svg="http://www.w3.org/2000/svg"><sodipodi:namedview
     id="namedview1"
     pagecolor="#505050"
     bordercolor="#eeeeee"
     borderopacity="1"
     inkscape:showpageshadow="0"
     inkscape:pageopacity="0"
     inkscape:pagecheckerboard="0"
     inkscape:deskcolor="#d1d1d1"
     inkscape:document-units="px"
     inkscape:zoom="2.8284271"
     inkscape:cx="135.94128"
     inkscape:cy="75.660425"
     inkscape:window-width="1876"
     inkscape:window-height="1025"
     inkscape:window-x="0"
     inkscape:window-y="0"
     inkscape:window-maximized="1"
     inkscape:current-layer="layer1" /><defs
     id="defs1"><linearGradient
       id="n"><stop
         offset="0"
         stop-color="#fefefc"
         id="stop1" /><stop
         offset=".757"
         stop-color="#fefefc"
         id="stop2" /><stop
         offset="1"
         stop-color="#d4d4d4"
         id="stop3" /></linearGradient><linearGradient
       id="a"><stop
         offset="0"
         stop-color="#3e2a06"
         id="stop7" /><stop
         offset="1"
         stop-color="#ad780a"
         id="stop8" /></linearGradient><linearGradient
       y2="293.58499"
       x2="490.12201"
       y1="371.54401"
       x1="442.039"
       gradientTransform="matrix(0.87491,0,0,0.81149,60.367,62.587)"
       gradientUnits="userSpaceOnUse"
       id="C"
       xlink:href="#a" /><linearGradient
       y2="293.58499"
       x2="490.12201"
       y1="371.54401"
       x1="442.039"
       gradientUnits="userSpaceOnUse"
       id="B"
       xlink:href="#a" /><linearGradient
       id="l"><stop
         offset="0"
         stop-color="#b98309"
         id="stop9" /><stop
         offset="1"
         stop-color="#382605"
         id="stop10" /></linearGradient><linearGradient
       id="m"><stop
         offset="0"
         stop-color="#ebc40c"
         id="stop11" /><stop
         offset="1"
         stop-color="#ebc40c"
         stop-opacity="0"
         id="stop12" /></linearGradient><linearGradient
       id="z"><stop
         offset="0"
         stop-color="#7c7c7c"
         id="stop13" /><stop
         offset="1"
         stop-color="#7c7c7c"
         stop-opacity=".329"
         id="stop14" /></linearGradient><linearGradient
       id="x"><stop
         offset="0"
         stop-color="#110800"
         id="stop17" /><stop
         offset=".591"
         stop-color="#a65a00"
         stop-opacity=".8"
         id="stop18" /><stop
         offset="1"
         stop-color="#ff921e"
         stop-opacity="0"
         id="stop19" /></linearGradient><linearGradient
       id="h"><stop
         offset="0"
         id="stop23" /><stop
         offset="1"
         stop-opacity="0"
         id="stop24" /></linearGradient><linearGradient
       id="j"><stop
         offset="0"
         stop-color="#f3cd0c"
         id="stop27" /><stop
         offset="1"
         stop-color="#f3cd0c"
         stop-opacity="0"
         id="stop28" /></linearGradient><linearGradient
       id="w"><stop
         offset="0"
         id="stop29" /><stop
         offset="1"
         stop-opacity=".249"
         id="stop30" /></linearGradient><linearGradient
       id="u"><stop
         offset="0"
         stop-color="#c8c8c8"
         id="stop33" /><stop
         offset="1"
         stop-color="#797978"
         id="stop34" /></linearGradient><linearGradient
       id="s"><stop
         offset="0"
         stop-color="#d2940a"
         id="stop35" /><stop
         offset=".751"
         stop-color="#d89c08"
         id="stop36" /><stop
         offset=".866"
         stop-color="#b67e07"
         id="stop37" /><stop
         offset="1"
         stop-color="#946106"
         id="stop38" /></linearGradient><linearGradient
       id="f"><stop
         offset="0"
         stop-color="#ad780a"
         id="stop39" /><stop
         offset=".12"
         stop-color="#d89e08"
         id="stop40" /><stop
         offset=".255"
         stop-color="#edb80b"
         id="stop41" /><stop
         offset=".392"
         stop-color="#ebc80d"
         id="stop42" /><stop
         offset=".527"
         stop-color="#f5d838"
         id="stop43" /><stop
         offset=".769"
         stop-color="#f6d811"
         id="stop44" /><stop
         offset="1"
         stop-color="#f5cd31"
         id="stop45" /></linearGradient><linearGradient
       id="t"><stop
         offset="0"
         stop-color="#3a2903"
         id="stop46" /><stop
         offset=".555"
         stop-color="#735208"
         id="stop47" /><stop
         offset="1"
         stop-color="#ac8c04"
         id="stop48" /></linearGradient><linearGradient
       id="g"><stop
         offset="0"
         stop-color="#f5ce2d"
         id="stop49" /><stop
         offset="1"
         stop-color="#d79b08"
         id="stop50" /></linearGradient><linearGradient
       id="e"><stop
         offset="0"
         stop-color="#757574"
         stop-opacity="0"
         id="stop51" /><stop
         offset=".263"
         stop-color="#757574"
         id="stop52" /><stop
         offset=".5"
         stop-color="#757574"
         id="stop53" /><stop
         offset="1"
         stop-color="#757574"
         stop-opacity="0"
         id="stop54" /></linearGradient><linearGradient
       id="d"><stop
         offset="0"
         stop-color="#646464"
         stop-opacity="0"
         id="stop55" /><stop
         offset=".306"
         stop-color="#646464"
         stop-opacity=".583"
         id="stop56" /><stop
         offset=".47"
         stop-color="#646464"
         id="stop57" /><stop
         offset=".728"
         stop-color="#646464"
         stop-opacity=".257"
         id="stop58" /><stop
         offset="1"
         stop-color="#646464"
         stop-opacity="0"
         id="stop59" /></linearGradient><linearGradient
       id="c"><stop
         offset="0"
         stop-color="#747474"
         id="stop60" /><stop
         offset=".125"
         stop-color="#8c8c8c"
         id="stop61" /><stop
         offset=".25"
         stop-color="#a4a4a4"
         id="stop62" /><stop
         offset=".5"
         stop-color="#d4d4d4"
         id="stop63" /><stop
         offset=".619"
         stop-color="#d4d4d4"
         id="stop64" /><stop
         offset="1"
         stop-color="#7c7c7c"
         id="stop65" /></linearGradient><linearGradient
       id="b"><stop
         offset="0"
         stop-color="#949494"
         stop-opacity=".392"
         id="stop66" /><stop
         offset=".5"
         stop-color="#949494"
         id="stop67" /><stop
         offset="1"
         stop-color="#949494"
         stop-opacity=".392"
         id="stop68" /></linearGradient><linearGradient
       id="r"><stop
         offset="0"
         stop-color="#020204"
         id="stop69" /><stop
         offset=".734"
         stop-color="#020204"
         id="stop70" /><stop
         offset="1"
         stop-color="#5c5c5c"
         id="stop71" /></linearGradient><linearGradient
       y2="140.72501"
       x2="219.733"
       y1="132.77"
       x1="213.01601"
       gradientTransform="translate(90)"
       gradientUnits="userSpaceOnUse"
       id="N"
       xlink:href="#b" /><linearGradient
       y2="132.487"
       x2="358.625"
       y1="119.987"
       x1="337.25"
       gradientTransform="translate(-250)"
       gradientUnits="userSpaceOnUse"
       id="Q"
       xlink:href="#c" /><linearGradient
       y2="127.997"
       x2="308.741"
       y1="114.562"
       x1="294.51001"
       gradientTransform="translate(-279,-9)"
       gradientUnits="userSpaceOnUse"
       id="R"
       xlink:href="#d" /><linearGradient
       y2="128.571"
       x2="266.62701"
       y1="115.666"
       x1="253.22701"
       gradientTransform="translate(-279,-9)"
       gradientUnits="userSpaceOnUse"
       id="T"
       xlink:href="#d" /><linearGradient
       y2="142.493"
       x2="169.882"
       y1="132.063"
       x1="164.049"
       gradientUnits="userSpaceOnUse"
       id="V"
       xlink:href="#e" /><linearGradient
       y2="157.87199"
       x2="313.33701"
       y1="158.314"
       x1="256.85699"
       gradientTransform="translate(-210)"
       gradientUnits="userSpaceOnUse"
       id="aa"
       xlink:href="#f" /><linearGradient
       y2="159.76801"
       x2="243.46899"
       y1="157.01801"
       x1="243.03101"
       gradientUnits="userSpaceOnUse"
       id="ag"
       xlink:href="#g" /><linearGradient
       y2="351.487"
       x2="341.98199"
       y1="323.901"
       x1="338.28601"
       gradientTransform="translate(-310)"
       gradientUnits="userSpaceOnUse"
       id="au"
       xlink:href="#h" /><linearGradient
       y2="302.31699"
       x2="353.75"
       y1="289.58899"
       x1="355.164"
       gradientTransform="translate(-310)"
       gradientUnits="userSpaceOnUse"
       id="aC"
       xlink:href="#j" /><linearGradient
       y2="279.237"
       x2="361.5"
       y1="279.362"
       x1="358.5"
       gradientUnits="userSpaceOnUse"
       id="aO"
       xlink:href="#z" /><linearGradient
       y2="381.62"
       x2="170.864"
       y1="301.54001"
       x1="123.134"
       gradientUnits="userSpaceOnUse"
       id="aT"
       xlink:href="#l" /><linearGradient
       y2="352.27499"
       x2="186.597"
       y1="323.991"
       x1="171.571"
       gradientTransform="translate(-0.53,-1.768)"
       gradientUnits="userSpaceOnUse"
       id="aW"
       xlink:href="#m" /><filter
       color-interpolation-filters="sRGB"
       height="1.2170124"
       y="-0.10850622"
       width="1.2150331"
       x="-0.10751652"
       id="aU"><feGaussianBlur
         stdDeviation="3.924"
         id="feGaussianBlur77" /></filter><filter
       color-interpolation-filters="sRGB"
       id="aV"
       x="-0.075378895"
       y="-0.069736607"
       width="1.1507578"
       height="1.1394732"><feGaussianBlur
         stdDeviation="2.437"
         id="feGaussianBlur78" /></filter><filter
       color-interpolation-filters="sRGB"
       id="aX"
       x="-0.033742446"
       y="-0.018602703"
       width="1.0674849"
       height="1.0372055"><feGaussianBlur
         stdDeviation=".37"
         id="feGaussianBlur79" /></filter><filter
       color-interpolation-filters="sRGB"
       height="1.0853283"
       y="-0.042664167"
       width="1.2020348"
       x="-0.1010174"
       id="aR"><feGaussianBlur
         stdDeviation="1.132"
         id="feGaussianBlur80" /></filter><filter
       color-interpolation-filters="sRGB"
       height="1.3011402"
       y="-0.15057008"
       width="1.1408767"
       x="-0.070438303"
       id="aM"><feGaussianBlur
         stdDeviation="1.025"
         id="feGaussianBlur81" /></filter><filter
       height="1.3011402"
       y="-0.15057008"
       width="1.1408767"
       x="-0.070438303"
       id="aP"
       color-interpolation-filters="sRGB"><feGaussianBlur
         stdDeviation="1.025"
         id="feGaussianBlur82" /></filter><filter
       color-interpolation-filters="sRGB"
       height="1.4681107"
       y="-0.23405533"
       width="1.4009422"
       x="-0.20047107"
       id="aH"><feGaussianBlur
         stdDeviation="2.844"
         id="feGaussianBlur83" /></filter><filter
       color-interpolation-filters="sRGB"
       height="1.2134809"
       y="-0.10674043"
       width="1.1828488"
       x="-0.091424398"
       id="aJ"><feGaussianBlur
         stdDeviation="1.297"
         id="feGaussianBlur84" /></filter><filter
       height="1.5792201"
       y="-0.28960997"
       width="1.864657"
       x="-0.43232849"
       id="aF"
       color-interpolation-filters="sRGB"><feGaussianBlur
         stdDeviation=".86"
         id="feGaussianBlur85" /></filter><filter
       color-interpolation-filters="sRGB"
       height="1.9721062"
       y="-0.48605311"
       width="2.1612103"
       x="-0.58060521"
       id="aE"><feGaussianBlur
         stdDeviation="2.64"
         id="feGaussianBlur86" /></filter><filter
       color-interpolation-filters="sRGB"
       id="av"
       x="-0.076229654"
       y="-0.068206586"
       width="1.1524593"
       height="1.1364132"><feGaussianBlur
         stdDeviation="2.209"
         id="feGaussianBlur87" /></filter><filter
       color-interpolation-filters="sRGB"
       height="1.2860167"
       y="-0.14300837"
       width="1.2900488"
       x="-0.14502437"
       id="az"><feGaussianBlur
         stdDeviation="4.779"
         id="feGaussianBlur88" /></filter><filter
       color-interpolation-filters="sRGB"
       height="1.2499311"
       y="-0.12496554"
       width="1.2306201"
       x="-0.11531003"
       id="aB"><feGaussianBlur
         stdDeviation="3.173"
         id="feGaussianBlur89" /></filter><filter
       height="1.2582788"
       y="-0.12913945"
       width="1.0417831"
       x="-0.020891562"
       id="aD"
       color-interpolation-filters="sRGB"><feGaussianBlur
         stdDeviation=".479"
         id="feGaussianBlur90" /></filter><filter
       height="1.3189197"
       y="-0.15945978"
       width="1.3551711"
       x="-0.17758556"
       id="at"
       color-interpolation-filters="sRGB"><feGaussianBlur
         stdDeviation=".901"
         id="feGaussianBlur91" /></filter><filter
       color-interpolation-filters="sRGB"
       id="as"
       x="-0.81647611"
       width="2.6329522"
       y="-0.057810131"
       height="1.1156203"><feGaussianBlur
         stdDeviation="1.446"
         id="feGaussianBlur92" /></filter><filter
       color-interpolation-filters="sRGB"
       id="ar"
       x="-0.086856306"
       y="-0.081231408"
       width="1.1737126"
       height="1.1624628"><feGaussianBlur
         stdDeviation=".785"
         id="feGaussianBlur93" /></filter><filter
       color-interpolation-filters="sRGB"
       id="ap"
       x="-0.050783005"
       y="-0.073255911"
       width="1.101566"
       height="1.1465118"><feGaussianBlur
         stdDeviation="1.138"
         id="feGaussianBlur94" /></filter><filter
       color-interpolation-filters="sRGB"
       id="an"
       x="-0.049888469"
       y="-0.046192531"
       width="1.0997769"
       height="1.0923851"><feGaussianBlur
         stdDeviation=".643"
         id="feGaussianBlur95" /></filter><filter
       color-interpolation-filters="sRGB"
       height="1.0800869"
       y="-0.04004344"
       width="1.2350471"
       x="-0.11752353"
       id="al"><feGaussianBlur
         stdDeviation="1.352"
         id="feGaussianBlur96" /></filter><filter
       id="Y"
       x="-0.15531027"
       width="1.3106205"
       y="-0.22083201"
       height="1.441664"
       color-interpolation-filters="sRGB"><feGaussianBlur
         stdDeviation=".899"
         id="feGaussianBlur97" /></filter><filter
       id="Z"
       color-interpolation-filters="sRGB"
       x="-0.034389388"
       y="-0.079362594"
       width="1.0687788"
       height="1.1587251"><feGaussianBlur
         stdDeviation=".758"
         id="feGaussianBlur98" /></filter><filter
       color-interpolation-filters="sRGB"
       height="1.2606039"
       y="-0.13030197"
       width="1.3220052"
       x="-0.16100258"
       id="ab"><feGaussianBlur
         stdDeviation=".849"
         id="feGaussianBlur99" /></filter><filter
       id="ad"
       color-interpolation-filters="sRGB"
       x="-0.046594787"
       y="-0.088778056"
       width="1.0931896"
       height="1.1775562"><feGaussianBlur
         stdDeviation=".11"
         id="feGaussianBlur100" /></filter><filter
       height="1.2106881"
       y="-0.10534404"
       width="1.2320606"
       x="-0.11603024"
       id="af"
       color-interpolation-filters="sRGB"><feGaussianBlur
         stdDeviation=".11"
         id="feGaussianBlur101" /></filter><filter
       id="ah"
       x="-0.12147239"
       width="1.2429448"
       y="-0.13608247"
       height="1.2721649"
       color-interpolation-filters="sRGB"><feGaussianBlur
         stdDeviation=".264"
         id="feGaussianBlur102" /></filter><filter
       id="W"
       x="-0.23465206"
       width="1.4693041"
       y="-0.14618644"
       height="1.2923729"
       color-interpolation-filters="sRGB"><feGaussianBlur
         stdDeviation=".513"
         id="feGaussianBlur103" /></filter><filter
       id="U"
       color-interpolation-filters="sRGB"
       x="-0.022587843"
       y="-0.025698528"
       width="1.0451757"
       height="1.0513971"><feGaussianBlur
         stdDeviation=".135"
         id="feGaussianBlur104" /></filter><filter
       id="S"
       color-interpolation-filters="sRGB"
       x="-0.0229927"
       y="-0.024922295"
       width="1.0459853"
       height="1.0498446"><feGaussianBlur
         stdDeviation=".147"
         id="feGaussianBlur105" /></filter><filter
       id="M"
       x="-0.15799651"
       width="1.315993"
       y="-0.2092948"
       height="1.4185896"
       color-interpolation-filters="sRGB"><feGaussianBlur
         stdDeviation=".249"
         id="feGaussianBlur106" /></filter><filter
       id="O"
       x="-0.17851602"
       width="1.3570319"
       y="-0.18117566"
       height="1.3623513"
       color-interpolation-filters="sRGB"><feGaussianBlur
         stdDeviation=".519"
         id="feGaussianBlur107" /></filter><filter
       height="1.6163963"
       y="-0.30819815"
       width="1.5842718"
       x="-0.29213589"
       id="L"
       color-interpolation-filters="sRGB"><feGaussianBlur
         stdDeviation="1.74"
         id="feGaussianBlur108" /></filter><filter
       color-interpolation-filters="sRGB"
       id="J"
       x="-0.054175407"
       width="1.1083508"
       y="-0.10741608"
       height="1.2148322"><feGaussianBlur
         stdDeviation="1.361"
         id="feGaussianBlur109" /></filter><filter
       color-interpolation-filters="sRGB"
       id="G"
       x="-0.036535654"
       y="-0.074065447"
       width="1.0730712"
       height="1.1481309"><feGaussianBlur
         stdDeviation=".932"
         id="feGaussianBlur110" /></filter><filter
       color-interpolation-filters="sRGB"
       id="F"
       x="-0.0763961"
       width="1.1527922"
       y="-0.12922271"
       height="1.2584454"><feGaussianBlur
         stdDeviation="2.036"
         id="feGaussianBlur111" /></filter><radialGradient
       xlink:href="#n"
       id="E"
       gradientUnits="userSpaceOnUse"
       gradientTransform="matrix(1.08578,-0.03431,0.03944,1.24799,-154.542,-26.543)"
       cx="223.196"
       cy="137.661"
       fx="223.196"
       fy="137.661"
       r="14.572" /><radialGradient
       xlink:href="#n"
       id="D"
       gradientUnits="userSpaceOnUse"
       gradientTransform="matrix(0.81524,-0.03431,0.02961,1.24799,-129.437,-26.543)"
       cx="223.196"
       cy="137.661"
       fx="223.196"
       fy="137.661"
       r="14.572" /><radialGradient
       r="14.572"
       fy="137.661"
       fx="223.196"
       cy="137.661"
       cx="223.196"
       gradientTransform="matrix(0.81524,-0.03431,0.02961,1.24799,-208.437,-35.543)"
       gradientUnits="userSpaceOnUse"
       id="H"
       xlink:href="#n" /><radialGradient
       r="14.572"
       fy="137.661"
       fx="223.196"
       cy="137.661"
       cx="223.196"
       gradientTransform="matrix(1.08578,-0.03431,0.03944,1.24799,-233.542,-35.543)"
       gradientUnits="userSpaceOnUse"
       id="I"
       xlink:href="#n" /><radialGradient
       r="15.382"
       fy="150.651"
       fx="275.53799"
       cy="150.651"
       cx="275.53799"
       gradientTransform="matrix(0.69785,-0.50717,0.46034,0.6334,-271.102,183.03)"
       gradientUnits="userSpaceOnUse"
       id="K"
       xlink:href="#r" /><radialGradient
       r="31.111"
       fy="193.099"
       fx="294.48499"
       cy="193.099"
       cx="294.48499"
       gradientTransform="matrix(0.93619,-0.3864,0.27133,0.65739,-244.475,146.723)"
       gradientUnits="userSpaceOnUse"
       id="X"
       xlink:href="#s" /><radialGradient
       r="3.23"
       fy="147.093"
       fx="77.671997"
       cy="147.093"
       cx="77.671997"
       gradientTransform="matrix(1,0,0,0.58333,0,61.416)"
       gradientUnits="userSpaceOnUse"
       id="ac"
       xlink:href="#t" /><radialGradient
       r="1.535"
       fy="147.44099"
       fx="63.125"
       cy="147.44099"
       cx="63.125"
       gradientTransform="matrix(1,0,0,1.07512,0,-11.094)"
       gradientUnits="userSpaceOnUse"
       id="ae"
       xlink:href="#t" /><radialGradient
       r="35.511002"
       fy="126.535"
       fx="268.07001"
       cy="126.535"
       cx="268.07001"
       gradientTransform="matrix(0.20141,-0.03316,0.03065,0.18616,-3.126,114.036)"
       gradientUnits="userSpaceOnUse"
       id="aj"
       xlink:href="#u" /><radialGradient
       r="27.391001"
       fy="220.53799"
       fx="336.224"
       cy="220.53799"
       cx="336.224"
       gradientTransform="matrix(-0.69844,0,0,0.76336,166.306,50.22)"
       gradientUnits="userSpaceOnUse"
       id="am"
       xlink:href="#w" /><radialGradient
       r="27.391001"
       fy="236.366"
       fx="312.14499"
       cy="236.366"
       cx="312.14499"
       gradientTransform="matrix(1,0,0,0.76336,-289,41.22)"
       gradientUnits="userSpaceOnUse"
       id="ao"
       xlink:href="#w" /><radialGradient
       r="10.845"
       fy="225.13499"
       fx="275.55399"
       cy="225.13499"
       cx="275.55399"
       gradientTransform="matrix(1,0,0,1.06923,-289,-23.86)"
       gradientUnits="userSpaceOnUse"
       id="aq"
       xlink:href="#w" /><radialGradient
       r="16.846001"
       fy="303.41501"
       fx="363.34"
       cy="303.41501"
       cx="363.34"
       gradientTransform="matrix(1.3082,0.35053,-0.36795,1.37322,-310.51,-240.35)"
       gradientUnits="userSpaceOnUse"
       id="aG"
       xlink:href="#x" /><radialGradient
       r="16.846001"
       fy="303.41501"
       fx="363.34"
       cy="303.41501"
       cx="363.34"
       gradientTransform="matrix(1.3082,0.35053,-0.36795,1.37322,-310.51,-240.35)"
       gradientUnits="userSpaceOnUse"
       id="aI"
       xlink:href="#x" /><radialGradient
       r="20.538"
       fy="246.858"
       fx="382.23499"
       cy="246.858"
       cx="382.23499"
       gradientTransform="matrix(0.36025,0.1568,-0.07247,0.1665,260.617,181.938)"
       gradientUnits="userSpaceOnUse"
       id="aL"
       xlink:href="#z" /><clipPath
       id="aS"
       clipPathUnits="userSpaceOnUse"><path
         d="m 137.577,281.02 c 1.6,-0.664 3.398,-0.785 5.1,-0.47 1.703,0.313 3.312,1.049 4.744,2.022 2.864,1.946 4.988,4.778 7.023,7.58 4.672,6.433 9.169,13.002 13.245,19.829 3.306,5.537 6.343,11.257 10.164,16.453 2.494,3.392 5.306,6.54 7.813,9.922 2.506,3.383 4.728,7.056 5.84,11.117 1.443,5.276 0.884,11.092 -1.627,15.953 -1.767,3.419 -4.477,6.352 -7.773,8.339 -3.296,1.986 -7.17,3.014 -11.016,2.87 -6.114,-0.23 -11.7,-3.285 -17.384,-5.55 -11.58,-4.612 -24.16,-6.059 -36.097,-9.651 -3.668,-1.104 -7.275,-2.41 -10.97,-3.426 -1.64,-0.452 -3.308,-0.849 -4.858,-1.552 -1.55,-0.703 -3,-1.749 -3.862,-3.217 -0.666,-1.134 -0.948,-2.47 -0.93,-3.785 0.018,-1.316 0.326,-2.615 0.774,-3.852 0.896,-2.474 2.343,-4.713 3.32,-7.157 1.595,-3.989 1.882,-8.388 1.666,-12.679 -0.215,-4.291 -0.91,-8.545 -1.204,-12.831 -0.131,-1.914 -0.18,-3.853 0.185,-5.736 0.365,-1.884 1.175,-3.725 2.557,-5.056 1.274,-1.226 2.965,-1.955 4.697,-2.316 1.731,-0.361 3.515,-0.378 5.284,-0.338 1.768,0.04 3.54,0.135 5.303,-0.01 1.763,-0.145 3.534,-0.54 5.07,-1.419 1.46,-0.834 2.653,-2.074 3.643,-3.434 0.99,-1.36 1.789,-2.846 2.609,-4.314 0.82,-1.468 1.668,-2.931 2.741,-4.226 1.074,-1.294 2.39,-2.423 3.943,-3.067"
         fill="#402c07"
         id="path111" /></clipPath><clipPath
       id="aQ"
       clipPathUnits="userSpaceOnUse"><path
         d="m 248.06,184.612 c -2.6,3.44 -5.233,6.856 -7.896,10.247 a 928.914,928.914 0 0 1 -8.588,10.752 c -3.54,4.374 -7.151,8.792 -9.449,13.93 -1.974,4.414 -2.91,9.207 -4.265,13.85 -1.538,5.27 -3.626,10.37 -5.97,15.335 -2.165,4.586 -4.55,9.063 -6.94,13.536 -1.738,3.254 -3.504,6.581 -4.107,10.22 -0.476,2.877 -0.199,5.845 0.534,8.667 0.732,2.822 1.91,5.51 3.237,8.106 5.668,11.075 14.17,20.622 24.242,27.925 a 85.153,85.153 0 0 0 14.603,8.526 c 2.782,1.27 5.713,2.404 8.771,2.457 1.53,0.027 3.075,-0.225 4.475,-0.84 1.4,-0.616 2.65,-1.604 3.482,-2.888 1.023,-1.577 1.37,-3.538 1.165,-5.407 -0.205,-1.87 -0.935,-3.653 -1.913,-5.259 -2.39,-3.922 -6.165,-6.76 -9.797,-9.573 -7.84,-6.074 -15.424,-12.48 -22.682,-19.24 -2.049,-1.909 -4.098,-3.878 -5.53,-6.284 -1.394,-2.344 -2.148,-5.014 -2.658,-7.693 -1.4,-7.349 -1.04,-15.082 1.46,-22.133 0.978,-2.759 2.27,-5.392 3.518,-8.04 2.162,-4.588 4.211,-9.263 7.05,-13.467 3.532,-5.233 8.244,-9.673 11.15,-15.278 2.455,-4.734 3.494,-10.058 4.363,-15.318 a 298.759,298.759 0 0 0 1.746,-12.13"
         fill="none"
         stroke="#729fcf"
         stroke-width="0.125"
         id="path112" /></clipPath><clipPath
       id="aK"
       clipPathUnits="userSpaceOnUse"><path
         d="m 386.188,285.328 c -0.406,-1.104 -1.119,-2.082 -1.991,-2.87 -0.872,-0.788 -1.9,-1.392 -2.983,-1.852 -2.165,-0.918 -4.52,-1.261 -6.831,-1.695 -2.18,-0.41 -4.342,-0.907 -6.528,-1.278 -2.272,-0.385 -4.618,-0.632 -6.866,-0.125 -1.965,0.443 -3.784,1.459 -5.271,2.819 -1.488,1.36 -2.65,3.056 -3.485,4.89 -1.473,3.23 -1.935,6.865 -1.654,10.403 0.209,2.633 0.875,5.346 2.608,7.34 1.401,1.61 3.388,2.614 5.434,3.22 a 18.392,18.392 0 0 0 10.86,-0.155 28.586,28.586 0 0 0 14.331,-10.78 c 1.139,-1.649 2.112,-3.447 2.553,-5.403 0.336,-1.49 0.349,-3.08 -0.177,-4.514"
         fill="none"
         stroke="#ce5c00"
         id="path113" /></clipPath><clipPath
       id="aN"
       clipPathUnits="userSpaceOnUse"><path
         d="m 386.188,285.328 c -0.406,-1.104 -1.119,-2.082 -1.991,-2.87 -0.872,-0.788 -1.9,-1.392 -2.983,-1.852 -2.165,-0.918 -4.52,-1.261 -6.831,-1.695 -2.18,-0.41 -4.342,-0.907 -6.528,-1.278 -2.272,-0.385 -4.618,-0.632 -6.866,-0.125 -1.965,0.443 -3.784,1.459 -5.271,2.819 -1.488,1.36 -2.65,3.056 -3.485,4.89 -1.473,3.23 -1.935,6.865 -1.654,10.403 0.209,2.633 0.875,5.346 2.608,7.34 1.401,1.61 3.388,2.614 5.434,3.22 a 18.392,18.392 0 0 0 10.86,-0.155 28.586,28.586 0 0 0 14.331,-10.78 c 1.139,-1.649 2.112,-3.447 2.553,-5.403 0.336,-1.49 0.349,-3.08 -0.177,-4.514"
         fill="none"
         stroke="#ce5c00"
         id="path114" /></clipPath><clipPath
       id="aw"
       clipPathUnits="userSpaceOnUse"><path
         d="m 516.006,331.876 a 16.933,16.933 0 0 1 -2.816,4.738 c -2.624,3.115 -6.268,5.17 -9.897,7.02 -6.188,3.154 -12.601,5.921 -18.42,9.716 -3.897,2.543 -7.495,5.527 -10.86,8.743 -2.877,2.75 -5.605,5.687 -8.832,8.017 -3.256,2.352 -7.02,4.055 -10.99,4.65 -4.83,0.725 -9.822,-0.212 -14.3,-2.164 -3.137,-1.367 -6.155,-3.323 -7.963,-6.229 -1.814,-2.917 -2.228,-6.488 -2.232,-9.924 -0.008,-6.076 1.118,-12.09 2.178,-18.073 0.881,-4.972 1.72,-9.955 2.26,-14.975 0.984,-9.131 0.977,-18.353 0.32,-27.513 -0.11,-1.535 -0.237,-3.084 -0.008,-4.605 0.23,-1.52 0.855,-3.036 2.021,-4.04 1.077,-0.926 2.521,-1.335 3.94,-1.414 1.418,-0.078 2.834,0.147 4.24,0.352 3.312,0.484 6.65,0.865 9.888,1.717 2.043,0.537 4.034,1.259 6.073,1.81 3.402,0.92 6.966,1.362 10.467,0.952 3.77,-0.44 7.43,-1.856 11.224,-1.764 1.556,0.037 3.101,0.331 4.586,0.8 1.516,0.477 3.01,1.161 4.123,2.295 0.846,0.86 1.436,1.945 1.879,3.068 0.66,1.674 1.015,3.457 1.167,5.25 0.135,1.588 0.113,3.194 0.414,4.76 0.495,2.574 1.848,4.922 3.529,6.934 1.68,2.012 3.69,3.72 5.696,5.408 2,1.68 4.01,3.355 6.167,4.828 1.012,0.692 2.056,1.34 3.017,2.1 0.961,0.762 1.845,1.648 2.446,2.716 a 6.785,6.785 0 0 1 0.683,4.827"
         fill="url(#A)"
         id="path115"
         style="fill:url(#B)" /></clipPath><clipPath
       id="ay"
       clipPathUnits="userSpaceOnUse"><path
         d="m 516.006,331.876 a 16.933,16.933 0 0 1 -2.816,4.738 c -2.624,3.115 -6.268,5.17 -9.897,7.02 -6.188,3.154 -12.601,5.921 -18.42,9.716 -3.897,2.543 -7.495,5.527 -10.86,8.743 -2.877,2.75 -5.605,5.687 -8.832,8.017 -3.256,2.352 -7.02,4.055 -10.99,4.65 -4.83,0.725 -9.822,-0.212 -14.3,-2.164 -3.137,-1.367 -6.155,-3.323 -7.963,-6.229 -1.814,-2.917 -2.228,-6.488 -2.232,-9.924 -0.008,-6.076 1.118,-12.09 2.178,-18.073 0.881,-4.972 1.72,-9.955 2.26,-14.975 0.984,-9.131 0.977,-18.353 0.32,-27.513 -0.11,-1.535 -0.237,-3.084 -0.008,-4.605 0.23,-1.52 0.855,-3.036 2.021,-4.04 1.077,-0.926 2.521,-1.335 3.94,-1.414 1.418,-0.078 2.834,0.147 4.24,0.352 3.312,0.484 6.65,0.865 9.888,1.717 2.043,0.537 4.034,1.259 6.073,1.81 3.402,0.92 6.966,1.362 10.467,0.952 3.77,-0.44 7.43,-1.856 11.224,-1.764 1.556,0.037 3.101,0.331 4.586,0.8 1.516,0.477 3.01,1.161 4.123,2.295 0.846,0.86 1.436,1.945 1.879,3.068 0.66,1.674 1.015,3.457 1.167,5.25 0.135,1.588 0.113,3.194 0.414,4.76 0.495,2.574 1.848,4.922 3.529,6.934 1.68,2.012 3.69,3.72 5.696,5.408 2,1.68 4.01,3.355 6.167,4.828 1.012,0.692 2.056,1.34 3.017,2.1 0.961,0.762 1.845,1.648 2.446,2.716 a 6.785,6.785 0 0 1 0.683,4.827"
         fill="url(#B)"
         id="path116" /></clipPath><clipPath
       id="aA"
       clipPathUnits="userSpaceOnUse"><path
         d="m 511.827,331.9 a 14.175,14.175 0 0 1 -2.464,3.845 c -2.325,2.588 -5.507,4.222 -8.658,5.696 -5.42,2.536 -11.001,4.78 -16.116,7.885 -3.383,2.055 -6.537,4.472 -9.502,7.095 -2.524,2.232 -4.93,4.627 -7.727,6.506 -2.883,1.936 -6.176,3.299 -9.616,3.773 -4.218,0.582 -8.553,-0.183 -12.51,-1.756 -2.71,-1.077 -5.367,-2.618 -6.967,-5.055 -1.539,-2.341 -1.934,-5.251 -1.954,-8.053 -0.035,-4.938 0.965,-9.818 1.906,-14.666 0.782,-4.03 1.527,-8.072 1.978,-12.152 0.817,-7.406 0.66,-14.886 0.28,-22.327 -0.065,-1.249 -0.134,-2.51 0.078,-3.743 0.213,-1.232 0.737,-2.452 1.682,-3.271 0.94,-0.814 2.21,-1.16 3.451,-1.212 1.242,-0.052 2.477,0.164 3.705,0.35 2.89,0.436 5.811,0.709 8.652,1.392 1.787,0.43 3.531,1.02 5.313,1.47 2.986,0.753 6.097,1.107 9.158,0.772 3.294,-0.36 6.507,-1.51 9.82,-1.432 1.358,0.032 2.707,0.272 4.013,0.65 1.312,0.38 2.617,0.92 3.607,1.862 0.725,0.69 1.25,1.57 1.643,2.49 0.577,1.348 0.887,2.8 1.021,4.26 0.12,1.288 0.105,2.594 0.363,3.862 0.437,2.149 1.64,4.081 3.115,5.704 1.475,1.622 3.224,2.967 4.956,4.312 1.756,1.364 3.51,2.74 5.396,3.918 0.882,0.552 1.793,1.06 2.634,1.672 0.842,0.612 1.62,1.339 2.145,2.236 a 5.42,5.42 0 0 1 0.598,3.917"
         fill="url(#C)"
         id="path117" /></clipPath><clipPath
       id="ak"
       clipPathUnits="userSpaceOnUse"><path
         d="m 304.847,225.45 c 6.017,4.923 9.777,12.317 10.943,20.003 1.826,12.031 -2.346,24.074 -6.445,35.532 -0.818,2.285 -1.64,4.59 -1.965,6.995 -0.325,2.405 -0.12,4.949 1.03,7.086 1.302,2.425 3.732,4.125 6.366,4.923 2.589,0.785 5.394,0.761 8.015,0.092 2.62,-0.668 5.06,-1.967 7.187,-3.64 5.48,-4.31 8.758,-10.985 10.01,-17.843 1.253,-6.859 0.64,-13.93 -0.55,-20.799 -1.624,-9.369 -4.31,-18.54 -7.74,-27.407 -2.518,-6.508 -5.469,-12.911 -9.618,-18.52 -4.046,-5.47 -9.162,-10.09 -13.104,-15.636 -2.732,-3.844 -4.9,-8.13 -8.191,-11.508 -1.646,-1.688 -3.577,-3.135 -5.77,-4.001 -2.193,-0.866 -4.664,-1.125 -6.933,-0.483 -1.504,0.426 -2.892,1.238 -4.038,2.302 -1.145,1.064 -2.052,2.376 -2.692,3.803 -1.28,2.853 -1.477,6.112 -0.965,9.198 0.66,3.983 2.444,7.693 4.465,11.188 2.274,3.932 4.918,7.72 8.385,10.654 3.598,3.047 7.961,5.074 11.61,8.06"
         fill="none"
         stroke="#c17d11"
         id="path118" /></clipPath><clipPath
       clipPathUnits="userSpaceOnUse"
       id="ai"><path
         d="m 54.232,122.362 c -1.78,0.097 -3.484,0.92 -4.787,2.137 -1.304,1.218 -2.222,2.812 -2.787,4.503 -1.13,3.384 -0.875,7.052 -0.618,10.61 0.232,3.222 0.47,6.506 1.676,9.502 0.604,1.498 1.45,2.91 2.58,4.064 1.13,1.153 2.553,2.042 4.12,2.434 1.468,0.368 3.037,0.292 4.482,-0.162 1.445,-0.454 2.764,-1.279 3.846,-2.338 1.58,-1.545 2.643,-3.566 3.254,-5.69 0.61,-2.123 0.784,-4.35 0.752,-6.56 -0.04,-2.764 -0.4,-5.538 -1.266,-8.164 -0.865,-2.626 -2.245,-5.103 -4.173,-7.086 -0.933,-0.96 -1.997,-1.805 -3.198,-2.397 -1.201,-0.593 -2.544,-0.926 -3.88,-0.853"
         fill="url(#D)"
         id="path119" /></clipPath><clipPath
       clipPathUnits="userSpaceOnUse"
       id="P"><path
         d="m 85.75,122.362 c -2.78,1.91 -5.11,4.575 -6.25,7.75 -1.436,4.002 -0.886,8.48 0.5,12.5 1.42,4.117 3.794,8.041 7.38,10.513 1.792,1.235 3.867,2.083 6.03,2.338 2.162,0.256 4.409,-0.095 6.34,-1.1 2.353,-1.227 4.148,-3.374 5.262,-5.782 1.115,-2.408 1.589,-5.07 1.738,-7.719 0.19,-3.375 -0.14,-6.806 -1.25,-10 -1.205,-3.469 -3.39,-6.67 -6.473,-8.666 -1.541,-0.998 -3.292,-1.684 -5.11,-1.936 -1.82,-0.251 -3.705,-0.063 -5.417,0.602 -0.975,0.38 -1.887,0.908 -2.75,1.5"
         fill="url(#E)"
         id="path120" /></clipPath><clipPath
       clipPathUnits="userSpaceOnUse"
       id="clipPath102"><use
         x="0"
         y="0"
         xlink:href="#g101"
         id="use102" /></clipPath><clipPath
       clipPathUnits="userSpaceOnUse"
       id="clipPath103"><rect
         style="display:inline;fill:#ffffff;fill-opacity:1;stroke:#e9ecef;stroke-width:1.93103;stroke-dasharray:none;stroke-opacity:1"
         id="rect103"
         width="54.06897"
         height="54.06897"
         x="4.9655151"
         y="4.9655151"
         rx="15.448277"
         ry="15.448277" /></clipPath></defs><g
     inkscape:label="Layer 1"
     inkscape:groupmode="layer"
     id="layer1"><rect
       style="fill:#212529;fill-opacity:1;stroke-width:2.83465"
       id="rect1"
       width="256"
       height="64"
       x="0"
       y="0"
       rx="16" /><rect
       style="fill:#ffffff;fill-opacity:1;stroke:#e9ecef;stroke-width:1.93103;stroke-dasharray:none;stroke-opacity:1"
       id="rect2"
       width="54.06897"
       height="54.06897"
       x="4.9655151"
       y="4.9655151"
       rx="15.448277" /><text
       xml:space="preserve"
       style="font-style:normal;font-variant:normal;font-weight:bold;font-stretch:normal;font-size:18.66666667px;line-height:1.25;font-family:Comfortaa;-inkscape-font-specification:'Comfortaa Bold';text-align:start;text-decoration-color:#000000;writing-mode:lr-tb;direction:ltr;text-anchor:start;fill:#f8765f;fill-opacity:1;stroke:none;stroke-width:4;stroke-dasharray:none;stroke-opacity:1"
       x="71.210663"
       y="24.87464"
       id="text2"><tspan
         sodipodi:role="line"
         id="tspan2"
         x="71.210663"
         y="24.87464">PawnIO Modules</tspan></text><text
       xml:space="preserve"
       style="font-style:normal;font-variant:normal;font-weight:normal;font-stretch:normal;font-size:10.6667px;line-height:1.25;font-family:Roboto;-inkscape-font-specification:Roboto;text-align:start;text-decoration-color:#000000;writing-mode:lr-tb;direction:ltr;text-anchor:start;fill:#e9ecef;fill-opacity:1;stroke:none;stroke-width:4;stroke-dasharray:none;stroke-opacity:1"
       x="71.854164"
       y="38.109402"
       id="text3"><tspan
         sodipodi:role="line"
         x="71.854164"
         y="38.109402"
         id="tspan1">Implemented the Chrome OS EC</tspan><tspan
         sodipodi:role="line"
         x="71.854164"
         y="51.442776"
         id="tspan101">Implemented SMBus for Intel &amp; AMD</tspan></text><g
       id="g102"
       clip-path="url(#clipPath103)"><g
         inkscape:label="Clip"
         id="g101"><g
           id="g2"
           transform="matrix(0.109375,0,0,0.109375,4.0000001,4.0000001)"
           style="display:inline;stroke-width:14.2857"><rect
             style="fill:#88c5cc;stroke-width:0.25"
             id="rect4"
             width="56"
             height="56"
             x="3.9999998"
             y="4"
             transform="matrix(9.1428571,0,0,9.1428571,-36.571429,-36.571429)" /><path
             id="path1"
             style="fill:#80b9bf;stroke-width:14.2857"
             d="m 252.64286,75.857142 c -0.36869,-0.0022 -0.72229,0.01957 -1.08929,0.05357 -1.188,0.092 -2.35386,0.08929 -3.51786,0.08929 H 248 v 0.321429 c -28,3.892 -48,27.301849 -48,55.517849 0,4.872 0.65343,9.58129 1.82143,14.08929 0.144,0.636 0.24671,1.28271 0.41071,1.91071 1.04,4.612 2.63,9.009 4.75,13.125 1.028,3.616 2.40714,7.091 4.10714,10.375 1.016,3.556 2.39543,6.96443 4.07143,10.19643 1.02,3.544 2.38157,6.95457 4.05357,10.17857 0.032,0.116 0.0791,0.24115 0.10715,0.35715 C 215.24943,192.43543 212,195.836 212,200 c 0,1.28 0.331,2.47757 0.875,3.55357 -0.008,0.152 -0.0536,0.29443 -0.0536,0.44643 0,1.864 0.67,3.56457 1.75,4.92857 0.18,1.5 0.76471,2.868 1.66071,4 0.18,1.5 0.76072,2.868 1.66072,4 0.172,1.504 0.76071,2.868 1.66071,4 0.172,1.5 0.74686,2.868 1.64286,4 0.176,1.5 0.76471,2.868 1.66071,4 0.176,1.5 0.76472,2.868 1.66072,4 0.176,1.5 0.74685,2.868 1.64285,4 0.176,1.5 0.76472,2.868 1.66072,4 0.048,0.404 0.12014,0.79457 0.23214,1.17857 C 222.93357,286.51514 211.18,340.436 184,388 h -4 c -4.4,0 -8,3.6 -8,8 0,1.288 0.34486,2.49143 0.89286,3.57143 0.116,1.616 0.70871,3.02871 1.66071,4.16071 0.064,0.732 0.21629,1.42343 0.46429,2.07143 C 173.19786,407.27157 172,409.488 172,412 c 0,1.26 0.32914,2.44586 0.85714,3.51786 0.048,1.584 0.539,3.13814 1.375,4.48214 H 164 c -4.4,0 -8,3.596 -8,8 0,1.276 0.331,2.47757 0.875,3.55357 -0.008,0.152 -0.0536,0.29443 -0.0536,0.44643 0,1.864 0.67,3.56457 1.75,4.92857 0.18,1.5 0.76471,2.868 1.66071,4 0.18,1.5 0.76072,2.872 1.66072,4 0.172,1.508 0.76071,2.868 1.66071,4 0.172,1.5 0.74686,2.868 1.64286,4 0.176,1.5 0.76471,2.868 1.66071,4 0.176,1.5 0.76472,2.868 1.66072,4 0.176,1.5 0.74685,2.868 1.64285,4 0.176,1.5 0.76472,2.868 1.66072,4 0.176,1.5 0.76471,2.868 1.66071,4 0.176,1.5 0.74286,2.872 1.64286,4 0.176,1.508 0.76071,2.868 1.66071,4 0.176,1.5 0.76072,2.868 1.66072,4 0.172,1.5 0.76071,2.868 1.66071,4 0.172,1.5 0.74286,2.868 1.64286,4 0.16942,1.47753 0.74783,2.82445 1.625,3.94643 0.0613,0.5338 0.19287,1.05757 0.35714,1.55357 0.0785,0.23696 0.15029,0.46961 0.25,0.69643 v 0.0179 H 184 c 0.28387,0.64046 0.64047,1.24143 1.07143,1.78571 0.007,0.0567 0.01,0.1044 0.0179,0.16071 0.20251,1.43357 0.78073,2.75007 1.64286,3.83929 0.18,1.5 0.74286,2.872 1.64286,4 0.12724,1.11561 0.47717,2.15021 1.01786,3.07143 h 281.53571 c -0.26037,-0.63785 -0.52275,-1.26944 -0.80357,-1.89286 -0.5,-1.376 -1.04686,-2.73357 -1.64286,-4.05357 -0.508,-1.4 -1.07057,-2.76314 -1.67857,-4.10714 -0.508,-1.388 -1.03886,-2.75329 -1.64286,-4.08929 -0.508,-1.388 -1.05671,-2.75728 -1.66071,-4.08928 -0.508,-1.388 -1.05272,-2.75329 -1.66072,-4.08929 -0.508,-1.388 -1.03485,-2.75729 -1.64285,-4.08929 -0.508,-1.392 -1.05272,-2.73942 -1.66072,-4.07142 -0.508,-1.396 -1.05671,-2.75329 -1.66071,-4.08929 -0.5,-1.376 -1.04286,-2.74343 -1.64286,-4.07143 -0.504,-1.384 -1.04286,-2.74343 -1.64286,-4.07143 -0.688,-2.2 -1.556,-4.303 -2.5,-6.375 -0.504,-1.388 -1.05671,-2.75328 -1.66071,-4.08928 -0.504,-1.388 -1.05271,-2.75729 -1.66071,-4.08929 -0.504,-1.392 -1.03486,-2.75328 -1.64286,-4.08928 -0.5,-1.388 -1.05272,-2.75329 -1.66072,-4.08929 -0.5,-1.376 -1.04285,-2.72957 -1.64285,-4.05357 -0.508,-1.4 -1.05272,-2.76314 -1.66072,-4.10714 -0.508,-1.392 -1.05671,-2.75729 -1.66071,-4.08929 -0.508,-1.392 -1.06072,-2.75329 -1.66072,-4.08929 -0.508,-1.388 -1.04285,-2.75728 -1.64285,-4.08928 -0.508,-1.388 -1.05672,-2.75329 -1.66072,-4.08929 -0.504,-1.388 -1.05671,-2.75728 -1.66071,-4.08928 -0.5,-1.376 -1.03886,-2.73357 -1.64286,-4.05357 -0.508,-1.404 -1.05271,-2.781 -1.66071,-4.125 -0.504,-1.388 -1.05272,-2.73543 -1.66072,-4.07143 -0.504,-1.388 -1.05271,-2.75729 -1.66071,-4.08929 -0.504,-1.392 -1.03886,-2.75728 -1.64286,-4.08928 -0.5,-1.372 -1.04686,-2.71572 -1.64286,-4.03572 -0.692,-2.2 -1.556,-4.32086 -2.5,-6.39286 -0.5,-1.376 -1.04285,-2.73357 -1.64285,-4.05357 -0.508,-1.4 -1.05272,-2.777 -1.66072,-4.125 -0.508,-1.388 -1.06071,-2.75328 -1.66071,-4.08928 -0.508,-1.388 -1.04286,-2.75729 -1.64286,-4.08929 -0.508,-1.388 -1.05271,-2.73943 -1.66071,-4.07143 -0.5,-1.392 -1.05272,-2.77114 -1.66072,-4.10714 -0.5,-1.388 -1.05671,-2.73943 -1.66071,-4.07143 -0.504,-1.392 -1.03886,-2.75728 -1.64286,-4.08928 -0.5,-1.376 -1.04686,-2.73358 -1.64286,-4.05358 -0.508,-1.4 -1.07057,-2.781 -1.67857,-4.125 -0.504,-1.392 -1.04285,-2.75728 -1.64285,-4.08928 -0.508,-1.388 -1.06072,-2.75329 -1.66072,-4.08929 -0.508,-1.388 -1.05271,-2.75328 -1.66071,-4.08928 -0.504,-1.388 -1.05272,-2.73943 -1.66072,-4.07143 -0.504,-1.388 -1.03885,-2.75329 -1.64285,-4.08929 -0.492,-1.36 -1.037,-2.70985 -1.625,-4.01785 -0.696,-2.212 -1.56986,-4.32672 -2.51786,-6.41072 -0.5,-1.388 -1.05272,-2.75728 -1.66072,-4.08928 -0.5,-1.392 -1.03485,-2.75329 -1.64285,-4.08929 -0.5,-1.388 -1.05272,-2.75729 -1.66072,-4.08929 -0.5,-1.388 -1.03885,-2.75328 -1.64285,-4.08928 -0.504,-1.388 -1.05672,-2.73943 -1.66072,-4.07143 -0.504,-1.388 -1.05671,-2.75329 -1.66071,-4.08929 -0.5,-1.376 -1.04686,-2.74742 -1.64286,-4.07142 -0.508,-1.4 -1.04871,-2.76315 -1.66071,-4.10715 -0.504,-1.392 -1.05672,-2.75328 -1.66072,-4.08928 -0.504,-1.388 -1.05271,-2.75729 -1.66071,-4.08929 -0.504,-1.388 -1.05272,-2.75328 -1.66072,-4.08928 -0.504,-1.388 -1.03885,-2.75729 -1.64285,-4.08929 -0.504,-1.388 -1.06072,-2.75329 -1.66072,-4.08929 -0.5,-1.376 -1.04686,-2.72957 -1.64286,-4.05357 -0.508,-1.4 -1.04871,-2.781 -1.66071,-4.125 -0.5,-1.388 -1.05671,-2.73543 -1.66071,-4.07143 -0.508,-1.388 -1.05672,-2.75728 -1.66072,-4.08928 -0.92009,-2.52429 -2.01458,-4.96351 -3.26786,-7.30357 -0.0465,-0.1042 -0.0956,-0.21757 -0.14285,-0.32143 -0.5,-1.388 -1.03486,-2.75729 -1.64286,-4.08929 -0.5,-1.388 -1.05671,-2.75328 -1.66071,-4.08928 -0.504,-1.388 -1.05672,-2.73943 -1.66072,-4.07143 -0.504,-1.388 -1.03886,-2.75329 -1.64286,-4.08929 -0.5,-1.376 -1.04685,-2.72957 -1.64285,-4.05357 -0.508,-1.4 -1.06657,-2.781 -1.67857,-4.125 -0.504,-1.392 -1.05672,-2.75328 -1.66072,-4.08928 -0.504,-1.388 -1.03486,-2.75729 -1.64286,-4.08929 -0.504,-1.388 -1.05271,-2.75329 -1.66071,-4.08929 -0.504,-1.388 -1.05671,-2.73942 -1.66071,-4.07142 -0.504,-1.388 -1.04286,-2.75329 -1.64286,-4.08929 -0.5,-1.376 -1.04686,-2.74743 -1.64286,-4.07143 -0.508,-1.4 -1.06657,-2.76314 -1.67857,-4.10714 -0.5,-1.388 -1.05671,-2.75329 -1.66071,-4.08929 -0.508,-1.388 -1.03886,-2.75728 -1.64286,-4.08928 -1.10916,-3.04298 -2.46418,-5.96121 -4.05357,-8.73215 -0.28809,-0.71824 -0.59275,-1.43954 -0.91072,-2.14285 -0.504,-1.388 -1.05671,-2.73943 -1.66071,-4.07143 -0.504,-1.388 -1.05672,-2.75329 -1.66072,-4.08929 -0.5,-1.376 -1.04685,-2.72957 -1.64285,-4.05357 -0.508,-1.4 -1.04872,-2.781 -1.66072,-4.125 -0.504,-1.392 -1.05671,-2.75328 -1.66071,-4.08928 -0.504,-1.388 -1.05272,-2.75729 -1.66072,-4.08929 -0.504,-1.388 -1.03485,-2.75329 -1.64285,-4.08929 -0.504,-1.388 -1.05672,-2.73942 -1.66072,-4.07142 -0.504,-1.388 -1.06071,-2.75329 -1.66071,-4.08929 -0.5,-1.376 -1.04686,-2.74743 -1.64286,-4.07143 -0.508,-1.4 -1.04871,-2.76314 -1.66071,-4.10714 -0.5,-1.388 -1.05672,-2.75329 -1.66072,-4.08929 -0.508,-1.388 -1.05671,-2.75728 -1.66071,-4.08928 C 300.765,91.382426 280.228,75.999999 256,75.999999 c -1.128,0 -2.25108,-0.136107 -3.35714,-0.142857 z" /><path
             style="fill:#e6e6e6;stroke-width:14.2857"
             d="m 280,164 c -12,0 -24,0 -24,0 0,0 -12,0 -24,0 0,36 0,140 -48,224 36,0 72,0 72,0 0,0 36,0 72,0 -48,-84 -48,-188 -48,-224 z"
             id="path2" /><path
             style="fill:#cccccc;stroke-width:14.2857"
             d="m 280,164 c -5.788,0 -11.564,0 -16,0 0,36 0,140 48,224 5.256,0 10.616,0 16,0 -48,-84 -48,-188 -48,-224 z"
             id="path3" /><path
             style="fill:#e6e6e6;stroke-width:14.2857"
             d="m 312,132 c 0,30.936 -25.048,56 -56,56 -30.92,0 -56,-25.064 -56,-56 0,-30.94 25.08,-56 56,-56 30.952,0 56,25.06 56,56 z"
             id="path4" /><path
             style="fill:#cccccc;stroke-width:14.2857"
             d="m 256,76 c -2.728,0 -5.384,0.26 -7.996,0.636 C 275.148,80.524 296,103.784 296,132 c 0,28.216 -20.852,51.476 -47.996,55.364 2.612,0.376 5.268,0.636 7.996,0.636 30.952,0 56,-25.064 56,-56 0,-30.94 -25.048,-56 -56,-56 z"
             id="path5" /><path
             style="fill:#cc584c;stroke-width:14.2857"
             d="m 292,184 c 0,4.4 -3.6,8 -8,8 h -56 c -4.4,0 -8,-3.6 -8,-8 v 0 c 0,-4.4 3.6,-8 8,-8 h 56 c 4.4,0 8,3.6 8,8 z"
             id="path6" /><g
             id="g8"
             style="stroke-width:14.2857">
	<path
   style="fill:#263740;stroke-width:14.2857"
   d="m 300,200 c 0,4.4 -3.6,8 -8,8 h -72 c -4.4,0 -8,-3.6 -8,-8 v 0 c 0,-4.4 3.6,-8 8,-8 h 72 c 4.4,0 8,3.6 8,8 z"
   id="path7" />
	<path
   style="fill:#263740;stroke-width:14.2857"
   d="m 340,396 c 0,4.4 -3.6,8 -8,8 H 180 c -4.4,0 -8,-3.6 -8,-8 v 0 c 0,-4.4 3.6,-8 8,-8 h 152 c 4.4,0 8,3.6 8,8 z"
   id="path8" />
</g><path
             style="fill:#1e2c33;stroke-width:14.2857"
             d="m 332,388 h -16 c 4.4,0 8,3.6 8,8 0,4.4 -3.6,8 -8,8 h 16 c 4.4,0 8,-3.6 8,-8 0,-4.4 -3.6,-8 -8,-8 z"
             id="path9" /><path
             style="fill:#cc584c;stroke-width:14.2857"
             d="m 340,412 c 0,4.4 -3.6,8 -8,8 H 180 c -4.4,0 -8,-3.6 -8,-8 v 0 c 0,-4.4 3.6,-8 8,-8 h 152 c 4.4,0 8,3.6 8,8 z"
             id="path10" /><path
             style="fill:#263740;stroke-width:14.2857"
             d="m 356,428 c 0,4.4 -3.6,8 -8,8 H 164 c -4.4,0 -8,-3.6 -8,-8 v 0 c 0,-4.4 3.6,-8 8,-8 h 184 c 4.4,0 8,3.6 8,8 z"
             id="path11" /><path
             style="fill:#1e2c33;stroke-width:14.2857"
             d="m 348,420 h -16 c 4.4,0 8,3.6 8,8 0,4.4 -3.6,8 -8,8 h 16 c 4.4,0 8,-3.6 8,-8 0,-4.4 -3.6,-8 -8,-8 z"
             id="path12" /><path
             style="fill:#b34d43;stroke-width:14.2857"
             d="m 332,404 h -16 c 4.4,0 8,3.6 8,8 0,4.4 -3.6,8 -8,8 h 16 c 4.4,0 8,-3.6 8,-8 0,-4.4 -3.6,-8 -8,-8 z"
             id="path13" /><path
             style="fill:#1e2c33;stroke-width:14.2857"
             d="m 292,192 h -16 c 4.4,0 8,3.6 8,8 0,4.4 -3.6,8 -8,8 h 16 c 4.4,0 8,-3.6 8,-8 0,-4.4 -3.6,-8 -8,-8 z"
             id="path14" /><path
             style="fill:#b34d43;stroke-width:14.2857"
             d="m 284,176 h -16 c 4.4,0 8,3.6 8,8 0,4.4 -3.6,8 -8,8 h 16 c 4.4,0 8,-3.6 8,-8 0,-4.4 -3.6,-8 -8,-8 z"
             id="path15" /></g></g></g></g></svg>
